<?xml version="1.0" encoding="UTF-8"?> <svg xmlns="http://www.w3.org/2000/svg" width="575" height="205" viewBox="0 0 575 205" fill="none"> <path d="M5 44C5 31.84 9.04 21.6 17.12 13.28C25.2 4.96 35.44 0.799995 47.84 0.799995C60.16 0.799995 70.36 4.84 78.44 12.92C86.6 21 90.68 31.36 90.68 44C90.68 56.32 86.6 66.64 78.44 74.96C70.28 83.12 60.08 87.2 47.84 87.2C35.6 87.2 25.36 83.16 17.12 75.08C9.04 67 5 56.64 5 44ZM15.8 44C15.8 53.44 18.88 61.44 25.04 68C31.2 74.4 38.8 77.6 47.84 77.6C57.28 77.6 64.96 74.4 70.88 68C76.88 61.6 79.88 53.6 79.88 44C79.88 34.4 76.8 26.4 70.64 20C64.48 13.6 56.88 10.4 47.84 10.4C38.64 10.4 31 13.56 24.92 19.88C18.84 26.2 15.8 34.24 15.8 44ZM145.84 71.24L150.4 78.2C145.76 84.2 138.84 87.2 129.64 87.2C121 87.2 114 84.64 108.64 79.52C103.36 74.4 100.72 67.56 100.72 59C100.72 51.08 103.32 44.4 108.52 38.96C113.72 33.52 120.24 30.8 128.08 30.8C137.52 30.8 144.6 33.16 149.32 37.88L144.88 45.44C140.72 41.68 135.56 39.8 129.4 39.8C124.36 39.8 120 41.64 116.32 45.32C112.72 48.92 110.92 53.48 110.92 59C110.92 64.84 112.76 69.48 116.44 72.92C120.2 76.44 124.84 78.2 130.36 78.2C136.6 78.2 141.76 75.88 145.84 71.24ZM212.113 86H202.513V63.2H172.513V86H162.913V32H172.513V54.2H202.513V32H212.113V86ZM233.796 79.28C228.516 73.84 225.876 67.08 225.876 59C225.876 50.84 228.516 44.12 233.796 38.84C239.156 33.48 246.116 30.8 254.676 30.8C263.236 30.8 270.156 33.48 275.436 38.84C280.796 44.12 283.476 50.84 283.476 59C283.476 67.16 280.796 73.92 275.436 79.28C270.156 84.56 263.236 87.2 254.676 87.2C246.196 87.2 239.236 84.56 233.796 79.28ZM241.356 45.2C237.836 48.72 236.076 53.32 236.076 59C236.076 64.68 237.796 69.28 241.236 72.8C244.756 76.4 249.236 78.2 254.676 78.2C260.116 78.2 264.556 76.44 267.996 72.92C271.516 69.32 273.276 64.68 273.276 59C273.276 53.48 271.516 48.88 267.996 45.2C264.556 41.6 260.116 39.8 254.676 39.8C249.236 39.8 244.796 41.6 241.356 45.2ZM297.328 86V32C297.728 32 298.288 32 299.008 32C299.728 31.92 300.768 31.88 302.128 31.88C303.488 31.8 304.728 31.76 305.848 31.76C311.768 31.6 315.448 31.52 316.888 31.52C332.408 31.52 340.168 36.16 340.168 45.44C340.168 48.64 339.168 51.4 337.168 53.72C335.168 55.96 332.568 57.32 329.368 57.8V58.04C337.768 59.56 341.968 63.8 341.968 70.76C341.968 81.24 333.688 86.48 317.128 86.48C316.328 86.48 312.808 86.4 306.568 86.24C305.368 86.24 304.048 86.2 302.608 86.12C301.168 86.12 300.048 86.08 299.248 86C298.448 86 297.808 86 297.328 86ZM318.448 61.76H306.928V78.32C312.688 78.56 316.368 78.68 317.968 78.68C327.168 78.68 331.768 75.8 331.768 70.04C331.768 64.52 327.328 61.76 318.448 61.76ZM317.608 39.32C315.288 39.32 311.728 39.44 306.928 39.68V55.76H319.048C322.328 55.76 324.968 55 326.968 53.48C328.968 51.96 329.968 49.92 329.968 47.36C329.968 42 325.848 39.32 317.608 39.32ZM405.824 86H396.224V63.2H366.224V86H356.624V32H366.224V54.2H396.224V32H405.824V86ZM440.587 86H423.187V32H432.787V48.2H441.667C449.027 48.2 454.427 49.88 457.867 53.24C461.307 56.52 463.027 61.04 463.027 66.8C463.027 72.24 461.227 76.8 457.627 80.48C454.187 84.16 448.507 86 440.587 86ZM482.947 86H473.347V32H482.947V86ZM439.867 57.2H432.787V77H439.747C444.307 77 447.627 76.2 449.707 74.6C451.787 73 452.827 70.52 452.827 67.16C452.827 60.52 448.507 57.2 439.867 57.2ZM542.779 72.56L545.779 80.12C540.579 84.84 533.819 87.2 525.499 87.2C516.699 87.2 509.699 84.64 504.499 79.52C499.219 74.4 496.579 67.56 496.579 59C496.579 50.92 499.059 44.2 504.019 38.84C508.899 33.48 515.699 30.8 524.419 30.8C531.619 30.8 537.579 33.12 542.299 37.76C547.099 42.32 549.499 48.24 549.499 55.52C549.499 57.84 549.299 60 548.899 62H507.379C507.779 67.04 509.659 71 513.019 73.88C516.459 76.76 520.859 78.2 526.219 78.2C533.259 78.2 538.779 76.32 542.779 72.56ZM523.939 39.8C519.219 39.8 515.299 41.12 512.179 43.76C509.139 46.4 507.339 49.88 506.779 54.2H539.539C539.299 49.72 537.779 46.2 534.979 43.64C532.259 41.08 528.579 39.8 523.939 39.8ZM9.2 194.2H0.2V172H6.92C8.92 169.52 10.68 165.52 12.2 160C13.72 154.4 14.72 148.16 15.2 141.28L16.04 127H52.88V172H61.88V194.2H52.88V181H9.2V194.2ZM25.04 136L24.44 145C23.96 151 23 156.48 21.56 161.44C20.12 166.4 18.64 169.92 17.12 172H43.28V136H25.04ZM76.6475 174.28C71.3675 168.84 68.7275 162.08 68.7275 154C68.7275 145.84 71.3675 139.12 76.6475 133.84C82.0075 128.48 88.9675 125.8 97.5275 125.8C106.088 125.8 113.008 128.48 118.288 133.84C123.648 139.12 126.328 145.84 126.328 154C126.328 162.16 123.648 168.92 118.288 174.28C113.008 179.56 106.088 182.2 97.5275 182.2C89.0475 182.2 82.0875 179.56 76.6475 174.28ZM84.2075 140.2C80.6875 143.72 78.9275 148.32 78.9275 154C78.9275 159.68 80.6475 164.28 84.0875 167.8C87.6075 171.4 92.0875 173.2 97.5275 173.2C102.968 173.2 107.408 171.44 110.848 167.92C114.368 164.32 116.128 159.68 116.128 154C116.128 148.48 114.368 143.88 110.848 140.2C107.408 136.6 102.968 134.8 97.5275 134.8C92.0875 134.8 87.6475 136.6 84.2075 140.2ZM174.859 127H187.459L163.819 152.8L189.739 181H176.419L152.059 153.4L174.859 127ZM149.779 181H140.179V127H149.779V181ZM237.05 127H247.97L226.37 181C222.45 190.52 219.05 196.84 216.17 199.96C213.13 203.32 209.65 205 205.73 205C202.21 205 198.81 203.88 195.53 201.64L198.65 194.32C201.21 195.52 203.21 196.12 204.65 196.12C206.89 196.12 208.89 195.16 210.65 193.24C212.49 191.32 214.33 188.2 216.17 183.88L217.37 181L191.45 127H202.97L218.81 161.32C219.13 161.88 220.21 164.6 222.05 169.48C222.77 166.84 223.61 164.08 224.57 161.2L237.05 127ZM267.435 181H257.835V127H266.595L287.355 153.76L307.035 127H315.555V181H305.955V141.64L287.235 166.72H286.875L267.435 141.64V181ZM375.553 167.56L378.553 175.12C373.353 179.84 366.593 182.2 358.273 182.2C349.473 182.2 342.473 179.64 337.273 174.52C331.993 169.4 329.353 162.56 329.353 154C329.353 145.92 331.833 139.2 336.793 133.84C341.673 128.48 348.473 125.8 357.193 125.8C364.393 125.8 370.353 128.12 375.073 132.76C379.873 137.32 382.273 143.24 382.273 150.52C382.273 152.84 382.073 155 381.673 157H340.152C340.553 162.04 342.433 166 345.793 168.88C349.233 171.76 353.633 173.2 358.993 173.2C366.033 173.2 371.553 171.32 375.553 167.56ZM356.713 134.8C351.993 134.8 348.073 136.12 344.953 138.76C341.913 141.4 340.113 144.88 339.553 149.2H372.313C372.073 144.72 370.553 141.2 367.753 138.64C365.033 136.08 361.353 134.8 356.713 134.8ZM444.496 181H434.896V158.2H404.896V181H395.296V127H404.896V149.2H434.896V127H444.496V181ZM474.819 136.6H455.019V127H504.219V136.6H484.419V181H474.819V136.6ZM532.11 181H514.71V127H524.31V143.2H533.19C540.55 143.2 545.95 144.88 549.39 148.24C552.83 151.52 554.55 156.04 554.55 161.8C554.55 167.24 552.75 171.8 549.15 175.48C545.71 179.16 540.03 181 532.11 181ZM574.47 181H564.87V127H574.47V181ZM531.39 152.2H524.31V172H531.27C535.83 172 539.15 171.2 541.23 169.6C543.31 168 544.35 165.52 544.35 162.16C544.35 155.52 540.03 152.2 531.39 152.2Z" fill="black"></path> </svg> 