<?xml version="1.0" encoding="UTF-8"?> <svg xmlns="http://www.w3.org/2000/svg" width="394" height="326" viewBox="0 0 394 326" fill="none"> <rect x="1.49951" y="0.499512" width="357" height="325" rx="14.5" fill="#F9F8F8" stroke="#EFEFEF"></rect> <mask id="mask0" mask-type="alpha" maskUnits="userSpaceOnUse" x="0" y="-1" width="358" height="327"> <rect x="0.5" y="0.499512" width="357" height="325" rx="14.5" fill="#F9F8F8" stroke="#EFEFEF"></rect> </mask> <g mask="url(#mask0)"> <path d="M342.421 186.838C306.103 65.9623 189.91 100.474 159.344 186.047C128.779 271.62 178.861 367.731 271.206 400.715C363.551 433.7 463.19 391.068 493.756 305.495C524.322 219.921 374.89 275.153 342.421 186.838Z" fill="#FDFDFD"></path> <path d="M-37.5785 -153.162C-73.8972 -274.038 -190.09 -239.526 -220.656 -153.953C-251.221 -68.3796 -201.139 27.7307 -108.794 60.7152C-16.4489 93.6997 83.1901 51.068 113.756 -34.5054C144.322 -120.079 -5.1102 -64.8471 -37.5785 -153.162Z" fill="#FDFDFD"></path> </g> <path d="M88.5675 119.792C84.8715 119.792 81.6075 119.048 78.7755 117.56C75.9915 116.024 73.9275 113.936 72.5835 111.296L77.2635 105.248C80.0955 109.424 83.6955 111.512 88.0635 111.512C90.6075 111.512 92.5995 110.864 94.0395 109.568C95.4795 108.272 96.1995 106.592 96.1995 104.528C96.1995 102.224 95.3595 100.472 93.6795 99.2715C92.0475 98.0235 89.7675 97.3995 86.8395 97.3995H83.2395V89.1195H86.4795C88.6875 89.1195 90.5355 88.4715 92.0235 87.1755C93.5115 85.8795 94.2555 84.2235 94.2555 82.2075C94.2555 80.2875 93.7035 78.7995 92.5995 77.7435C91.4955 76.6395 89.9115 76.0875 87.8475 76.0875C83.9595 76.0875 80.7915 77.8875 78.3435 81.4875L73.7355 75.6555C76.5195 70.4235 81.4875 67.8075 88.6395 67.8075C93.0075 67.8075 96.5115 68.9835 99.1515 71.3355C101.792 73.6395 103.112 76.7355 103.112 80.6235C103.112 86.3355 100.544 90.3195 95.4075 92.5755V92.7915C98.4315 93.3195 100.784 94.6875 102.464 96.8955C104.192 99.0555 105.056 101.696 105.056 104.816C105.056 109.376 103.496 113.024 100.376 115.76C97.2555 118.448 93.3195 119.792 88.5675 119.792ZM130.131 88.9755H131.499C133.323 88.9755 134.859 88.3515 136.107 87.1035C137.355 85.8075 137.979 84.2715 137.979 82.4955C137.979 80.4795 137.307 78.9195 135.963 77.8155C134.619 76.6635 132.843 76.0875 130.635 76.0875C128.475 76.0875 126.747 76.6875 125.451 77.8875C124.155 79.0875 123.507 80.6235 123.507 82.4955C123.507 84.2715 124.131 85.8075 125.379 87.1035C126.675 88.3515 128.259 88.9755 130.131 88.9755ZM131.499 97.2555H130.275C128.019 97.2555 126.099 97.9275 124.515 99.2715C122.931 100.568 122.139 102.272 122.139 104.384C122.139 106.448 122.907 108.152 124.443 109.496C126.027 110.84 128.115 111.512 130.707 111.512C133.539 111.512 135.699 110.864 137.187 109.568C138.723 108.272 139.467 106.544 139.419 104.384C139.371 102.176 138.627 100.448 137.187 99.1995C135.747 97.9035 133.851 97.2555 131.499 97.2555ZM113.283 105.968C113.283 102.896 114.075 100.232 115.659 97.9755C117.243 95.6715 119.331 94.0875 121.923 93.2235V93.0075C119.811 92.0955 118.083 90.5835 116.739 88.4715C115.395 86.3115 114.723 83.8395 114.723 81.0555C114.723 77.1675 116.259 73.9995 119.331 71.5515C122.403 69.0555 126.195 67.8075 130.707 67.8075C135.267 67.8075 139.083 69.0555 142.155 71.5515C145.275 73.9995 146.835 77.1675 146.835 81.0555C146.835 83.5995 146.115 85.9755 144.675 88.1835C143.283 90.3435 141.411 91.9275 139.059 92.9355V93.1515C141.699 93.7275 143.883 95.1195 145.611 97.3275C147.339 99.4875 148.203 102.128 148.203 105.248C148.203 109.76 146.547 113.312 143.235 115.904C140.019 118.496 135.867 119.792 130.779 119.792C125.691 119.792 121.515 118.544 118.251 116.048C114.939 113.504 113.283 110.144 113.283 105.968ZM158.327 84.9435L153.935 78.1035L166.823 68.4555H172.799V119H164.519V80.2635L158.327 84.9435ZM87.0555 183.792C84.2235 183.792 81.4635 183.288 78.7755 182.28C76.0875 181.224 74.1435 179.928 72.9435 178.392L77.1915 173.208C78.1515 174.312 79.5195 175.248 81.2955 176.016C83.0715 176.784 84.7515 177.168 86.3355 177.168C88.4475 177.168 90.0795 176.808 91.2315 176.088C92.3835 175.368 92.9595 174.408 92.9595 173.208C92.9595 172.104 92.5275 171.216 91.6635 170.544C90.7995 169.872 89.5995 169.536 88.0635 169.536H82.0155V163.992H87.7035C88.9995 163.992 90.0315 163.632 90.7995 162.912C91.6155 162.144 92.0235 161.184 92.0235 160.032C92.0235 157.68 90.1275 156.504 86.3355 156.504C83.3595 156.504 80.4075 157.752 77.4795 160.248L74.0235 155.28C77.0955 151.632 81.7275 149.808 87.9195 149.808C92.0955 149.808 95.2875 150.624 97.4955 152.256C99.7515 153.84 100.88 156.096 100.88 159.024C100.88 160.608 100.352 162.048 99.2955 163.344C98.2395 164.64 96.7755 165.6 94.9035 166.224V166.368C97.0635 166.8 98.7435 167.712 99.9435 169.104C101.144 170.448 101.744 172.08 101.744 174C101.744 177.024 100.4 179.424 97.7115 181.2C95.0715 182.928 91.5195 183.792 87.0555 183.792ZM112.088 158.952L110 152.904C113.504 150.84 117.32 149.808 121.448 149.808C125.96 149.808 129.248 150.912 131.312 153.12C133.376 155.328 134.408 158.712 134.408 163.272V183H127.208V179.256C125.288 182.04 122.096 183.432 117.632 183.432C114.56 183.432 112.088 182.544 110.216 180.768C108.392 178.944 107.48 176.52 107.48 173.496C107.48 170.136 108.56 167.544 110.72 165.72C112.88 163.896 115.736 162.984 119.288 162.984C122.216 162.984 124.664 163.68 126.632 165.072C126.728 162.192 126.296 160.08 125.336 158.736C124.424 157.392 122.84 156.72 120.584 156.72C118.088 156.72 115.256 157.464 112.088 158.952ZM120.368 176.448C123.152 176.448 125.24 175.464 126.632 173.496V170.184C125.288 169.128 123.392 168.6 120.944 168.6C119.408 168.6 118.16 168.96 117.2 169.68C116.24 170.4 115.76 171.384 115.76 172.632C115.76 173.784 116.192 174.72 117.056 175.44C117.92 176.112 119.024 176.448 120.368 176.448ZM158.737 150.6H169.321V183H161.041V173.28H156.433L149.737 183H140.233L148.873 171.48C147.097 170.856 145.609 169.728 144.409 168.096C143.209 166.416 142.609 164.424 142.609 162.12C142.609 158.568 143.953 155.76 146.641 153.696C149.377 151.632 153.409 150.6 158.737 150.6ZM151.465 162.696C151.465 163.944 151.993 165 153.049 165.864C154.105 166.728 155.329 167.16 156.721 167.16H161.041V157.8H157.369C155.545 157.8 154.105 158.28 153.049 159.24C151.993 160.152 151.465 161.304 151.465 162.696ZM178.545 183V150.6C178.977 150.6 180.801 150.552 184.017 150.456C187.281 150.312 189.705 150.24 191.289 150.24C201.081 150.24 205.977 153.072 205.977 158.736C205.977 160.56 205.401 162.168 204.249 163.56C203.097 164.904 201.657 165.696 199.929 165.936V166.08C204.537 167.184 206.841 169.68 206.841 173.568C206.841 180.096 201.705 183.36 191.433 183.36C189.945 183.36 187.665 183.288 184.593 183.144C183.825 183.144 182.937 183.12 181.929 183.072C180.969 183.072 180.225 183.048 179.697 183C179.217 183 178.833 183 178.545 183ZM192.009 169.248H186.825V176.448C189.705 176.64 191.529 176.736 192.297 176.736C194.121 176.736 195.537 176.4 196.545 175.728C197.601 175.056 198.129 174.144 198.129 172.992C198.129 170.496 196.089 169.248 192.009 169.248ZM192.009 156.936C190.089 156.936 188.361 156.984 186.825 157.08V164.208H192.225C193.713 164.208 194.913 163.872 195.825 163.2C196.737 162.528 197.193 161.616 197.193 160.464C197.193 158.112 195.465 156.936 192.009 156.936ZM234.918 150.6H245.358L232.902 166.008L246.87 183H236.07L223.254 166.656L234.918 150.6ZM222.966 183H214.686V150.6H222.966V183ZM273.205 150.6H282.637L269.893 183C267.589 188.616 265.525 192.408 263.701 194.376C261.925 196.392 259.813 197.4 257.365 197.4C255.061 197.4 252.733 196.56 250.381 194.88L253.045 188.616C254.293 189.384 255.421 189.768 256.429 189.768C258.397 189.768 260.053 188.088 261.397 184.728L262.117 183L247.141 150.6H257.077L264.637 168.312C264.733 168.552 265.261 170.112 266.221 172.992C266.509 171.216 266.893 169.632 267.373 168.24L273.205 150.6Z" fill="#0E263E"></path> <path d="M80.3995 236H79.3595V227.98H73.6195V236H72.5795V227H80.3995V236ZM84.5961 240H83.5561V227H84.5961V228.2C84.9561 227.8 85.4361 227.473 86.0361 227.22C86.6494 226.953 87.2694 226.82 87.8961 226.82C89.1761 226.82 90.1961 227.24 90.9561 228.08C91.7161 228.92 92.0961 230.013 92.0961 231.36C92.0961 232.76 91.6694 233.913 90.8161 234.82C89.9494 235.726 88.8361 236.18 87.4761 236.18C86.2627 236.18 85.3027 235.926 84.5961 235.42V240ZM87.6161 227.8C87.0294 227.8 86.4561 227.933 85.8961 228.2C85.3494 228.466 84.9161 228.8 84.5961 229.2V234.38C85.4227 234.926 86.3561 235.2 87.3961 235.2C88.4627 235.2 89.3294 234.846 89.9961 234.14C90.6627 233.433 90.9961 232.526 90.9961 231.42C90.9961 230.313 90.6961 229.433 90.0961 228.78C89.4961 228.126 88.6694 227.8 87.6161 227.8ZM101.67 228.5L95.6703 236H94.6303V227H95.6703V234.5L101.67 227H102.71V236H101.67V228.5ZM113.781 236H112.741V231.92H106.901V236H105.861V227H106.901V230.94H112.741V227H113.781V236ZM120.635 227H123.315V236H122.275V232.64H120.035L117.455 236H116.175L119.015 232.4C118.415 232.306 117.902 232.026 117.475 231.56C117.062 231.08 116.855 230.506 116.855 229.84C116.855 228.973 117.168 228.286 117.795 227.78C118.422 227.26 119.368 227 120.635 227ZM117.955 229.86C117.955 230.393 118.162 230.826 118.575 231.16C118.988 231.493 119.428 231.66 119.895 231.66H122.275V227.98H120.455C119.628 227.98 119.002 228.153 118.575 228.5C118.162 228.833 117.955 229.286 117.955 229.86ZM133.846 236H132.806V228.04H129.006L128.886 230C128.713 232.533 128.293 234.213 127.626 235.04C127.093 235.733 126.433 236.08 125.646 236.08L125.566 235.06C125.913 235.06 126.24 234.9 126.546 234.58C127.28 233.9 127.726 232.306 127.886 229.8L128.026 227H133.846V236ZM137.293 228.5L137.013 227.64C137.906 227.093 138.86 226.82 139.873 226.82C141.046 226.82 141.893 227.113 142.413 227.7C142.946 228.286 143.213 229.193 143.213 230.42V236H142.173V234.62C141.44 235.62 140.413 236.12 139.093 236.12C138.253 236.12 137.58 235.88 137.073 235.4C136.566 234.906 136.313 234.253 136.313 233.44C136.313 232.56 136.633 231.873 137.273 231.38C137.9 230.886 138.72 230.64 139.733 230.64C140.746 230.64 141.56 230.866 142.173 231.32C142.173 230.386 142.106 229.673 141.973 229.18C141.866 228.7 141.646 228.36 141.313 228.16C140.993 227.96 140.493 227.84 139.813 227.8C139 227.8 138.16 228.033 137.293 228.5ZM139.413 235.14C140.533 235.14 141.453 234.666 142.173 233.72V232.22C141.52 231.74 140.74 231.5 139.833 231.5C139.153 231.5 138.58 231.666 138.113 232C137.646 232.333 137.413 232.793 137.413 233.38C137.413 233.913 137.6 234.34 137.973 234.66C138.346 234.98 138.826 235.14 139.413 235.14ZM156.647 236H155.607V227H161.027V227.98H156.647V236ZM166.425 236.18C165.038 236.18 163.905 235.74 163.025 234.86C162.145 233.98 161.705 232.86 161.705 231.5C161.705 230.14 162.145 229.02 163.025 228.14C163.905 227.26 165.038 226.82 166.425 226.82C167.812 226.82 168.945 227.26 169.825 228.14C170.705 229.02 171.145 230.14 171.145 231.5C171.145 232.86 170.705 233.98 169.825 234.86C168.945 235.74 167.812 236.18 166.425 236.18ZM166.425 235.2C167.505 235.2 168.372 234.86 169.025 234.18C169.705 233.486 170.045 232.593 170.045 231.5C170.045 230.42 169.705 229.533 169.025 228.84C168.345 228.146 167.478 227.8 166.425 227.8C165.385 227.8 164.518 228.146 163.825 228.84C163.145 229.533 162.805 230.42 162.805 231.5C162.805 232.58 163.145 233.466 163.825 234.16C164.505 234.853 165.372 235.2 166.425 235.2ZM174.733 240H173.693V227H174.733V228.2C175.093 227.8 175.573 227.473 176.173 227.22C176.786 226.953 177.406 226.82 178.033 226.82C179.313 226.82 180.333 227.24 181.093 228.08C181.853 228.92 182.233 230.013 182.233 231.36C182.233 232.76 181.806 233.913 180.953 234.82C180.086 235.726 178.973 236.18 177.613 236.18C176.399 236.18 175.439 235.926 174.733 235.42V240ZM177.753 227.8C177.166 227.8 176.593 227.933 176.033 228.2C175.486 228.466 175.053 228.8 174.733 229.2V234.38C175.559 234.926 176.493 235.2 177.533 235.2C178.599 235.2 179.466 234.846 180.133 234.14C180.799 233.433 181.133 232.526 181.133 231.42C181.133 230.313 180.833 229.433 180.233 228.78C179.633 228.126 178.806 227.8 177.753 227.8ZM188.076 227H190.756V236H189.716V232.64H187.476L184.896 236H183.616L186.456 232.4C185.856 232.306 185.343 232.026 184.916 231.56C184.503 231.08 184.296 230.506 184.296 229.84C184.296 228.973 184.61 228.286 185.236 227.78C185.863 227.26 186.81 227 188.076 227ZM185.396 229.86C185.396 230.393 185.603 230.826 186.016 231.16C186.43 231.493 186.87 231.66 187.336 231.66H189.716V227.98H187.896C187.07 227.98 186.443 228.153 186.016 228.5C185.603 228.833 185.396 229.286 185.396 229.86ZM199.208 227H200.248V236H199.208V232.2C198.461 232.706 197.561 232.96 196.508 232.96C194.401 232.96 193.348 231.833 193.348 229.58V227H194.448V229.5C194.448 231.153 195.228 231.98 196.788 231.98C197.734 231.98 198.541 231.74 199.208 231.26V227ZM203.68 228.5L203.4 227.64C204.293 227.093 205.246 226.82 206.26 226.82C207.433 226.82 208.28 227.113 208.8 227.7C209.333 228.286 209.6 229.193 209.6 230.42V236H208.56V234.62C207.826 235.62 206.8 236.12 205.48 236.12C204.64 236.12 203.966 235.88 203.46 235.4C202.953 234.906 202.7 234.253 202.7 233.44C202.7 232.56 203.02 231.873 203.66 231.38C204.286 230.886 205.106 230.64 206.12 230.64C207.133 230.64 207.946 230.866 208.56 231.32C208.56 230.386 208.493 229.673 208.36 229.18C208.253 228.7 208.033 228.36 207.7 228.16C207.38 227.96 206.88 227.84 206.2 227.8C205.386 227.8 204.546 228.033 203.68 228.5ZM205.8 235.14C206.92 235.14 207.84 234.666 208.56 233.72V232.22C207.906 231.74 207.126 231.5 206.22 231.5C205.54 231.5 204.966 231.666 204.5 232C204.033 232.333 203.8 232.793 203.8 233.38C203.8 233.913 203.986 234.34 204.36 234.66C204.733 234.98 205.213 235.14 205.8 235.14ZM216.28 227H218.96V236H217.92V232.64H215.68L213.1 236H211.82L214.66 232.4C214.06 232.306 213.546 232.026 213.12 231.56C212.706 231.08 212.5 230.506 212.5 229.84C212.5 228.973 212.813 228.286 213.44 227.78C214.066 227.26 215.013 227 216.28 227ZM213.6 229.86C213.6 230.393 213.806 230.826 214.22 231.16C214.633 231.493 215.073 231.66 215.54 231.66H217.92V227.98H216.1C215.273 227.98 214.646 228.153 214.22 228.5C213.806 228.833 213.6 229.286 213.6 229.86ZM234.198 236H233.158V228.04H229.358L229.238 230C229.064 232.533 228.644 234.213 227.978 235.04C227.444 235.733 226.784 236.08 225.998 236.08L225.918 235.06C226.264 235.06 226.591 234.9 226.898 234.58C227.631 233.9 228.078 232.306 228.238 229.8L228.378 227H234.198V236ZM244.405 228.5L238.405 236H237.365V227H238.405V234.5L244.405 227H245.445V236H244.405V228.5ZM256.515 236H255.475V231.92H249.635V236H248.595V227H249.635V230.94H255.475V227H256.515V236ZM266.709 228.5L260.709 236H259.669V227H260.709V234.5L266.709 227H267.749V236H266.709V228.5ZM274.6 227H277.28V236H276.24V232.64H274L271.42 236H270.14L272.98 232.4C272.38 232.306 271.866 232.026 271.44 231.56C271.026 231.08 270.82 230.506 270.82 229.84C270.82 228.973 271.133 228.286 271.76 227.78C272.386 227.26 273.333 227 274.6 227ZM271.92 229.86C271.92 230.393 272.126 230.826 272.54 231.16C272.953 231.493 273.393 231.66 273.86 231.66H276.24V227.98H274.42C273.593 227.98 272.966 228.153 272.54 228.5C272.126 228.833 271.92 229.286 271.92 229.86ZM80.3995 262H79.3595V253.98H73.6195V262H72.5795V253H80.3995V262ZM84.5961 266H83.5561V253H84.5961V254.2C84.9561 253.8 85.4361 253.473 86.0361 253.22C86.6494 252.953 87.2694 252.82 87.8961 252.82C89.1761 252.82 90.1961 253.24 90.9561 254.08C91.7161 254.92 92.0961 256.013 92.0961 257.36C92.0961 258.76 91.6694 259.913 90.8161 260.82C89.9494 261.726 88.8361 262.18 87.4761 262.18C86.2627 262.18 85.3027 261.926 84.5961 261.42V266ZM87.6161 253.8C87.0294 253.8 86.4561 253.933 85.8961 254.2C85.3494 254.466 84.9161 254.8 84.5961 255.2V260.38C85.4227 260.926 86.3561 261.2 87.3961 261.2C88.4627 261.2 89.3294 260.846 89.9961 260.14C90.6627 259.433 90.9961 258.526 90.9961 257.42C90.9961 256.313 90.6961 255.433 90.0961 254.78C89.4961 254.126 88.6694 253.8 87.6161 253.8ZM98.7103 262.18C97.3236 262.18 96.1903 261.74 95.3103 260.86C94.4303 259.98 93.9903 258.86 93.9903 257.5C93.9903 256.14 94.4303 255.02 95.3103 254.14C96.1903 253.26 97.3236 252.82 98.7103 252.82C100.097 252.82 101.23 253.26 102.11 254.14C102.99 255.02 103.43 256.14 103.43 257.5C103.43 258.86 102.99 259.98 102.11 260.86C101.23 261.74 100.097 262.18 98.7103 262.18ZM98.7103 261.2C99.7903 261.2 100.657 260.86 101.31 260.18C101.99 259.486 102.33 258.593 102.33 257.5C102.33 256.42 101.99 255.533 101.31 254.84C100.63 254.146 99.7636 253.8 98.7103 253.8C97.6703 253.8 96.8036 254.146 96.1103 254.84C95.4303 255.533 95.0903 256.42 95.0903 257.5C95.0903 258.58 95.4303 259.466 96.1103 260.16C96.7903 260.853 97.657 261.2 98.7103 261.2ZM113.098 260.1L113.438 260.9C112.625 261.753 111.518 262.18 110.118 262.18C108.678 262.18 107.525 261.753 106.658 260.9C105.778 260.046 105.338 258.913 105.338 257.5C105.338 256.14 105.738 255.02 106.538 254.14C107.351 253.26 108.471 252.82 109.898 252.82C111.058 252.82 112.031 253.193 112.818 253.94C113.591 254.673 113.978 255.653 113.978 256.88C113.978 257.2 113.958 257.48 113.918 257.72H106.498C106.538 258.8 106.891 259.653 107.558 260.28C108.225 260.893 109.098 261.2 110.178 261.2C111.431 261.2 112.405 260.833 113.098 260.1ZM109.798 253.8C108.838 253.8 108.058 254.08 107.458 254.64C106.871 255.2 106.531 255.94 106.438 256.86H112.918C112.905 255.913 112.618 255.166 112.058 254.62C111.498 254.073 110.745 253.8 109.798 253.8ZM122.466 253H123.806L119.366 257.3L124.166 262H122.766L118.106 257.36L122.466 253ZM117.506 262H116.466V253H117.506V262ZM128.414 254.04H124.834V253H133.034V254.04H129.454V262H128.414V254.04ZM135.145 254.5L134.865 253.64C135.758 253.093 136.711 252.82 137.725 252.82C138.898 252.82 139.745 253.113 140.265 253.7C140.798 254.286 141.065 255.193 141.065 256.42V262H140.025V260.62C139.291 261.62 138.265 262.12 136.945 262.12C136.105 262.12 135.431 261.88 134.925 261.4C134.418 260.906 134.165 260.253 134.165 259.44C134.165 258.56 134.485 257.873 135.125 257.38C135.751 256.886 136.571 256.64 137.585 256.64C138.598 256.64 139.411 256.866 140.025 257.32C140.025 256.386 139.958 255.673 139.825 255.18C139.718 254.7 139.498 254.36 139.165 254.16C138.845 253.96 138.345 253.84 137.665 253.8C136.851 253.8 136.011 254.033 135.145 254.5ZM137.265 261.14C138.385 261.14 139.305 260.666 140.025 259.72V258.22C139.371 257.74 138.591 257.5 137.685 257.5C137.005 257.5 136.431 257.666 135.965 258C135.498 258.333 135.265 258.793 135.265 259.38C135.265 259.913 135.451 260.34 135.825 260.66C136.198 260.98 136.678 261.14 137.265 261.14ZM155.951 260.62L155.271 261.26L151.671 257.04V256.96L155.311 252.78L155.991 253.38L152.871 257L155.951 260.62ZM152.471 260.62L151.791 261.26L148.191 257.04V256.96L151.831 252.78L152.511 253.38L149.391 257L152.471 260.62ZM167.849 248H169.189L162.569 254.62L169.469 262H168.049L161.269 254.7L167.849 248ZM160.609 262H159.509V248H160.609V262ZM174.785 262.18C173.398 262.18 172.265 261.74 171.385 260.86C170.505 259.98 170.065 258.86 170.065 257.5C170.065 256.14 170.505 255.02 171.385 254.14C172.265 253.26 173.398 252.82 174.785 252.82C176.171 252.82 177.305 253.26 178.185 254.14C179.065 255.02 179.505 256.14 179.505 257.5C179.505 258.86 179.065 259.98 178.185 260.86C177.305 261.74 176.171 262.18 174.785 262.18ZM174.785 261.2C175.865 261.2 176.731 260.86 177.385 260.18C178.065 259.486 178.405 258.593 178.405 257.5C178.405 256.42 178.065 255.533 177.385 254.84C176.705 254.146 175.838 253.8 174.785 253.8C173.745 253.8 172.878 254.146 172.185 254.84C171.505 255.533 171.165 256.42 171.165 257.5C171.165 258.58 171.505 259.466 172.185 260.16C172.865 260.853 173.731 261.2 174.785 261.2ZM183.961 254.04H180.381V253H188.581V254.04H185.001V262H183.961V254.04ZM194.179 262.18C192.792 262.18 191.659 261.74 190.779 260.86C189.899 259.98 189.459 258.86 189.459 257.5C189.459 256.14 189.899 255.02 190.779 254.14C191.659 253.26 192.792 252.82 194.179 252.82C195.566 252.82 196.699 253.26 197.579 254.14C198.459 255.02 198.899 256.14 198.899 257.5C198.899 258.86 198.459 259.98 197.579 260.86C196.699 261.74 195.566 262.18 194.179 262.18ZM194.179 261.2C195.259 261.2 196.126 260.86 196.779 260.18C197.459 259.486 197.799 258.593 197.799 257.5C197.799 256.42 197.459 255.533 196.779 254.84C196.099 254.146 195.232 253.8 194.179 253.8C193.139 253.8 192.272 254.146 191.579 254.84C190.899 255.533 190.559 256.42 190.559 257.5C190.559 258.58 190.899 259.466 191.579 260.16C192.259 260.853 193.126 261.2 194.179 261.2ZM208.447 259.96L208.967 260.72C208.607 261.186 208.12 261.546 207.507 261.8C206.907 262.053 206.26 262.18 205.567 262.18C204.167 262.18 203.02 261.753 202.127 260.9C201.247 260.046 200.807 258.913 200.807 257.5C200.807 256.18 201.233 255.073 202.087 254.18C202.953 253.273 204.02 252.82 205.287 252.82C206.833 252.82 208 253.193 208.787 253.94L208.287 254.78C207.58 254.126 206.633 253.8 205.447 253.8C204.487 253.8 203.653 254.153 202.947 254.86C202.253 255.553 201.907 256.433 201.907 257.5C201.907 258.62 202.26 259.52 202.967 260.2C203.673 260.866 204.567 261.2 205.647 261.2C206.807 261.2 207.74 260.786 208.447 259.96ZM219.071 262H218.031V253.98H212.291V262H211.251V253H219.071V262ZM222.508 254.5L222.228 253.64C223.121 253.093 224.075 252.82 225.088 252.82C226.261 252.82 227.108 253.113 227.628 253.7C228.161 254.286 228.428 255.193 228.428 256.42V262H227.388V260.62C226.655 261.62 225.628 262.12 224.308 262.12C223.468 262.12 222.795 261.88 222.288 261.4C221.781 260.906 221.528 260.253 221.528 259.44C221.528 258.56 221.848 257.873 222.488 257.38C223.115 256.886 223.935 256.64 224.948 256.64C225.961 256.64 226.775 256.866 227.388 257.32C227.388 256.386 227.321 255.673 227.188 255.18C227.081 254.7 226.861 254.36 226.528 254.16C226.208 253.96 225.708 253.84 225.028 253.8C224.215 253.8 223.375 254.033 222.508 254.5ZM224.628 261.14C225.748 261.14 226.668 260.666 227.388 259.72V258.22C226.735 257.74 225.955 257.5 225.048 257.5C224.368 257.5 223.795 257.666 223.328 258C222.861 258.333 222.628 258.793 222.628 259.38C222.628 259.913 222.815 260.34 223.188 260.66C223.561 260.98 224.041 261.14 224.628 261.14ZM238.408 259.96L238.928 260.72C238.568 261.186 238.081 261.546 237.468 261.8C236.868 262.053 236.221 262.18 235.528 262.18C234.128 262.18 232.981 261.753 232.088 260.9C231.208 260.046 230.768 258.913 230.768 257.5C230.768 256.18 231.194 255.073 232.048 254.18C232.914 253.273 233.981 252.82 235.248 252.82C236.794 252.82 237.961 253.193 238.748 253.94L238.248 254.78C237.541 254.126 236.594 253.8 235.408 253.8C234.448 253.8 233.614 254.153 232.908 254.86C232.214 255.553 231.868 256.433 231.868 257.5C231.868 258.62 232.221 259.52 232.928 260.2C233.634 260.866 234.528 261.2 235.608 261.2C236.768 261.2 237.701 260.786 238.408 259.96ZM248.732 256.96V257.04L245.132 261.26L244.432 260.62L247.532 257L244.412 253.38L245.092 252.78L248.732 256.96ZM245.252 256.96V257.04L241.652 261.26L240.952 260.62L244.052 257L240.932 253.38L241.612 252.78L245.252 256.96Z" fill="black"></path> </svg> 