<?xml version="1.0" encoding="UTF-8"?> <svg xmlns="http://www.w3.org/2000/svg" width="488" height="462" viewBox="0 0 488 462" fill="none"> <path d="M241.348 66.1062C235.329 83.0872 233.771 107.106 226.575 113.831L262.811 144.618C261.934 139.045 274.897 132.93 279.164 132.539C294.39 150.572 301.247 139.392 301.609 138.524C301.971 137.655 302.551 133.819 305.681 132.143C308.81 130.468 307.597 126.982 306.829 127.132C306.06 127.282 299.061 124.129 299.936 123.161C300.635 122.386 301.764 122.537 302.241 122.71C308.825 124.827 312.765 123.49 313.912 122.556C313.312 119.482 315.481 118.792 316.642 118.831C321.715 119.754 322.554 116.878 322.339 115.324C319.137 107.653 318.735 100.516 318.934 97.9062C326.018 88.4371 328.649 79.1815 329.91 75.6551C331.938 68.3443 333.383 49.34 308.391 33.5883C277.151 13.8988 248.783 45.1339 241.348 66.1062Z" fill="#E49E79"></path> <path d="M304.329 121.651C302.649 121.767 300.143 122.913 299.1 123.471C302.601 130.499 306.131 130.873 307.468 129.548C308.805 128.223 306.867 126.474 306.667 125.449C306.507 124.63 302.509 124.134 300.531 123.989C300.737 123.683 302.159 123.175 303.605 123.388C308.26 124.074 311.846 123.373 312.358 123.273C312.87 123.173 312.62 121.892 311.395 121.068C310.17 120.244 306.428 121.507 304.329 121.651Z" fill="#933420"></path> <path d="M304.069 97.1942C306.764 99.0077 309.658 99.0272 310.768 98.8102L312.549 101.121C311.422 101.253 308.78 101.433 307.226 101.098C305.671 100.764 304.474 98.3562 304.069 97.1942Z" fill="#0E263E"></path> <path d="M331.32 69.2622C330.432 85.1262 311.417 94.7778 279.357 87.2158C273.276 84.6811 261.644 85.306 263.756 108.083C263.778 110.915 262.102 116.491 255.224 116.133C246.626 115.686 269.501 117.066 267.111 125.245C265.198 131.789 265.417 137.898 265.766 140.134C263.055 147.579 265.126 164.885 295.099 174.557C332.566 186.647 287.564 212.198 293.058 219.9C273.055 213.704 231.788 189.432 226.754 141.909C220.404 134.818 205.482 122.877 196.598 131.847C185.493 143.06 177.819 83.3943 203.014 92.5643C223.17 99.9002 233.413 82.1014 236.016 72.285C242.553 40.4248 265.673 23.2049 292.3 26.0959C320.224 31.541 332.675 45.0631 331.32 69.2622Z" fill="#0E263E"></path> <path d="M423.361 302.051C419.267 301.788 408.716 295.606 403.952 292.548C403.638 305.906 398.765 308.188 394.154 309.09C396.408 308.649 406.83 317.25 412.733 321.149C432.664 340.123 436.044 339.728 441.312 340.826C445.526 341.705 453.979 343.049 457.576 343.764L462.811 340.613L477.774 336.891C478.44 336.672 479.59 335.844 478.86 334.285C478.13 332.726 474.877 332.049 473.342 331.906L476.172 328.694C475.576 328.367 473.812 327.506 471.522 326.677C469.233 325.848 468.036 327.89 467.724 329.015L464.077 332.122C458.666 332.559 447.091 330.123 444.278 317.908C448.551 320.264 459.076 326.131 462.925 326.23C467.736 326.354 468.298 326.51 469.34 322.317C469.39 320.392 463.066 317.427 459.898 316.184C437.031 301.241 428.478 302.381 423.361 302.051Z" fill="#E49E79"></path> <path d="M281.181 356.968C279.67 356.02 266.564 347.946 259.84 344.385L241.636 351.932C242.87 354.617 246.839 360.862 252.843 364.368C260.348 368.752 265.292 373.636 268.137 378.665C270.981 383.694 273.225 385.649 274.249 385.448C275.069 385.288 276.336 384.331 276.867 383.873C277.03 381.536 276.859 376.215 274.864 373.627C272.869 371.038 268.907 366.281 267.176 364.226C268.794 364.796 272.654 366.4 275.143 368.254C277.633 370.107 278.872 370.096 279.18 369.858C279.512 372.009 280.369 376.487 281.144 377.186C281.919 377.886 280.115 382.352 279.116 384.497L275 389.291C274.33 390.397 273.296 392.815 274.521 393.639C275.746 394.464 276.04 397.331 276.034 398.662L277.777 398.056C279.983 397.093 289.624 381.113 290.248 378.864C290.872 376.614 286.031 360.009 281.181 356.968Z" fill="#E49E79"></path> <path d="M136.328 414.535C137.362 412.205 135.324 406.221 134.175 403.52C147.661 409.926 176.845 424.539 194.097 431.167C211.348 437.794 229.025 430.722 234.657 426.43L245.801 418.135C249.641 417.827 259.363 416.229 267.529 412.292C277.737 407.372 278.719 393.351 275.035 381.306C272.088 371.67 240.016 351.806 227.094 341.478C216.058 348.511 189.805 358.873 174.059 354.504C158.313 350.136 139.755 379.914 132.323 394.043L124.954 405.323C123.002 403.045 116.766 395.541 107.44 383.748C98.1142 371.955 76.6854 358.379 67.1367 353.065C72.5594 357.678 84.0056 369.979 86.4089 382.274C88.8122 394.569 85.4902 412.948 83.5287 420.6C82.94 422.577 83.7724 428.105 91.8119 434.406C99.8514 440.706 117.758 435.628 125.706 432.301C126.121 431.245 127.491 429.187 129.66 429.401C132.372 429.669 138.431 425.293 139.362 423.25C140.292 421.206 135.036 417.447 136.328 414.535Z" fill="#CB845E"></path> <path d="M120.267 400.388C116.678 405.611 111.552 417.569 119.756 423.625C130.011 431.194 127.305 429.595 126.275 431.126" stroke="#94634A" stroke-width="0.5"></path> <path d="M114.806 420.071C114.154 420.819 111.354 422.82 105.367 424.842C99.3794 426.863 96.2595 431.763 95.448 433.961" stroke="#94634A" stroke-width="0.5"></path> <path d="M135.41 413.916C133.704 413.806 129.472 414.013 126.188 415.719C122.905 417.424 118.843 417.597 117.223 417.471" stroke="#94634A" stroke-width="0.5"></path> <path d="M197.829 361.825C214.243 365.531 240.967 387.965 244.863 398.373C249.347 410.353 247.455 414.354 243.183 419.71" stroke="#94634A" stroke-width="0.5"></path> <path d="M165.547 158.576C159.042 166.656 139.125 215.687 129.979 239.193C129.146 238.558 127.006 237.86 125.112 240.144C122.745 243 123.62 242.032 117.728 243.184C111.837 244.335 113.612 247.977 109.34 253.333C105.069 258.689 104.217 254.334 96.2825 254.556C88.3476 254.777 91.2923 260.318 89.6262 266.76C87.9601 273.202 74.4552 283.022 63.6831 300.021C52.9109 317.019 57.2052 341.709 55.9607 357.111C54.7162 372.513 57.351 366.945 60.6461 374.279C63.9412 381.613 62.6887 410.579 66.1536 402.455C68.9256 395.957 67.9642 366.82 67.137 353.065L103.315 378.969L125.973 406.453C134.121 388.727 154.795 353.908 172.31 356.441C194.204 359.608 191.096 368.194 208.61 354.399L227.656 341.634C218.8 338.047 206.078 322.396 204.236 312.97C202.393 303.544 199.001 292.541 199.329 287.867C200.343 293.963 206.44 316.9 214.68 324.225C224.979 333.381 227.664 328.07 229.367 336.779C230.729 343.746 240.557 349.13 241.124 352.033L259.841 344.385L253.335 321.988C253.785 320.659 254.493 317.028 253.732 313.135C252.971 309.241 247.899 308.69 245.459 308.901L242.104 291.739L246.723 277.274C246.069 270.753 245.071 256.853 246.315 253.419C247.558 249.985 247.908 240.254 247.927 235.818C256.811 244.985 277.407 264.734 288.726 270.393C302.873 277.468 339.337 296.668 355.796 301.961C368.963 306.195 382.403 312.007 387.477 314.384C388.764 312.803 391.9 309.53 394.154 309.09C403.371 308.352 404.526 297.754 403.952 292.548L397.878 288.683L374.923 270.565C374.036 270.561 371.802 270.111 369.967 268.342C367.674 266.131 352.057 255.621 351.394 254.953C350.864 254.418 338.475 247.815 332.347 244.581C330.424 243.361 324.416 239.11 315.767 231.865C307.117 224.621 303.139 224.405 302.231 225.203C301.437 223.408 298.173 219.135 291.469 216.404C277.459 209.125 242.83 190.956 234.709 168.194C223.534 136.87 217.783 129.219 203.25 128.336C191.624 127.63 172.671 148.762 165.547 158.576Z" fill="#EAEAEA"></path> <path d="M107.588 361.38C115.007 350.356 138.615 331.541 173.693 344.47C178.285 339.849 188.43 328.984 192.267 322.49C197.063 314.372 201.134 307.992 200.333 303.893" stroke="#C4C4C4" stroke-width="0.5"></path> <path d="M201.884 288.697C206.157 291.054 216.592 291.833 224.154 276.1C231.717 260.368 242.263 243.574 246.59 237.143" stroke="#C4C4C4" stroke-width="0.5"></path> <path d="M106.799 256.705C97.8278 256.799 86.9725 258.824 115.319 266.17" stroke="#C4C4C4"></path> <path d="M247.064 234.125C199.391 207.914 181.656 181.135 176.799 168.078L177.45 171.408C200.54 209.711 227.935 226.961 247.064 234.125Z" fill="#C4C4C4"></path> <path d="M199.93 290.941C145.262 296.131 126.58 259.02 124.073 239.816L129.623 238.731C140.049 279.123 179.797 289.472 199.412 288.294L199.93 290.941Z" fill="#C4C4C4"></path> </svg> 