<?xml version="1.0" encoding="UTF-8"?> <svg xmlns="http://www.w3.org/2000/svg" width="2686" height="1998" viewBox="0 0 2686 1998" fill="none"> <path d="M428.126 1210.6C384.07 1212.02 356.475 1165 348.185 1141.32L0 1187.5L182.975 1455.75L2115.76 1116.45L1900.81 960.119L907.769 1130.66C766.244 1156.71 472.182 1209.18 428.126 1210.6Z" fill="#979797"></path> <path d="M1911.47 1690.24V1587.21L1584.6 1667.15L1577.49 1869.66H1611.24L1614.8 1716.89L1769.35 1690.24L1776.46 1697.35L1911.47 1690.24Z" fill="#979797"></path> <path d="M1662.76 1859L1611.24 1871.44V1715.11L1783.56 1944.27V1997.57L1662.76 1859Z" fill="#C4C4C4"></path> <path d="M2055.36 1690.24V1654.71L1954.1 1665.37V1681.36H1932.78L1923.9 1665.37L1904.36 1676.03L1772.9 1695.57L1792.44 1723.99H1904.36L2023.38 1899.86L2046.48 1896.31V1857.23H2019.83V1832.36L2055.36 1825.25V1789.72L2023.38 1796.83L2026.94 1766.63L2055.36 1761.3V1723.99L2026.94 1731.1V1695.57L2055.36 1690.24Z" fill="#C4C4C4"></path> <path d="M2021.6 1894.53L1783.56 1944.27L1613.02 1716.89L1767.57 1688.47L1792.44 1725.77L1899.03 1716.89L2021.6 1894.53Z" fill="#0E263E"></path> <path d="M1478.01 1530.36L1467.35 1835.91L1588.15 1974.47V1690.24L1478.01 1530.36Z" fill="#C4C4C4"></path> <path d="M993.038 1793.28L815.393 1510.82L907.768 1455.75L1080.08 1722.22L993.038 1793.28Z" fill="#0E263E"></path> <path d="M1796 1473.51L1479.79 1530.36L1591.7 1692.02L1909.69 1629.84L1796 1473.51Z" fill="#0E263E"></path> <path d="M605.77 1539.24V1398.9L726.568 1573L717.686 1711.56L605.77 1539.24Z" fill="#C4C4C4"></path> <path d="M1453.14 1057.82L1172.46 1102.24L1151.14 1874.99L1426.49 1834.13L1453.14 1057.82Z" fill="#C4C4C4"></path> <path d="M733.676 1718.67L717.688 1715.11L724.793 1573L795.852 1533.91L863.357 1565.89L856.251 1679.58V1690.24L813.616 1628.07L740.781 1663.6L733.676 1718.67Z" fill="#979797"></path> <path d="M655.514 1370.48L704.187 1393.62L712.36 1386.47L721.134 1401.68L763.877 1422L865.135 1567.67L794.077 1535.69L728.348 1441.54L739.007 1432.66L721.134 1401.68L704.187 1393.62L683.937 1411.34L655.514 1370.48Z" fill="#203D5A"></path> <path d="M721.24 1329.62L728.346 1390.02L776.31 1409.56L721.24 1329.62Z" fill="#C4C4C4"></path> <path d="M1945.22 1512.6L1831.53 1521.48L1904.36 1622.74V1674.25L1922.12 1668.92L1936.34 1681.36H1952.32V1668.92L2053.58 1654.71L1945.22 1512.6Z" fill="#203D5A"></path> <path d="M1438.93 1931.84V1859.01L1522.42 1864.33V1931.84H1438.93Z" fill="#C4C4C4"></path> <path d="M1403.4 1889.2V1809.26L1438.93 1853.68V1930.06L1403.4 1889.2Z" fill="#0E263E"></path> <path d="M1485.12 1818.15L1403.4 1811.04C1414.06 1826.44 1437.51 1856.52 1438.93 1860.78C1440.35 1865.05 1502.29 1859.01 1524.2 1864.33L1485.12 1818.15Z" fill="#203D5A"></path> <path d="M817.17 1471.74L719.465 1324.29L790.523 1279.88L879.346 1418.44L817.17 1471.74Z" fill="#0E263E"></path> <path d="M856.252 1304.75L790.523 1279.88L879.346 1418.44L937.969 1430.88L856.252 1304.75Z" fill="#203D5A"></path> <path d="M831.631 1500.16L815.393 1469.96L877.569 1418.44L936.192 1430.88V1466.41L901.888 1460.21L831.631 1500.16Z" fill="#C4C4C4"></path> <path d="M854.475 1700.9L863.357 1565.89L1005.47 1771.96L996.591 1899.86L918.427 1676.03L868.686 1695.57L854.475 1700.9Z" fill="#C4C4C4"></path> <path d="M870.464 1860.78L740.783 1658.27L731.9 1736.43L870.464 1954.93V1860.78Z" fill="#C4C4C4"></path> <path d="M723.016 1574.77L605.77 1398.9L655.51 1370.48L683.934 1409.56L714.133 1386.47L742.557 1432.66L733.674 1439.76L795.85 1535.69L723.016 1574.77Z" fill="#0E263E"></path> <path d="M868.688 1965.59V1866.11L1003.7 1787.95V1928.29L905.993 1878.55V1953.16L868.688 1965.59Z" fill="#979797"></path> <path d="M1183.12 1104.01L1069.43 954.789L1049.88 1606.75L1163.58 1771.96L1183.12 1104.01Z" fill="#979797"></path> <path d="M811.841 1626.29L740.783 1661.82L868.688 1876.77L1005.48 1789.72L923.758 1670.7L863.359 1697.35L811.841 1626.29Z" fill="#0E263E"></path> <path d="M975.274 1471.74L902.439 1459.3L1078.31 1725.77L1165.35 1741.76L975.274 1471.74Z" fill="#203D5A"></path> <path d="M1003.7 1928.29V1771.96L1076.53 1723.99L1165.35 1741.76L1160.03 1903.42L1003.7 1928.29Z" fill="#87898B"></path> <path d="M1025.01 1919.4V1851.9L1112.06 1837.69V1906.97L1025.01 1919.4Z" fill="#C4C4C4"></path> <path d="M904.218 1953.16C904.218 1933.62 909.546 1878.65 904.217 1880.32L994.816 1851.9V1930.06L904.218 1953.16Z" fill="#C4C4C4"></path> <path d="M1207.99 1173.29V1137.76L1309.25 1123.55V1159.08L1207.99 1173.29Z" fill="#BFBAB5"></path> <path d="M1207.99 1233.69V1198.16L1312.8 1183.95V1217.7L1207.99 1233.69Z" fill="#BFBAB5"></path> <path d="M1207.99 1294.09V1258.56L1312.8 1242.58V1278.1L1207.99 1294.09Z" fill="#BFBAB5"></path> <path d="M1207.99 1354.49V1318.96L1311.02 1302.97V1338.5L1207.99 1354.49Z" fill="#BFBAB5"></path> <path d="M1328.79 1276.33V1240.8L1422.94 1230.14V1263.89L1328.79 1276.33Z" fill="#BFBAB5"></path> <path d="M1328.79 1453.97V1418.44L1422.94 1407.79V1441.54L1328.79 1453.97Z" fill="#BFBAB5"></path> <path d="M1328.79 1397.13V1361.6L1422.94 1350.94V1384.69L1328.79 1397.13Z" fill="#BFBAB5"></path> <path d="M1207.99 1411.34V1375.81L1311.02 1359.82V1395.35L1207.99 1411.34Z" fill="#BFBAB5"></path> <path d="M1207.99 1468.18V1432.66L1311.02 1422V1455.75L1207.99 1468.18Z" fill="#BFBAB5"></path> <path d="M1328.79 1626.29V1592.54L1415.83 1581.88V1615.63L1328.79 1626.29Z" fill="#BFBAB5"></path> <path d="M1328.79 1336.73V1301.2L1422.94 1290.54V1324.29L1328.79 1336.73Z" fill="#BFBAB5"></path> <path d="M1332.34 1571.22V1532.14L1421.16 1521.48V1560.56L1332.34 1571.22Z" fill="#BFBAB5"></path> <path d="M1328.79 1514.37V1478.84L1422.94 1468.19V1501.94L1328.79 1514.37Z" fill="#BFBAB5"></path> <path d="M1207.99 1645.83V1610.3L1302.14 1599.64V1633.4L1207.99 1645.83Z" fill="#BFBAB5"></path> <path d="M1207.99 1585.43V1549.9L1302.14 1539.24V1573L1207.99 1585.43Z" fill="#BFBAB5"></path> <path d="M1207.99 1528.58V1493.06L1302.14 1482.4V1516.15L1207.99 1528.58Z" fill="#BFBAB5"></path> <path d="M1321.68 1755.97V1720.44L1415.83 1709.78V1743.54L1321.68 1755.97Z" fill="#BFBAB5"></path> <path d="M1321.68 1699.12V1663.59L1415.83 1652.94V1686.69L1321.68 1699.12Z" fill="#BFBAB5"></path> <path d="M1207.99 1773.74V1738.21L1302.14 1727.55V1761.3L1207.99 1773.74Z" fill="#BFBAB5"></path> <path d="M1321.68 1812.82V1777.29L1415.83 1766.63V1800.38L1321.68 1812.82Z" fill="#BFBAB5"></path> <path d="M1207.99 1830.58V1795.05L1302.14 1784.39V1818.15L1207.99 1830.58Z" fill="#BFBAB5"></path> <path d="M1207.99 1716.89V1681.36L1302.14 1670.7V1704.45L1207.99 1716.89Z" fill="#BFBAB5"></path> <path d="M1328.79 1215.93V1180.4L1422.94 1169.74V1203.49L1328.79 1215.93Z" fill="#BFBAB5"></path> <path d="M1328.79 1155.53V1120L1422.94 1109.34V1143.09L1328.79 1155.53Z" fill="#BFBAB5"></path> <path d="M904.217 1368.7L927.311 734.509L1071.2 924.59L1056.99 1588.98L904.217 1368.7Z" fill="#C4C4C4"></path> <path d="M1261.28 684.768L930.863 734.509L1067.65 919.26V976.107L1296.81 935.248V849.978L1275.5 826.884V802.014L1341.22 793.132L1261.28 684.768Z" fill="#0E263E"></path> <path d="M1341.22 942.354V794.908L1270.17 803.79V828.661L1291.48 846.425V953.012L1341.22 942.354Z" fill="#979797"></path> <path d="M1332.34 928.142L1071.2 969.001L1183.12 1104.01L1454.92 1054.27L1332.34 928.142Z" fill="#203D5A"></path> <path d="M1049.88 1798.61V1773.74L1092.52 1766.63V1793.28L1049.88 1798.61Z" fill="#C4C4C4"></path> </svg> 