<?xml version="1.0" encoding="UTF-8"?> <svg xmlns="http://www.w3.org/2000/svg" width="270" height="535" viewBox="0 0 270 535" fill="none"> <rect x="0.499512" y="3.50635" width="262" height="529" rx="14.5" fill="white" stroke="#EFEFEF"></rect> <mask id="mask0" maskUnits="userSpaceOnUse" x="-1" y="4" width="264" height="531"> <rect x="0.499512" y="4.50623" width="262" height="529" rx="14.5" fill="white" stroke="#EFEFEF"></rect> </mask> <g mask="url(#mask0)"> <circle cx="17.5" cy="449.504" r="6.5" fill="#E38A1E"></circle> <g clip-path="url(#clip0)"> <path d="M174.348 485.307L223.679 469.186C227.084 468.073 230.747 469.931 231.86 473.337L247.982 522.668C249.095 526.073 247.236 529.736 243.83 530.849L194.5 546.97C191.094 548.083 187.431 546.225 186.318 542.819L170.197 493.488C169.084 490.083 170.942 486.42 174.348 485.307Z" fill="#F6F6F6"></path> <path d="M191.476 537.721L219.225 528.653C220.928 528.096 222.759 529.026 223.316 530.728L223.316 530.729C223.872 532.431 222.943 534.263 221.24 534.819L193.491 543.888C191.789 544.444 189.957 543.515 189.401 541.812L189.401 541.812C188.844 540.109 189.773 538.278 191.476 537.721Z" fill="#E4E4E4"></path> <path d="M217.001 527.966L229.455 503.422C230.601 501.163 233.362 500.26 235.621 501.407C237.88 502.553 238.783 505.314 237.636 507.573L225.183 532.118C224.036 534.377 221.276 535.279 219.016 534.133C216.757 532.987 215.855 530.226 217.001 527.966Z" fill="#E4E4E4"></path> <path d="M176.363 491.473L225.693 475.352L237.784 512.35L188.454 528.471L176.363 491.473Z" fill="#0E263E"></path> <path d="M166.166 481.156L215.497 465.035C218.902 463.922 222.565 465.78 223.678 469.186L232.919 497.463C233.454 499.099 233.317 500.879 232.538 502.414L218.365 530.347C217.587 531.881 216.231 533.043 214.595 533.578L186.318 542.819C182.912 543.932 179.249 542.073 178.136 538.668L162.015 489.337C160.902 485.932 162.761 482.269 166.166 481.156Z" fill="#F6F6F6"></path> <path d="M168.182 487.322L217.512 471.201L229.603 508.199L180.272 524.32L168.182 487.322Z" fill="#E48F27"></path> <path d="M227.68 502.315C226.517 502.264 225.377 502.651 224.486 503.401C222.461 499.427 217.597 497.848 213.623 499.874C211.671 500.869 210.207 502.615 209.567 504.711C209.062 504.747 208.564 504.842 208.081 504.995C208.029 505.012 207.984 505.042 207.933 505.061C205.732 501.166 200.791 499.792 196.896 501.993C194.011 503.622 192.41 506.844 192.853 510.128C191.391 510.92 190.21 512.143 189.469 513.631C186.086 509.89 180.379 509.418 176.427 512.554L180.272 524.32L204.757 516.318C204.751 516.267 204.757 516.216 204.75 516.164C205.003 516.018 205.247 515.858 205.481 515.685C205.589 515.795 205.727 515.863 205.841 515.964L229.603 508.199L227.68 502.315Z" fill="#173B60"></path> <path d="M178.972 483.796L178.973 483.795C183.23 482.404 187.808 484.727 189.199 488.984L194.237 504.4C195.628 508.657 193.305 513.235 189.049 514.627L189.047 514.627C184.79 516.018 180.212 513.695 178.821 509.438L173.783 494.022C172.392 489.765 174.715 485.187 178.972 483.796Z" fill="#EFEFEF"></path> <path d="M190.238 486.94C192.792 486.105 195.539 487.499 196.374 490.053L199.397 499.302C200.232 501.857 198.838 504.604 196.283 505.438C193.729 506.273 190.982 504.879 190.147 502.325L187.125 493.076C186.29 490.522 187.684 487.774 190.238 486.94Z" fill="#F5F0F0"></path> <path d="M183.477 502.798L186.56 501.791L192.605 520.29L189.522 521.297L183.477 502.798Z" fill="#194572"></path> <path d="M202.922 510.093C202.443 510.255 201.984 510.472 201.556 510.741C197.966 508.07 192.891 508.815 190.22 512.405C188.301 514.983 188.088 518.452 189.677 521.246L211.104 514.244C209.991 510.839 206.328 508.98 202.922 510.093C202.923 510.093 202.923 510.093 202.922 510.093Z" fill="#0E263E"></path> <path d="M215.255 506.063L229.618 501.369C230.564 501.06 231.582 501.576 231.891 502.523C232.04 502.977 232.001 503.472 231.785 503.898L219.119 528.862C218.668 529.75 217.583 530.105 216.695 529.654C216.269 529.438 215.946 529.061 215.798 528.607L211.104 514.244C209.991 510.839 211.85 507.176 215.255 506.063Z" fill="#FDFCFE"></path> <path d="M208.021 515.252L208.021 515.252C209.724 514.695 211.555 515.624 212.112 517.327L216.142 529.66C216.699 531.363 215.769 533.194 214.067 533.751L214.067 533.751C212.364 534.307 210.532 533.378 209.976 531.675L205.946 519.342C205.389 517.64 206.318 515.808 208.021 515.252Z" fill="#E4E4E4"></path> </g> <circle cx="240" cy="53.0044" r="3" fill="#E38A1E"></circle> <circle cx="219.5" cy="257.504" r="5.5" fill="#0E263E"></circle> </g> <path d="M43.248 128.621C37.296 119.501 34.32 106.829 34.32 90.6048C34.32 74.3808 37.248 61.7568 43.104 52.7328C49.056 43.6128 57.744 39.0528 69.168 39.0528C80.496 39.0528 89.136 43.6128 95.088 52.7328C101.04 61.8528 104.016 74.4768 104.016 90.6048C104.016 106.925 101.088 119.597 95.232 128.621C89.376 137.645 80.784 142.157 69.456 142.157C58.032 142.157 49.296 137.645 43.248 128.621ZM57.36 90.6048C57.36 111.533 61.392 121.997 69.456 121.997C73.584 121.997 76.512 119.645 78.24 114.941C80.064 110.237 80.976 102.125 80.976 90.6048C80.976 79.0848 80.064 70.9728 78.24 66.2688C76.512 61.5648 73.488 59.2128 69.168 59.2128C65.04 59.2128 62.016 61.6608 60.096 66.5568C58.272 71.3568 57.36 79.3728 57.36 90.6048ZM121 77.9328L109.768 60.0768L137.128 40.2048H152.68V141.005H131.08V70.8768L121 77.9328Z" fill="#F6F6F6"></path> <path d="M46.6595 103.806L47.5995 105.646C47.1595 106.113 46.5262 106.493 45.6995 106.786C44.8862 107.08 44.0262 107.226 43.1195 107.226C40.9862 107.226 39.2462 106.566 37.8995 105.246C36.5662 103.926 35.8995 102.18 35.8995 100.006C35.8995 97.9263 36.5328 96.1997 37.7995 94.8263C39.0528 93.4663 40.8062 92.7863 43.0595 92.7863C44.8462 92.7863 46.2662 93.2597 47.3195 94.2063L46.2195 96.0263C45.2728 95.3997 44.2195 95.0863 43.0595 95.0863C41.7262 95.0863 40.6328 95.533 39.7795 96.4263C38.9262 97.3197 38.4995 98.513 38.4995 100.006C38.4995 101.473 38.9462 102.66 39.8395 103.566C40.7462 104.473 41.9128 104.926 43.3395 104.926C44.5662 104.926 45.6728 104.553 46.6595 103.806ZM55.539 111.006H53.239V107.226H53.119C51.5724 107.226 50.3724 106.786 49.519 105.906C48.6657 105.04 48.239 103.906 48.239 102.506C48.239 101.226 48.6724 100.12 49.539 99.1863C50.419 98.253 51.6057 97.7863 53.099 97.7863H53.239V93.0063H55.539V97.7863H55.699C57.2057 97.7863 58.3857 98.233 59.239 99.1263C60.1057 100.02 60.539 101.146 60.539 102.506C60.539 103.933 60.1124 105.08 59.259 105.946C58.419 106.8 57.2324 107.226 55.699 107.226H55.539V111.006ZM55.699 99.9463H55.539V105.086H55.619C56.4057 105.086 57.0124 104.86 57.439 104.406C57.8657 103.94 58.079 103.306 58.079 102.506C58.079 101.76 57.8657 101.146 57.439 100.666C57.0257 100.186 56.4457 99.9463 55.699 99.9463ZM50.699 102.506C50.699 103.293 50.9124 103.92 51.339 104.386C51.779 104.853 52.3924 105.086 53.179 105.086H53.239V99.9463H53.079C52.3057 99.9463 51.7124 100.18 51.299 100.646C50.899 101.113 50.699 101.733 50.699 102.506ZM63.3095 105.906C62.4162 105.013 61.9695 103.88 61.9695 102.506C61.9695 101.133 62.4162 100.006 63.3095 99.1263C64.2028 98.233 65.3895 97.7863 66.8695 97.7863C68.3362 97.7863 69.5162 98.233 70.4095 99.1263C71.3162 100.006 71.7695 101.133 71.7695 102.506C71.7695 103.866 71.3162 105 70.4095 105.906C69.5028 106.786 68.3228 107.226 66.8695 107.226C65.3895 107.226 64.2028 106.786 63.3095 105.906ZM65.1295 100.666C64.6628 101.146 64.4295 101.76 64.4295 102.506C64.4295 103.253 64.6562 103.873 65.1095 104.366C65.5762 104.846 66.1628 105.086 66.8695 105.086C67.5895 105.086 68.1762 104.846 68.6295 104.366C69.0962 103.886 69.3295 103.266 69.3295 102.506C69.3295 101.76 69.0962 101.146 68.6295 100.666C68.1628 100.186 67.5762 99.9463 66.8695 99.9463C66.1762 99.9463 65.5962 100.186 65.1295 100.666ZM75.4284 100.306H72.4684V98.0063H80.6684V100.306H77.7284V107.006H75.4284V100.306ZM82.8212 105.906C81.9279 105.013 81.4812 103.88 81.4812 102.506C81.4812 101.133 81.9279 100.006 82.8212 99.1263C83.7146 98.233 84.9012 97.7863 86.3812 97.7863C87.8479 97.7863 89.0279 98.233 89.9212 99.1263C90.8279 100.006 91.2812 101.133 91.2812 102.506C91.2812 103.866 90.8279 105 89.9212 105.906C89.0146 106.786 87.8346 107.226 86.3812 107.226C84.9012 107.226 83.7146 106.786 82.8212 105.906ZM84.6412 100.666C84.1746 101.146 83.9412 101.76 83.9412 102.506C83.9412 103.253 84.1679 103.873 84.6212 104.366C85.0879 104.846 85.6746 105.086 86.3812 105.086C87.1012 105.086 87.6879 104.846 88.1412 104.366C88.6079 103.886 88.8412 103.266 88.8412 102.506C88.8412 101.76 88.6079 101.146 88.1412 100.666C87.6746 100.186 87.0879 99.9463 86.3812 99.9463C85.6879 99.9463 85.1079 100.186 84.6412 100.666ZM95.5717 107.006H93.2717V98.0063H99.3117V100.166H95.5717V107.006ZM103.052 111.006H100.752V98.0063H103.052V98.8663C103.346 98.5463 103.746 98.2863 104.252 98.0863C104.759 97.8863 105.286 97.7863 105.832 97.7863C107.072 97.7863 108.059 98.213 108.792 99.0663C109.539 99.933 109.912 101.033 109.912 102.366C109.912 103.766 109.472 104.926 108.592 105.846C107.712 106.766 106.566 107.226 105.152 107.226C104.246 107.226 103.546 107.08 103.052 106.786V111.006ZM105.112 99.9463C104.312 99.9463 103.626 100.273 103.052 100.926V104.566C103.599 104.913 104.232 105.086 104.952 105.086C105.712 105.086 106.319 104.84 106.772 104.346C107.239 103.853 107.472 103.213 107.472 102.426C107.472 101.68 107.259 101.08 106.832 100.626C106.419 100.173 105.846 99.9463 105.112 99.9463ZM112.605 100.326L112.025 98.6463C112.998 98.073 114.058 97.7863 115.205 97.7863C116.458 97.7863 117.371 98.093 117.945 98.7063C118.518 99.3197 118.805 100.26 118.805 101.526V107.006H116.805V105.966C116.271 106.74 115.385 107.126 114.145 107.126C113.291 107.126 112.605 106.88 112.085 106.386C111.578 105.88 111.325 105.206 111.325 104.366C111.325 103.433 111.625 102.713 112.225 102.206C112.825 101.7 113.618 101.446 114.605 101.446C115.418 101.446 116.098 101.64 116.645 102.026C116.671 101.226 116.551 100.64 116.285 100.266C116.031 99.893 115.591 99.7063 114.965 99.7063C114.271 99.7063 113.485 99.913 112.605 100.326ZM114.905 105.186C115.678 105.186 116.258 104.913 116.645 104.366V103.446C116.271 103.153 115.745 103.006 115.065 103.006C114.638 103.006 114.291 103.106 114.025 103.306C113.758 103.506 113.625 103.78 113.625 104.126C113.625 104.446 113.745 104.706 113.985 104.906C114.225 105.093 114.531 105.186 114.905 105.186ZM127.902 111.006H125.602V107.226H125.482C123.936 107.226 122.736 106.786 121.882 105.906C121.029 105.04 120.602 103.906 120.602 102.506C120.602 101.226 121.036 100.12 121.902 99.1863C122.782 98.253 123.969 97.7863 125.462 97.7863H125.602V93.0063H127.902V97.7863H128.062C129.569 97.7863 130.749 98.233 131.602 99.1263C132.469 100.02 132.902 101.146 132.902 102.506C132.902 103.933 132.476 105.08 131.622 105.946C130.782 106.8 129.596 107.226 128.062 107.226H127.902V111.006ZM128.062 99.9463H127.902V105.086H127.982C128.769 105.086 129.376 104.86 129.802 104.406C130.229 103.94 130.442 103.306 130.442 102.506C130.442 101.76 130.229 101.146 129.802 100.666C129.389 100.186 128.809 99.9463 128.062 99.9463ZM123.062 102.506C123.062 103.293 123.276 103.92 123.702 104.386C124.142 104.853 124.756 105.086 125.542 105.086H125.602V99.9463H125.442C124.669 99.9463 124.076 100.18 123.662 100.646C123.262 101.113 123.062 101.733 123.062 102.506ZM141.393 101.306L137.193 107.006H134.893V98.0063H137.193V103.706L141.393 98.0063H143.693V107.006H141.393V101.306ZM148.56 111.006H146.26V98.0063H148.56V98.8663C148.853 98.5463 149.253 98.2863 149.76 98.0863C150.267 97.8863 150.793 97.7863 151.34 97.7863C152.58 97.7863 153.567 98.213 154.3 99.0663C155.047 99.933 155.42 101.033 155.42 102.366C155.42 103.766 154.98 104.926 154.1 105.846C153.22 106.766 152.073 107.226 150.66 107.226C149.753 107.226 149.053 107.08 148.56 106.786V111.006ZM150.62 99.9463C149.82 99.9463 149.133 100.273 148.56 100.926V104.566C149.107 104.913 149.74 105.086 150.46 105.086C151.22 105.086 151.827 104.84 152.28 104.346C152.747 103.853 152.98 103.213 152.98 102.426C152.98 101.68 152.767 101.08 152.34 100.626C151.927 100.173 151.353 99.9463 150.62 99.9463ZM163.121 98.0063H165.741L162.201 107.006C161.561 108.566 160.987 109.62 160.481 110.166C159.987 110.726 159.401 111.006 158.721 111.006C158.081 111.006 157.434 110.773 156.781 110.306L157.521 108.566C157.867 108.78 158.181 108.886 158.461 108.886C159.007 108.886 159.467 108.42 159.841 107.486L160.041 107.006L155.881 98.0063H158.641L160.741 102.926C160.767 102.993 160.914 103.426 161.181 104.226C161.261 103.733 161.367 103.293 161.501 102.906L163.121 98.0063ZM173.619 101.306L169.419 107.006H167.119V98.0063H169.419V103.706L173.619 98.0063H175.919V107.006H173.619V101.306ZM168.459 93.5063H170.559C170.559 93.9463 170.646 94.2997 170.819 94.5663C170.993 94.833 171.253 94.9663 171.599 94.9663C171.906 94.9663 172.139 94.833 172.299 94.5663C172.473 94.2863 172.559 93.933 172.559 93.5063H174.659C174.659 94.4397 174.386 95.193 173.839 95.7663C173.293 96.3263 172.546 96.6063 171.599 96.6063C170.559 96.6063 169.773 96.333 169.239 95.7863C168.719 95.2263 168.459 94.4663 168.459 93.5063ZM180.507 100.306H177.547V98.0063H185.747V100.306H182.807V107.006H180.507V100.306ZM194.179 104.486L194.839 106.106C193.946 106.853 192.799 107.226 191.399 107.226C189.959 107.226 188.786 106.793 187.879 105.926C186.999 105.073 186.559 103.933 186.559 102.506C186.559 101.173 186.993 100.053 187.859 99.1463C188.726 98.2397 189.879 97.7863 191.319 97.7863C192.506 97.7863 193.513 98.1797 194.339 98.9663C195.166 99.753 195.579 100.753 195.579 101.966C195.579 102.5 195.533 102.913 195.439 103.206H188.939C189.033 103.86 189.319 104.373 189.799 104.746C190.293 105.12 190.906 105.306 191.639 105.306C192.639 105.306 193.486 105.033 194.179 104.486ZM191.219 99.7063C189.913 99.7063 189.126 100.36 188.859 101.666H193.279C193.293 101.093 193.106 100.626 192.719 100.266C192.346 99.893 191.846 99.7063 191.219 99.7063ZM44.7195 135.006H42.4195V128.166H38.5795V135.006H36.2795V126.006H44.7195V135.006ZM49.5756 139.006H47.2756V126.006H49.5756V126.866C49.8689 126.546 50.2689 126.286 50.7756 126.086C51.2823 125.886 51.8089 125.786 52.3556 125.786C53.5956 125.786 54.5823 126.213 55.3156 127.066C56.0623 127.933 56.4356 129.033 56.4356 130.366C56.4356 131.766 55.9956 132.926 55.1156 133.846C54.2356 134.766 53.0889 135.226 51.6756 135.226C50.7689 135.226 50.0689 135.08 49.5756 134.786V139.006ZM51.6356 127.946C50.8356 127.946 50.1489 128.273 49.5756 128.926V132.566C50.1223 132.913 50.7556 133.086 51.4756 133.086C52.2356 133.086 52.8423 132.84 53.2956 132.346C53.7623 131.853 53.9956 131.213 53.9956 130.426C53.9956 129.68 53.7823 129.08 53.3556 128.626C52.9423 128.173 52.3689 127.946 51.6356 127.946ZM59.2079 133.906C58.3146 133.013 57.8679 131.88 57.8679 130.506C57.8679 129.133 58.3146 128.006 59.2079 127.126C60.1013 126.233 61.2879 125.786 62.7679 125.786C64.2346 125.786 65.4146 126.233 66.3079 127.126C67.2146 128.006 67.6679 129.133 67.6679 130.506C67.6679 131.866 67.2146 133 66.3079 133.906C65.4013 134.786 64.2213 135.226 62.7679 135.226C61.2879 135.226 60.1013 134.786 59.2079 133.906ZM61.0279 128.666C60.5613 129.146 60.3279 129.76 60.3279 130.506C60.3279 131.253 60.5546 131.873 61.0079 132.366C61.4746 132.846 62.0613 133.086 62.7679 133.086C63.4879 133.086 64.0746 132.846 64.5279 132.366C64.9946 131.886 65.2279 131.266 65.2279 130.506C65.2279 129.76 64.9946 129.146 64.5279 128.666C64.0613 128.186 63.4746 127.946 62.7679 127.946C62.0746 127.946 61.4946 128.186 61.0279 128.666ZM70.4254 137.106H68.2854V132.866H69.4254C70.1321 131.92 70.5521 130.353 70.6854 128.166L70.8254 126.006H77.4654V132.866H78.9654V137.106H76.8054V135.006H70.4254V137.106ZM72.9654 128.166L72.9054 129.086C72.7454 130.82 72.3854 132.08 71.8254 132.866H75.1654V128.166H72.9654ZM86.5387 126.006H89.1587L85.6187 135.006C84.9787 136.566 84.4054 137.62 83.8987 138.166C83.4054 138.726 82.8187 139.006 82.1387 139.006C81.4987 139.006 80.8521 138.773 80.1987 138.306L80.9387 136.566C81.2854 136.78 81.5987 136.886 81.8787 136.886C82.4254 136.886 82.8854 136.42 83.2587 135.486L83.4587 135.006L79.2987 126.006H82.0587L84.1587 130.926C84.1854 130.993 84.3321 131.426 84.5987 132.226C84.6787 131.733 84.7854 131.293 84.9187 130.906L86.5387 126.006ZM96.3797 126.006H99.0397L96.0397 130.306L99.2397 135.006H96.4397L94.3397 131.766L92.1597 135.006H89.4997L92.6997 130.426L89.6997 126.006H92.5197L94.4197 128.986L96.3797 126.006ZM45.5595 149.006H46.8995L40.2795 155.626L47.1795 163.006H45.7595L38.9795 155.706L45.5595 149.006ZM38.3195 163.006H37.2195V149.006H38.3195V163.006ZM49.5939 155.506L49.3139 154.646C50.2072 154.1 51.1606 153.826 52.1739 153.826C53.3472 153.826 54.1939 154.12 54.7139 154.706C55.2472 155.293 55.5139 156.2 55.5139 157.426V163.006H54.4739V161.626C53.7406 162.626 52.7139 163.126 51.3939 163.126C50.5539 163.126 49.8806 162.886 49.3739 162.406C48.8672 161.913 48.6139 161.26 48.6139 160.446C48.6139 159.566 48.9339 158.88 49.5739 158.386C50.2006 157.893 51.0206 157.646 52.0339 157.646C53.0472 157.646 53.8606 157.873 54.4739 158.326C54.4739 157.393 54.4072 156.68 54.2739 156.186C54.1672 155.706 53.9472 155.366 53.6139 155.166C53.2939 154.966 52.7939 154.846 52.1139 154.806C51.3006 154.806 50.4606 155.04 49.5939 155.506ZM51.7139 162.146C52.8339 162.146 53.7539 161.673 54.4739 160.726V159.226C53.8206 158.746 53.0406 158.506 52.1339 158.506C51.4539 158.506 50.8806 158.673 50.4139 159.006C49.9472 159.34 49.7139 159.8 49.7139 160.386C49.7139 160.92 49.9006 161.346 50.2739 161.666C50.6472 161.986 51.1272 162.146 51.7139 162.146ZM64.4936 154.006H65.8336L61.3936 158.306L66.1936 163.006H64.7936L60.1336 158.366L64.4936 154.006ZM59.5336 163.006H58.4936V154.006H59.5336V163.006ZM79.9281 155.506L73.9281 163.006H72.8881V154.006H73.9281V161.506L79.9281 154.006H80.9681V163.006H79.9281V155.506ZM85.1586 163.006H84.1186V154.006H85.0986L88.8386 159.026L92.4386 154.006H93.3786V163.006H92.3386V155.586L88.8386 160.446H88.7786L85.1586 155.586V163.006ZM103.68 161.106L104.02 161.906C103.207 162.76 102.1 163.186 100.7 163.186C99.26 163.186 98.1066 162.76 97.24 161.906C96.36 161.053 95.92 159.92 95.92 158.506C95.92 157.146 96.32 156.026 97.12 155.146C97.9333 154.266 99.0533 153.826 100.48 153.826C101.64 153.826 102.613 154.2 103.4 154.946C104.173 155.68 104.56 156.66 104.56 157.886C104.56 158.206 104.54 158.486 104.5 158.726H97.08C97.12 159.806 97.4733 160.66 98.14 161.286C98.8066 161.9 99.68 162.206 100.76 162.206C102.013 162.206 102.987 161.84 103.68 161.106ZM100.38 154.806C99.42 154.806 98.64 155.086 98.04 155.646C97.4533 156.206 97.1133 156.946 97.02 157.866H103.5C103.487 156.92 103.2 156.173 102.64 155.626C102.08 155.08 101.327 154.806 100.38 154.806ZM114.968 163.006H113.928V158.926H108.088V163.006H107.048V154.006H108.088V157.946H113.928V154.006H114.968V163.006ZM126.042 163.006H125.002V158.926H119.162V163.006H118.122V154.006H119.162V157.946H125.002V154.006H126.042V163.006ZM133.277 163.186C131.89 163.186 130.757 162.746 129.877 161.866C128.997 160.986 128.557 159.866 128.557 158.506C128.557 157.146 128.997 156.026 129.877 155.146C130.757 154.266 131.89 153.826 133.277 153.826C134.663 153.826 135.797 154.266 136.677 155.146C137.557 156.026 137.997 157.146 137.997 158.506C137.997 159.866 137.557 160.986 136.677 161.866C135.797 162.746 134.663 163.186 133.277 163.186ZM133.277 162.206C134.357 162.206 135.223 161.866 135.877 161.186C136.557 160.493 136.897 159.6 136.897 158.506C136.897 157.426 136.557 156.54 135.877 155.846C135.197 155.153 134.33 154.806 133.277 154.806C132.237 154.806 131.37 155.153 130.677 155.846C129.997 156.54 129.657 157.426 129.657 158.506C129.657 159.586 129.997 160.473 130.677 161.166C131.357 161.86 132.223 162.206 133.277 162.206ZM40.6595 191.186C39.2728 191.186 38.1395 190.746 37.2595 189.866C36.3795 188.986 35.9395 187.866 35.9395 186.506C35.9395 185.146 36.3795 184.026 37.2595 183.146C38.1395 182.266 39.2728 181.826 40.6595 181.826C42.0462 181.826 43.1795 182.266 44.0595 183.146C44.9395 184.026 45.3795 185.146 45.3795 186.506C45.3795 187.866 44.9395 188.986 44.0595 189.866C43.1795 190.746 42.0462 191.186 40.6595 191.186ZM40.6595 190.206C41.7395 190.206 42.6062 189.866 43.2595 189.186C43.9395 188.493 44.2795 187.6 44.2795 186.506C44.2795 185.426 43.9395 184.54 43.2595 183.846C42.5795 183.153 41.7128 182.806 40.6595 182.806C39.6195 182.806 38.7528 183.153 38.0595 183.846C37.3795 184.54 37.0395 185.426 37.0395 186.506C37.0395 187.586 37.3795 188.473 38.0595 189.166C38.7395 189.86 39.6062 190.206 40.6595 190.206ZM55.8472 191.006H54.8072V186.926H48.9672V191.006H47.9272V182.006H48.9672V185.946H54.8072V182.006H55.8472V191.006ZM66.4884 191.186C65.8751 191.186 65.1951 191.073 64.4484 190.846C63.7418 190.633 63.2418 190.346 62.9484 189.986L63.4884 189.186C63.8351 189.506 64.2684 189.76 64.7884 189.946C65.3218 190.12 65.8351 190.206 66.3284 190.206C67.1684 190.206 67.8418 190.04 68.3484 189.706C68.8551 189.373 69.1084 188.926 69.1084 188.366C69.1084 187.9 68.9218 187.533 68.5484 187.266C68.1751 187 67.6684 186.866 67.0284 186.866H65.5084V186.006H66.9284C67.4351 186.006 67.8684 185.846 68.2284 185.526C68.5884 185.206 68.7684 184.82 68.7684 184.366C68.7684 183.86 68.5684 183.473 68.1684 183.206C67.7684 182.94 67.2084 182.806 66.4884 182.806C65.4351 182.806 64.4951 183.14 63.6684 183.806L63.2484 183.006C64.0084 182.22 65.1351 181.826 66.6284 181.826C67.6551 181.826 68.4484 182.04 69.0084 182.466C69.5818 182.88 69.8684 183.453 69.8684 184.186C69.8684 185.24 69.3284 185.96 68.2484 186.346V186.386C68.8618 186.44 69.3418 186.666 69.6884 187.066C70.0351 187.453 70.2084 187.933 70.2084 188.506C70.2084 189.333 69.8684 189.986 69.1884 190.466C68.5084 190.946 67.6084 191.186 66.4884 191.186ZM73.1486 183.506L72.8686 182.646C73.7619 182.1 74.7152 181.826 75.7286 181.826C76.9019 181.826 77.7486 182.12 78.2686 182.706C78.8019 183.293 79.0686 184.2 79.0686 185.426V191.006H78.0286V189.626C77.2952 190.626 76.2686 191.126 74.9486 191.126C74.1086 191.126 73.4352 190.886 72.9286 190.406C72.4219 189.913 72.1686 189.26 72.1686 188.446C72.1686 187.566 72.4886 186.88 73.1286 186.386C73.7552 185.893 74.5752 185.646 75.5886 185.646C76.6019 185.646 77.4152 185.873 78.0286 186.326C78.0286 185.393 77.9619 184.68 77.8286 184.186C77.7219 183.706 77.5019 183.366 77.1686 183.166C76.8486 182.966 76.3486 182.846 75.6686 182.806C74.8552 182.806 74.0152 183.04 73.1486 183.506ZM75.2686 190.146C76.3886 190.146 77.3086 189.673 78.0286 188.726V187.226C77.3752 186.746 76.5952 186.506 75.6886 186.506C75.0086 186.506 74.4352 186.673 73.9686 187.006C73.5019 187.34 73.2686 187.8 73.2686 188.386C73.2686 188.92 73.4552 189.346 73.8286 189.666C74.2019 189.986 74.6819 190.146 75.2686 190.146ZM88.0483 182.006H89.3883L84.9483 186.306L89.7483 191.006H88.3483L83.6883 186.366L88.0483 182.006ZM83.0883 191.006H82.0483V182.006H83.0883V191.006ZM92.7758 195.006H91.7358V182.006H92.7758V183.206C93.1358 182.806 93.6158 182.48 94.2158 182.226C94.8291 181.96 95.4491 181.826 96.0758 181.826C97.3558 181.826 98.3758 182.246 99.1358 183.086C99.8958 183.926 100.276 185.02 100.276 186.366C100.276 187.766 99.8491 188.92 98.9958 189.826C98.1291 190.733 97.0158 191.186 95.6558 191.186C94.4424 191.186 93.4824 190.933 92.7758 190.426V195.006ZM95.7958 182.806C95.2091 182.806 94.6358 182.94 94.0758 183.206C93.5291 183.473 93.0958 183.806 92.7758 184.206V189.386C93.6024 189.933 94.5358 190.206 95.5758 190.206C96.6424 190.206 97.5091 189.853 98.1758 189.146C98.8424 188.44 99.1758 187.533 99.1758 186.426C99.1758 185.32 98.8758 184.44 98.2758 183.786C97.6758 183.133 96.8491 182.806 95.7958 182.806ZM105.29 191.006H102.81V182.006H103.85V185.026H105.41C107.783 185.026 108.97 186.013 108.97 187.986C108.97 188.92 108.67 189.66 108.07 190.206C107.47 190.74 106.543 191.006 105.29 191.006ZM105.23 186.006H103.85V190.026H105.21C106.157 190.026 106.837 189.86 107.25 189.526C107.663 189.193 107.87 188.686 107.87 188.006C107.87 186.673 106.99 186.006 105.23 186.006ZM112.07 191.006H111.03V182.006H112.07V191.006ZM117.492 183.046H113.912V182.006H122.112V183.046H118.532V191.006H117.492V183.046ZM129.783 180.446C129.783 179.726 129.509 179.113 128.963 178.606C128.429 178.113 127.736 177.866 126.883 177.866C125.603 177.866 124.576 178.406 123.803 179.486L123.163 178.826C123.536 178.226 124.063 177.746 124.743 177.386C125.436 177.013 126.176 176.826 126.963 176.826C128.176 176.826 129.129 177.153 129.823 177.806C130.529 178.473 130.883 179.28 130.883 180.226C130.883 181.493 130.403 182.513 129.443 183.286C129.323 183.38 129.089 183.553 128.743 183.806C128.409 184.06 128.163 184.253 128.003 184.386C127.856 184.52 127.669 184.706 127.443 184.946C127.216 185.186 127.056 185.433 126.963 185.686C126.869 185.94 126.823 186.213 126.823 186.506C126.823 186.666 126.849 186.886 126.903 187.166L125.963 187.206C125.896 186.806 125.863 186.52 125.863 186.346C125.863 185.36 126.323 184.533 127.243 183.866C127.323 183.8 127.509 183.66 127.803 183.446C128.096 183.233 128.296 183.08 128.403 182.986C128.523 182.893 128.689 182.74 128.903 182.526C129.129 182.3 129.289 182.1 129.383 181.926C129.476 181.753 129.563 181.54 129.643 181.286C129.736 181.02 129.783 180.74 129.783 180.446ZM125.623 190.246C125.623 190.046 125.696 189.88 125.843 189.746C125.989 189.6 126.176 189.526 126.403 189.526C126.603 189.526 126.776 189.6 126.923 189.746C127.069 189.893 127.143 190.06 127.143 190.246C127.143 190.46 127.069 190.646 126.923 190.806C126.776 190.966 126.603 191.046 126.403 191.046C126.176 191.046 125.989 190.966 125.843 190.806C125.696 190.646 125.623 190.46 125.623 190.246ZM45.1595 219.006H37.2195V205.006H44.9595V206.046H38.3195V211.386H44.3595V212.426H38.3195V217.966H45.1595V219.006ZM55.0834 216.966L55.6034 217.726C55.2434 218.193 54.7568 218.553 54.1434 218.806C53.5434 219.06 52.8968 219.186 52.2034 219.186C50.8034 219.186 49.6568 218.76 48.7634 217.906C47.8834 217.053 47.4434 215.92 47.4434 214.506C47.4434 213.186 47.8701 212.08 48.7234 211.186C49.5901 210.28 50.6568 209.826 51.9234 209.826C53.4701 209.826 54.6368 210.2 55.4234 210.946L54.9234 211.786C54.2168 211.133 53.2701 210.806 52.0834 210.806C51.1234 210.806 50.2901 211.16 49.5834 211.866C48.8901 212.56 48.5434 213.44 48.5434 214.506C48.5434 215.626 48.8968 216.526 49.6034 217.206C50.3101 217.873 51.2034 218.206 52.2834 218.206C53.4434 218.206 54.3768 217.793 55.0834 216.966ZM65.0142 219.006H63.9742V211.046H60.1742L60.0542 213.006C59.8809 215.54 59.4609 217.22 58.7942 218.046C58.2609 218.74 57.6009 219.086 56.8142 219.086L56.7342 218.066C57.0809 218.066 57.4075 217.906 57.7142 217.586C58.4475 216.906 58.8942 215.313 59.0542 212.806L59.1942 210.006H65.0142V219.006ZM75.2211 211.506L69.2211 219.006H68.1811V210.006H69.2211V217.506L75.2211 210.006H76.2611V219.006H75.2211V211.506ZM90.3386 214.846H85.5786V213.986H90.3186C90.2252 212.986 89.8452 212.206 89.1786 211.646C88.5252 211.086 87.6852 210.806 86.6586 210.806C85.4586 210.806 84.4852 211.18 83.7386 211.926L83.2786 211.146C83.6652 210.746 84.1652 210.426 84.7786 210.186C85.3919 209.946 86.0119 209.826 86.6386 209.826C88.0519 209.826 89.1919 210.253 90.0586 211.106C90.9519 211.96 91.3986 213.093 91.3986 214.506C91.3986 215.84 90.9719 216.953 90.1186 217.846C89.2652 218.74 88.1986 219.186 86.9186 219.186C85.3319 219.186 84.1519 218.82 83.3786 218.086L83.8786 217.306C84.5586 217.906 85.5452 218.206 86.8386 218.206C87.8119 218.206 88.6186 217.9 89.2586 217.286C89.9119 216.673 90.2719 215.86 90.3386 214.846ZM95.8512 211.046H92.2712V210.006H100.471V211.046H96.8912V219.006H95.8512V211.046ZM106.07 219.186C104.683 219.186 103.55 218.746 102.67 217.866C101.79 216.986 101.35 215.866 101.35 214.506C101.35 213.146 101.79 212.026 102.67 211.146C103.55 210.266 104.683 209.826 106.07 209.826C107.456 209.826 108.59 210.266 109.47 211.146C110.35 212.026 110.79 213.146 110.79 214.506C110.79 215.866 110.35 216.986 109.47 217.866C108.59 218.746 107.456 219.186 106.07 219.186ZM106.07 218.206C107.15 218.206 108.016 217.866 108.67 217.186C109.35 216.493 109.69 215.6 109.69 214.506C109.69 213.426 109.35 212.54 108.67 211.846C107.99 211.153 107.123 210.806 106.07 210.806C105.03 210.806 104.163 211.153 103.47 211.846C102.79 212.54 102.45 213.426 102.45 214.506C102.45 215.586 102.79 216.473 103.47 217.166C104.15 217.86 105.016 218.206 106.07 218.206ZM120.304 211.046H116.724V210.006H124.924V211.046H121.344V219.006H120.304V211.046ZM130.523 219.186C129.136 219.186 128.003 218.746 127.123 217.866C126.243 216.986 125.803 215.866 125.803 214.506C125.803 213.146 126.243 212.026 127.123 211.146C128.003 210.266 129.136 209.826 130.523 209.826C131.909 209.826 133.043 210.266 133.923 211.146C134.803 212.026 135.243 213.146 135.243 214.506C135.243 215.866 134.803 216.986 133.923 217.866C133.043 218.746 131.909 219.186 130.523 219.186ZM130.523 218.206C131.603 218.206 132.469 217.866 133.123 217.186C133.803 216.493 134.143 215.6 134.143 214.506C134.143 213.426 133.803 212.54 133.123 211.846C132.443 211.153 131.576 210.806 130.523 210.806C129.483 210.806 128.616 211.153 127.923 211.846C127.243 212.54 126.903 213.426 126.903 214.506C126.903 215.586 127.243 216.473 127.923 217.166C128.603 217.86 129.469 218.206 130.523 218.206ZM145.71 219.006H144.67V214.926H138.83V219.006H137.79V210.006H138.83V213.946H144.67V210.006H145.71V219.006ZM154.865 210.006H156.205L151.765 214.306L156.565 219.006H155.165L150.505 214.366L154.865 210.006ZM149.905 219.006H148.865V210.006H149.905V219.006ZM158.832 211.506L158.552 210.646C159.446 210.1 160.399 209.826 161.412 209.826C162.586 209.826 163.432 210.12 163.952 210.706C164.486 211.293 164.752 212.2 164.752 213.426V219.006H163.712V217.626C162.979 218.626 161.952 219.126 160.632 219.126C159.792 219.126 159.119 218.886 158.612 218.406C158.106 217.913 157.852 217.26 157.852 216.446C157.852 215.566 158.172 214.88 158.812 214.386C159.439 213.893 160.259 213.646 161.272 213.646C162.286 213.646 163.099 213.873 163.712 214.326C163.712 213.393 163.646 212.68 163.512 212.186C163.406 211.706 163.186 211.366 162.852 211.166C162.532 210.966 162.032 210.846 161.352 210.806C160.539 210.806 159.699 211.04 158.832 211.506ZM160.952 218.146C162.072 218.146 162.992 217.673 163.712 216.726V215.226C163.059 214.746 162.279 214.506 161.372 214.506C160.692 214.506 160.119 214.673 159.652 215.006C159.186 215.34 158.952 215.8 158.952 216.386C158.952 216.92 159.139 217.346 159.512 217.666C159.886 217.986 160.366 218.146 160.952 218.146ZM171.432 210.006H174.112V219.006H173.072V215.646H170.832L168.252 219.006H166.972L169.812 215.406C169.212 215.313 168.699 215.033 168.272 214.566C167.859 214.086 167.652 213.513 167.652 212.846C167.652 211.98 167.965 211.293 168.592 210.786C169.219 210.266 170.165 210.006 171.432 210.006ZM168.752 212.866C168.752 213.4 168.959 213.833 169.372 214.166C169.785 214.5 170.225 214.666 170.692 214.666H173.072V210.986H171.252C170.425 210.986 169.799 211.16 169.372 211.506C168.959 211.84 168.752 212.293 168.752 212.866ZM43.5795 244.966L44.0995 245.726C43.7395 246.193 43.2528 246.553 42.6395 246.806C42.0395 247.06 41.3928 247.186 40.6995 247.186C39.2995 247.186 38.1528 246.76 37.2595 245.906C36.3795 245.053 35.9395 243.92 35.9395 242.506C35.9395 241.186 36.3662 240.08 37.2195 239.186C38.0862 238.28 39.1528 237.826 40.4195 237.826C41.9662 237.826 43.1328 238.2 43.9195 238.946L43.4195 239.786C42.7128 239.133 41.7662 238.806 40.5795 238.806C39.6195 238.806 38.7862 239.16 38.0795 239.866C37.3862 240.56 37.0395 241.44 37.0395 242.506C37.0395 243.626 37.3928 244.526 38.0995 245.206C38.8062 245.873 39.6995 246.206 40.7795 246.206C41.9395 246.206 42.8728 245.793 43.5795 244.966ZM53.0159 245.106L53.3559 245.906C52.5426 246.76 51.4359 247.186 50.0359 247.186C48.5959 247.186 47.4426 246.76 46.5759 245.906C45.6959 245.053 45.2559 243.92 45.2559 242.506C45.2559 241.146 45.6559 240.026 46.4559 239.146C47.2693 238.266 48.3893 237.826 49.8159 237.826C50.9759 237.826 51.9493 238.2 52.7359 238.946C53.5093 239.68 53.8959 240.66 53.8959 241.886C53.8959 242.206 53.8759 242.486 53.8359 242.726H46.4159C46.4559 243.806 46.8093 244.66 47.4759 245.286C48.1426 245.9 49.0159 246.206 50.0959 246.206C51.3493 246.206 52.3226 245.84 53.0159 245.106ZM49.7159 238.806C48.7559 238.806 47.9759 239.086 47.3759 239.646C46.7893 240.206 46.4493 240.946 46.3559 241.866H52.8359C52.8226 240.92 52.5359 240.173 51.9759 239.626C51.4159 239.08 50.6626 238.806 49.7159 238.806ZM58.3903 239.046H54.8103V238.006H63.0103V239.046H59.4303V247.006H58.3903V239.046ZM70.8412 238.006H72.1812L67.7412 242.306L72.5412 247.006H71.1412L66.4812 242.366L70.8412 238.006ZM65.8812 247.006H64.8412V238.006H65.8812V247.006ZM74.8087 239.506L74.5287 238.646C75.4221 238.1 76.3754 237.826 77.3887 237.826C78.5621 237.826 79.4087 238.12 79.9287 238.706C80.4621 239.293 80.7287 240.2 80.7287 241.426V247.006H79.6887V245.626C78.9554 246.626 77.9287 247.126 76.6087 247.126C75.7687 247.126 75.0954 246.886 74.5887 246.406C74.0821 245.913 73.8287 245.26 73.8287 244.446C73.8287 243.566 74.1487 242.88 74.7887 242.386C75.4154 241.893 76.2354 241.646 77.2487 241.646C78.2621 241.646 79.0754 241.873 79.6887 242.326C79.6887 241.393 79.6221 240.68 79.4887 240.186C79.3821 239.706 79.1621 239.366 78.8287 239.166C78.5087 238.966 78.0087 238.846 77.3287 238.806C76.5154 238.806 75.6754 239.04 74.8087 239.506ZM76.9287 246.146C78.0487 246.146 78.9687 245.673 79.6887 244.726V243.226C79.0354 242.746 78.2554 242.506 77.3487 242.506C76.6687 242.506 76.0954 242.673 75.6287 243.006C75.1621 243.34 74.9287 243.8 74.9287 244.386C74.9287 244.92 75.1154 245.346 75.4887 245.666C75.8621 245.986 76.3421 246.146 76.9287 246.146ZM83.3284 246.346C83.3284 246.133 83.4018 245.96 83.5484 245.826C83.7084 245.68 83.9084 245.606 84.1484 245.606C84.4818 245.606 84.7618 245.766 84.9884 246.086C85.2151 246.406 85.3284 246.82 85.3284 247.326C85.3284 247.966 85.1484 248.52 84.7884 248.986C84.4284 249.453 83.9618 249.773 83.3884 249.946L83.1084 249.426C83.4551 249.306 83.7484 249.106 83.9884 248.826C84.2418 248.56 84.3951 248.233 84.4484 247.846C84.5018 247.38 84.4351 247.033 84.2484 246.806C84.1951 246.94 84.0751 247.006 83.8884 247.006C83.7418 247.006 83.6084 246.946 83.4884 246.826C83.3818 246.693 83.3284 246.533 83.3284 246.346ZM97.0228 251.006H95.9828V247.186H95.6828C94.2028 247.186 93.0161 246.753 92.1228 245.886C91.2428 245.006 90.8028 243.88 90.8028 242.506C90.8028 241.226 91.2428 240.126 92.1228 239.206C93.0161 238.286 94.1961 237.826 95.6628 237.826H95.9828V233.006H97.0228V237.826H97.3628C98.8028 237.826 99.9695 238.273 100.863 239.166C101.756 240.046 102.203 241.16 102.203 242.506C102.203 243.866 101.769 244.993 100.903 245.886C100.036 246.753 98.8561 247.186 97.3628 247.186H97.0228V251.006ZM91.9028 242.506C91.9028 243.586 92.2428 244.48 92.9228 245.186C93.6295 245.866 94.5695 246.206 95.7428 246.206H95.9828V238.806H95.6428C94.4961 238.806 93.5828 239.16 92.9028 239.866C92.2361 240.573 91.9028 241.453 91.9028 242.506ZM97.3628 238.806H97.0228V246.206H97.2828C98.4695 246.206 99.4028 245.873 100.083 245.206C100.763 244.526 101.103 243.626 101.103 242.506C101.103 241.48 100.763 240.606 100.083 239.886C99.4161 239.166 98.5095 238.806 97.3628 238.806ZM105.024 239.506L104.744 238.646C105.637 238.1 106.59 237.826 107.604 237.826C108.777 237.826 109.624 238.12 110.144 238.706C110.677 239.293 110.944 240.2 110.944 241.426V247.006H109.904V245.626C109.17 246.626 108.144 247.126 106.824 247.126C105.984 247.126 105.31 246.886 104.804 246.406C104.297 245.913 104.044 245.26 104.044 244.446C104.044 243.566 104.364 242.88 105.004 242.386C105.63 241.893 106.45 241.646 107.464 241.646C108.477 241.646 109.29 241.873 109.904 242.326C109.904 241.393 109.837 240.68 109.704 240.186C109.597 239.706 109.377 239.366 109.044 239.166C108.724 238.966 108.224 238.846 107.544 238.806C106.73 238.806 105.89 239.04 105.024 239.506ZM107.144 246.146C108.264 246.146 109.184 245.673 109.904 244.726V243.226C109.25 242.746 108.47 242.506 107.564 242.506C106.884 242.506 106.31 242.673 105.844 243.006C105.377 243.34 105.144 243.8 105.144 244.386C105.144 244.92 105.33 245.346 105.704 245.666C106.077 245.986 106.557 246.146 107.144 246.146ZM121.843 247.006H120.803V242.926H114.963V247.006H113.923V238.006H114.963V241.946H120.803V238.006H121.843V247.006ZM132.117 245.106L132.457 245.906C131.644 246.76 130.537 247.186 129.137 247.186C127.697 247.186 126.544 246.76 125.677 245.906C124.797 245.053 124.357 243.92 124.357 242.506C124.357 241.146 124.757 240.026 125.557 239.146C126.371 238.266 127.491 237.826 128.917 237.826C130.077 237.826 131.051 238.2 131.837 238.946C132.611 239.68 132.997 240.66 132.997 241.886C132.997 242.206 132.977 242.486 132.937 242.726H125.517C125.557 243.806 125.911 244.66 126.577 245.286C127.244 245.9 128.117 246.206 129.197 246.206C130.451 246.206 131.424 245.84 132.117 245.106ZM128.817 238.806C127.857 238.806 127.077 239.086 126.477 239.646C125.891 240.206 125.551 240.946 125.457 241.866H131.937C131.924 240.92 131.637 240.173 131.077 239.626C130.517 239.08 129.764 238.806 128.817 238.806ZM136.526 251.006H135.486V238.006H136.526V239.206C136.886 238.806 137.366 238.48 137.966 238.226C138.579 237.96 139.199 237.826 139.826 237.826C141.106 237.826 142.126 238.246 142.886 239.086C143.646 239.926 144.026 241.02 144.026 242.366C144.026 243.766 143.599 244.92 142.746 245.826C141.879 246.733 140.766 247.186 139.406 247.186C138.192 247.186 137.232 246.933 136.526 246.426V251.006ZM139.546 238.806C138.959 238.806 138.386 238.94 137.826 239.206C137.279 239.473 136.846 239.806 136.526 240.206V245.386C137.352 245.933 138.286 246.206 139.326 246.206C140.392 246.206 141.259 245.853 141.926 245.146C142.592 244.44 142.926 243.533 142.926 242.426C142.926 241.32 142.626 240.44 142.026 239.786C141.426 239.133 140.599 238.806 139.546 238.806ZM146.84 239.506L146.56 238.646C147.453 238.1 148.407 237.826 149.42 237.826C150.593 237.826 151.44 238.12 151.96 238.706C152.493 239.293 152.76 240.2 152.76 241.426V247.006H151.72V245.626C150.987 246.626 149.96 247.126 148.64 247.126C147.8 247.126 147.127 246.886 146.62 246.406C146.113 245.913 145.86 245.26 145.86 244.446C145.86 243.566 146.18 242.88 146.82 242.386C147.447 241.893 148.267 241.646 149.28 241.646C150.293 241.646 151.107 241.873 151.72 242.326C151.72 241.393 151.653 240.68 151.52 240.186C151.413 239.706 151.193 239.366 150.86 239.166C150.54 238.966 150.04 238.846 149.36 238.806C148.547 238.806 147.707 239.04 146.84 239.506ZM148.96 246.146C150.08 246.146 151 245.673 151.72 244.726V243.226C151.067 242.746 150.287 242.506 149.38 242.506C148.7 242.506 148.127 242.673 147.66 243.006C147.193 243.34 146.96 243.8 146.96 244.386C146.96 244.92 147.147 245.346 147.52 245.666C147.893 245.986 148.373 246.146 148.96 246.146ZM155.36 246.346C155.36 246.133 155.433 245.96 155.58 245.826C155.74 245.68 155.94 245.606 156.18 245.606C156.513 245.606 156.793 245.766 157.02 246.086C157.246 246.406 157.36 246.82 157.36 247.326C157.36 247.966 157.18 248.52 156.82 248.986C156.46 249.453 155.993 249.773 155.42 249.946L155.14 249.426C155.486 249.306 155.78 249.106 156.02 248.826C156.273 248.56 156.426 248.233 156.48 247.846C156.533 247.38 156.466 247.033 156.28 246.806C156.226 246.94 156.106 247.006 155.92 247.006C155.773 247.006 155.64 246.946 155.52 246.826C155.413 246.693 155.36 246.533 155.36 246.346ZM46.1795 266.006H47.4395L43.8395 270.326L47.6795 275.006H46.4195L42.6795 270.326L46.1795 266.006ZM42.0395 275.006H40.9995V266.006H42.0395V275.006ZM35.4195 275.006L39.1995 270.326L35.5995 266.006H36.8795L40.3595 270.326L36.6795 275.006H35.4195ZM56.3558 273.106L56.6958 273.906C55.8824 274.76 54.7758 275.186 53.3758 275.186C51.9358 275.186 50.7824 274.76 49.9158 273.906C49.0358 273.053 48.5958 271.92 48.5958 270.506C48.5958 269.146 48.9958 268.026 49.7958 267.146C50.6091 266.266 51.7291 265.826 53.1558 265.826C54.3158 265.826 55.2891 266.2 56.0758 266.946C56.8491 267.68 57.2358 268.66 57.2358 269.886C57.2358 270.206 57.2158 270.486 57.1758 270.726H49.7558C49.7958 271.806 50.1491 272.66 50.8158 273.286C51.4824 273.9 52.3558 274.206 53.4358 274.206C54.6891 274.206 55.6624 273.84 56.3558 273.106ZM53.0558 266.806C52.0958 266.806 51.3158 267.086 50.7158 267.646C50.1291 268.206 49.7891 268.946 49.6958 269.866H56.1758C56.1624 268.92 55.8758 268.173 55.3158 267.626C54.7558 267.08 54.0024 266.806 53.0558 266.806ZM66.5678 272.966L67.0878 273.726C66.7278 274.193 66.2411 274.553 65.6278 274.806C65.0278 275.06 64.3811 275.186 63.6878 275.186C62.2878 275.186 61.1411 274.76 60.2478 273.906C59.3678 273.053 58.9278 271.92 58.9278 270.506C58.9278 269.186 59.3545 268.08 60.2078 267.186C61.0745 266.28 62.1411 265.826 63.4078 265.826C64.9545 265.826 66.1211 266.2 66.9078 266.946L66.4078 267.786C65.7011 267.133 64.7545 266.806 63.5678 266.806C62.6078 266.806 61.7745 267.16 61.0678 267.866C60.3745 268.56 60.0278 269.44 60.0278 270.506C60.0278 271.626 60.3811 272.526 61.0878 273.206C61.7945 273.873 62.6878 274.206 63.7678 274.206C64.9278 274.206 65.8611 273.793 66.5678 272.966ZM71.5544 267.046H67.9744V266.006H76.1744V267.046H72.5944V275.006H71.5544V267.046ZM80.6453 275.006H78.0053V266.006H79.0453V269.026H80.7853C83.1586 269.026 84.3453 270.013 84.3453 271.986C84.3453 272.92 84.0386 273.66 83.4253 274.206C82.8253 274.74 81.8986 275.006 80.6453 275.006ZM80.6053 270.006H79.0453V274.026H80.5853C81.5186 274.026 82.192 273.86 82.6053 273.526C83.032 273.193 83.2453 272.686 83.2453 272.006C83.2453 270.673 82.3653 270.006 80.6053 270.006ZM86.4534 274.346C86.4534 274.133 86.5268 273.96 86.6734 273.826C86.8334 273.68 87.0334 273.606 87.2734 273.606C87.6068 273.606 87.8868 273.766 88.1134 274.086C88.3401 274.406 88.4534 274.82 88.4534 275.326C88.4534 275.966 88.2734 276.52 87.9134 276.986C87.5534 277.453 87.0868 277.773 86.5134 277.946L86.2334 277.426C86.5801 277.306 86.8734 277.106 87.1134 276.826C87.3668 276.56 87.5201 276.233 87.5734 275.846C87.6268 275.38 87.5601 275.033 87.3734 274.806C87.3201 274.94 87.2001 275.006 87.0134 275.006C86.8668 275.006 86.7334 274.946 86.6134 274.826C86.5068 274.693 86.4534 274.533 86.4534 274.346ZM94.5678 275.006V266.006C95.0078 266.006 95.4345 266 95.8478 265.986C96.7011 265.96 97.2411 265.946 97.4678 265.946C99.9478 265.946 101.188 266.72 101.188 268.266C101.188 268.786 101.021 269.24 100.688 269.626C100.368 270 99.9278 270.233 99.3678 270.326V270.366C100.808 270.58 101.528 271.3 101.528 272.526C101.528 274.22 100.188 275.066 97.5078 275.066C97.3345 275.066 96.8078 275.053 95.9278 275.026C95.4878 275.013 95.0345 275.006 94.5678 275.006ZM97.7678 270.866H95.6078V274.046C96.6478 274.073 97.3211 274.086 97.6278 274.086C99.4945 274.086 100.428 273.533 100.428 272.426C100.428 271.386 99.5411 270.866 97.7678 270.866ZM97.5878 266.926C97.1478 266.926 96.4878 266.94 95.6078 266.966V270.006H97.9878C98.6411 270.006 99.1545 269.866 99.5278 269.586C99.9011 269.293 100.088 268.906 100.088 268.426C100.088 267.426 99.2545 266.926 97.5878 266.926ZM111.197 272.966L111.717 273.726C111.357 274.193 110.87 274.553 110.257 274.806C109.657 275.06 109.01 275.186 108.317 275.186C106.917 275.186 105.77 274.76 104.877 273.906C103.997 273.053 103.557 271.92 103.557 270.506C103.557 269.186 103.983 268.08 104.837 267.186C105.703 266.28 106.77 265.826 108.037 265.826C109.583 265.826 110.75 266.2 111.537 266.946L111.037 267.786C110.33 267.133 109.383 266.806 108.197 266.806C107.237 266.806 106.403 267.16 105.697 267.866C105.003 268.56 104.657 269.44 104.657 270.506C104.657 271.626 105.01 272.526 105.717 273.206C106.423 273.873 107.317 274.206 108.397 274.206C109.557 274.206 110.49 273.793 111.197 272.966ZM120.001 266.006H121.341L116.901 270.306L121.701 275.006H120.301L115.641 270.366L120.001 266.006ZM115.041 275.006H114.001V266.006H115.041V275.006ZM124.729 279.006H123.689V266.006H124.729V267.206C125.089 266.806 125.569 266.48 126.169 266.226C126.782 265.96 127.402 265.826 128.029 265.826C129.309 265.826 130.329 266.246 131.089 267.086C131.849 267.926 132.229 269.02 132.229 270.366C132.229 271.766 131.802 272.92 130.949 273.826C130.082 274.733 128.969 275.186 127.609 275.186C126.396 275.186 125.436 274.933 124.729 274.426V279.006ZM127.749 266.806C127.162 266.806 126.589 266.94 126.029 267.206C125.482 267.473 125.049 267.806 124.729 268.206V273.386C125.556 273.933 126.489 274.206 127.529 274.206C128.596 274.206 129.462 273.853 130.129 273.146C130.796 272.44 131.129 271.533 131.129 270.426C131.129 269.32 130.829 268.44 130.229 267.786C129.629 267.133 128.802 266.806 127.749 266.806ZM138.843 275.186C137.456 275.186 136.323 274.746 135.443 273.866C134.563 272.986 134.123 271.866 134.123 270.506C134.123 269.146 134.563 268.026 135.443 267.146C136.323 266.266 137.456 265.826 138.843 265.826C140.23 265.826 141.363 266.266 142.243 267.146C143.123 268.026 143.563 269.146 143.563 270.506C143.563 271.866 143.123 272.986 142.243 273.866C141.363 274.746 140.23 275.186 138.843 275.186ZM138.843 274.206C139.923 274.206 140.79 273.866 141.443 273.186C142.123 272.493 142.463 271.6 142.463 270.506C142.463 269.426 142.123 268.54 141.443 267.846C140.763 267.153 139.896 266.806 138.843 266.806C137.803 266.806 136.936 267.153 136.243 267.846C135.563 268.54 135.223 269.426 135.223 270.506C135.223 271.586 135.563 272.473 136.243 273.166C136.923 273.86 137.79 274.206 138.843 274.206ZM153.151 267.506L147.151 275.006H146.111V266.006H147.151V273.506L153.151 266.006H154.191V275.006H153.151V267.506ZM147.491 261.326H148.431C148.431 261.82 148.604 262.24 148.951 262.586C149.297 262.92 149.744 263.086 150.291 263.086C150.811 263.086 151.237 262.92 151.571 262.586C151.904 262.24 152.071 261.82 152.071 261.326H153.011C153.011 262.06 152.757 262.673 152.251 263.166C151.744 263.646 151.091 263.886 150.291 263.886C149.437 263.886 148.757 263.653 148.251 263.186C147.744 262.706 147.491 262.086 147.491 261.326ZM159.601 267.046H156.021V266.006H164.221V267.046H160.641V275.006H159.601V267.046ZM172.86 273.106L173.2 273.906C172.386 274.76 171.28 275.186 169.88 275.186C168.44 275.186 167.286 274.76 166.42 273.906C165.54 273.053 165.1 271.92 165.1 270.506C165.1 269.146 165.5 268.026 166.3 267.146C167.113 266.266 168.233 265.826 169.66 265.826C170.82 265.826 171.793 266.2 172.58 266.946C173.353 267.68 173.74 268.66 173.74 269.886C173.74 270.206 173.72 270.486 173.68 270.726H166.26C166.3 271.806 166.653 272.66 167.32 273.286C167.986 273.9 168.86 274.206 169.94 274.206C171.193 274.206 172.166 273.84 172.86 273.106ZM169.56 266.806C168.6 266.806 167.82 267.086 167.22 267.646C166.633 268.206 166.293 268.946 166.2 269.866H172.68C172.666 268.92 172.38 268.173 171.82 267.626C171.26 267.08 170.506 266.806 169.56 266.806ZM44.3995 303.006H43.3595V294.986H37.6195V303.006H36.5795V294.006H44.3995V303.006ZM51.6361 303.186C50.2494 303.186 49.1161 302.746 48.2361 301.866C47.3561 300.986 46.9161 299.866 46.9161 298.506C46.9161 297.146 47.3561 296.026 48.2361 295.146C49.1161 294.266 50.2494 293.826 51.6361 293.826C53.0227 293.826 54.1561 294.266 55.0361 295.146C55.9161 296.026 56.3561 297.146 56.3561 298.506C56.3561 299.866 55.9161 300.986 55.0361 301.866C54.1561 302.746 53.0227 303.186 51.6361 303.186ZM51.6361 302.206C52.7161 302.206 53.5827 301.866 54.2361 301.186C54.9161 300.493 55.2561 299.6 55.2561 298.506C55.2561 297.426 54.9161 296.54 54.2361 295.846C53.5561 295.153 52.6894 294.806 51.6361 294.806C50.5961 294.806 49.7294 295.153 49.0361 295.846C48.3561 296.54 48.0161 297.426 48.0161 298.506C48.0161 299.586 48.3561 300.473 49.0361 301.166C49.7161 301.86 50.5827 302.206 51.6361 302.206ZM58.1131 305.286H57.1331V302.026H58.2531C58.5998 301.586 58.9064 300.873 59.1731 299.886C59.4531 298.9 59.6331 297.786 59.7131 296.546L59.8531 294.006H65.5931V302.026H67.0931V305.286H66.1131V303.006H58.1131V305.286ZM60.8331 294.986L60.7131 296.946C60.6064 298.173 60.4198 299.24 60.1531 300.146C59.8998 301.026 59.6331 301.653 59.3531 302.026H64.5531V294.986H60.8331ZM70.0609 307.006H69.0209V294.006H70.0609V295.206C70.4209 294.806 70.9009 294.48 71.5009 294.226C72.1143 293.96 72.7343 293.826 73.3609 293.826C74.6409 293.826 75.6609 294.246 76.4209 295.086C77.1809 295.926 77.5609 297.02 77.5609 298.366C77.5609 299.766 77.1343 300.92 76.2809 301.826C75.4143 302.733 74.3009 303.186 72.9409 303.186C71.7276 303.186 70.7676 302.933 70.0609 302.426V307.006ZM73.0809 294.806C72.4943 294.806 71.9209 294.94 71.3609 295.206C70.8143 295.473 70.3809 295.806 70.0609 296.206V301.386C70.8876 301.933 71.8209 302.206 72.8609 302.206C73.9276 302.206 74.7943 301.853 75.4609 301.146C76.1276 300.44 76.4609 299.533 76.4609 298.426C76.4609 297.32 76.1609 296.44 75.5609 295.786C74.9609 295.133 74.1343 294.806 73.0809 294.806ZM86.3236 294.006H87.5036L83.8636 303.006C83.2102 304.593 82.6436 305.646 82.1636 306.166C81.6836 306.726 81.1236 307.006 80.4836 307.006C79.9902 307.006 79.4769 306.853 78.9436 306.546L79.2836 305.746C79.6969 305.946 80.0502 306.046 80.3436 306.046C80.7969 306.046 81.2036 305.846 81.5636 305.446C81.9236 305.06 82.2969 304.406 82.6836 303.486L82.8836 303.006L78.4436 294.006H79.6836L82.7636 300.366L83.4036 301.766C83.4169 301.713 83.5836 301.233 83.9036 300.326L86.3236 294.006ZM94.6725 294.006H95.7125V303.006H94.6725V299.206C93.9258 299.713 93.0258 299.966 91.9725 299.966C89.8658 299.966 88.8125 298.84 88.8125 296.586V294.006H89.9125V296.506C89.9125 298.16 90.6925 298.986 92.2525 298.986C93.1991 298.986 94.0058 298.746 94.6725 298.266V294.006ZM106.785 303.006H105.745V298.926H99.9047V303.006H98.8647V294.006H99.9047V297.946H105.745V294.006H106.785V303.006ZM112.419 303.006H109.939V294.006H110.979V297.026H112.539C114.912 297.026 116.099 298.013 116.099 299.986C116.099 300.92 115.799 301.66 115.199 302.206C114.599 302.74 113.672 303.006 112.419 303.006ZM112.359 298.006H110.979V302.026H112.339C113.286 302.026 113.966 301.86 114.379 301.526C114.792 301.193 114.999 300.686 114.999 300.006C114.999 298.673 114.119 298.006 112.359 298.006ZM119.199 303.006H118.159V294.006H119.199V303.006ZM123.401 303.006H122.361V294.006H123.341L127.081 299.026L130.681 294.006H131.621V303.006H130.581V295.586L127.081 300.446H127.021L123.401 295.586V303.006ZM141.842 295.506L135.842 303.006H134.802V294.006H135.842V301.506L141.842 294.006H142.882V303.006H141.842V295.506ZM43.5795 328.966L44.0995 329.726C43.7395 330.193 43.2528 330.553 42.6395 330.806C42.0395 331.06 41.3928 331.186 40.6995 331.186C39.2995 331.186 38.1528 330.76 37.2595 329.906C36.3795 329.053 35.9395 327.92 35.9395 326.506C35.9395 325.186 36.3662 324.08 37.2195 323.186C38.0862 322.28 39.1528 321.826 40.4195 321.826C41.9662 321.826 43.1328 322.2 43.9195 322.946L43.4195 323.786C42.7128 323.133 41.7662 322.806 40.5795 322.806C39.6195 322.806 38.7862 323.16 38.0795 323.866C37.3862 324.56 37.0395 325.44 37.0395 326.506C37.0395 327.626 37.3928 328.526 38.0995 329.206C38.8062 329.873 39.6995 330.206 40.7795 330.206C41.9395 330.206 42.8728 329.793 43.5795 328.966ZM47.4242 335.006H46.3842V322.006H47.4242V323.206C47.7842 322.806 48.2642 322.48 48.8642 322.226C49.4775 321.96 50.0975 321.826 50.7242 321.826C52.0042 321.826 53.0242 322.246 53.7842 323.086C54.5442 323.926 54.9242 325.02 54.9242 326.366C54.9242 327.766 54.4975 328.92 53.6442 329.826C52.7775 330.733 51.6642 331.186 50.3042 331.186C49.0909 331.186 48.1309 330.933 47.4242 330.426V335.006ZM50.4442 322.806C49.8575 322.806 49.2842 322.94 48.7242 323.206C48.1775 323.473 47.7442 323.806 47.4242 324.206V329.386C48.2509 329.933 49.1842 330.206 50.2242 330.206C51.2909 330.206 52.1575 329.853 52.8242 329.146C53.4909 328.44 53.8242 327.533 53.8242 326.426C53.8242 325.32 53.5242 324.44 52.9242 323.786C52.3242 323.133 51.4975 322.806 50.4442 322.806ZM64.5784 329.106L64.9184 329.906C64.1051 330.76 62.9984 331.186 61.5984 331.186C60.1584 331.186 59.0051 330.76 58.1384 329.906C57.2584 329.053 56.8184 327.92 56.8184 326.506C56.8184 325.146 57.2184 324.026 58.0184 323.146C58.8318 322.266 59.9518 321.826 61.3784 321.826C62.5384 321.826 63.5118 322.2 64.2984 322.946C65.0718 323.68 65.4584 324.66 65.4584 325.886C65.4584 326.206 65.4384 326.486 65.3984 326.726H57.9784C58.0184 327.806 58.3718 328.66 59.0384 329.286C59.7051 329.9 60.5784 330.206 61.6584 330.206C62.9118 330.206 63.8851 329.84 64.5784 329.106ZM61.2784 322.806C60.3184 322.806 59.5384 323.086 58.9384 323.646C58.3518 324.206 58.0118 324.946 57.9184 325.866H64.3984C64.3851 324.92 64.0984 324.173 63.5384 323.626C62.9784 323.08 62.2251 322.806 61.2784 322.806ZM67.1561 333.286H66.1761V330.026H67.2961C67.6427 329.586 67.9494 328.873 68.2161 327.886C68.4961 326.9 68.6761 325.786 68.7561 324.546L68.8961 322.006H74.6361V330.026H76.1361V333.286H75.1561V331.006H67.1561V333.286ZM69.8761 322.986L69.7561 324.946C69.6494 326.173 69.4627 327.24 69.1961 328.146C68.9427 329.026 68.6761 329.653 68.3961 330.026H73.5961V322.986H69.8761ZM85.0639 328.966L85.5839 329.726C85.2239 330.193 84.7372 330.553 84.1239 330.806C83.5239 331.06 82.8772 331.186 82.1839 331.186C80.7839 331.186 79.6372 330.76 78.7439 329.906C77.8639 329.053 77.4239 327.92 77.4239 326.506C77.4239 325.186 77.8506 324.08 78.7039 323.186C79.5706 322.28 80.6372 321.826 81.9039 321.826C83.4506 321.826 84.6172 322.2 85.4039 322.946L84.9039 323.786C84.1972 323.133 83.2506 322.806 82.0639 322.806C81.1039 322.806 80.2706 323.16 79.5639 323.866C78.8706 324.56 78.5239 325.44 78.5239 326.506C78.5239 327.626 78.8772 328.526 79.5839 329.206C80.2906 329.873 81.1839 330.206 82.2639 330.206C83.4239 330.206 84.3572 329.793 85.0639 328.966ZM90.0504 323.046H86.4704V322.006H94.6704V323.046H91.0904V331.006H90.0504V323.046ZM96.5014 331.006V322.006C96.9414 322.006 97.3681 322 97.7814 321.986C98.6347 321.96 99.1747 321.946 99.4014 321.946C101.881 321.946 103.121 322.72 103.121 324.266C103.121 324.786 102.955 325.24 102.621 325.626C102.301 326 101.861 326.233 101.301 326.326V326.366C102.741 326.58 103.461 327.3 103.461 328.526C103.461 330.22 102.121 331.066 99.4414 331.066C99.2681 331.066 98.7414 331.053 97.8614 331.026C97.4214 331.013 96.9681 331.006 96.5014 331.006ZM99.7014 326.866H97.5414V330.046C98.5814 330.073 99.2547 330.086 99.5614 330.086C101.428 330.086 102.361 329.533 102.361 328.426C102.361 327.386 101.475 326.866 99.7014 326.866ZM99.5214 322.926C99.0814 322.926 98.4214 322.94 97.5414 322.966V326.006H99.9214C100.575 326.006 101.088 325.866 101.461 325.586C101.835 325.293 102.021 324.906 102.021 324.426C102.021 323.426 101.188 322.926 99.5214 322.926ZM106.41 323.506L106.13 322.646C107.024 322.1 107.977 321.826 108.99 321.826C110.164 321.826 111.01 322.12 111.53 322.706C112.064 323.293 112.33 324.2 112.33 325.426V331.006H111.29V329.626C110.557 330.626 109.53 331.126 108.21 331.126C107.37 331.126 106.697 330.886 106.19 330.406C105.684 329.913 105.43 329.26 105.43 328.446C105.43 327.566 105.75 326.88 106.39 326.386C107.017 325.893 107.837 325.646 108.85 325.646C109.864 325.646 110.677 325.873 111.29 326.326C111.29 325.393 111.224 324.68 111.09 324.186C110.984 323.706 110.764 323.366 110.43 323.166C110.11 322.966 109.61 322.846 108.93 322.806C108.117 322.806 107.277 323.04 106.41 323.506ZM108.53 330.146C109.65 330.146 110.57 329.673 111.29 328.726V327.226C110.637 326.746 109.857 326.506 108.95 326.506C108.27 326.506 107.697 326.673 107.23 327.006C106.764 327.34 106.53 327.8 106.53 328.386C106.53 328.92 106.717 329.346 107.09 329.666C107.464 329.986 107.944 330.146 108.53 330.146ZM116.35 331.006H115.31V322.006H116.29L120.03 327.026L123.63 322.006H124.57V331.006H123.53V323.586L120.03 328.446H119.97L116.35 323.586V331.006ZM134.791 323.506L128.791 331.006H127.751V322.006H128.791V329.506L134.791 322.006H135.831V331.006H134.791V323.506ZM138.482 330.246C138.482 330.046 138.555 329.88 138.702 329.746C138.862 329.6 139.055 329.526 139.282 329.526C139.482 329.526 139.649 329.6 139.782 329.746C139.929 329.893 140.002 330.06 140.002 330.246C140.002 330.46 139.929 330.646 139.782 330.806C139.649 330.966 139.482 331.046 139.282 331.046C139.055 331.046 138.862 330.966 138.702 330.806C138.555 330.646 138.482 330.46 138.482 330.246ZM45.1595 387.006H37.2195V373.006H44.9595V374.046H38.3195V379.386H44.3595V380.426H38.3195V385.966H45.1595V387.006ZM55.0834 384.966L55.6034 385.726C55.2434 386.193 54.7568 386.553 54.1434 386.806C53.5434 387.06 52.8968 387.186 52.2034 387.186C50.8034 387.186 49.6568 386.76 48.7634 385.906C47.8834 385.053 47.4434 383.92 47.4434 382.506C47.4434 381.186 47.8701 380.08 48.7234 379.186C49.5901 378.28 50.6568 377.826 51.9234 377.826C53.4701 377.826 54.6368 378.2 55.4234 378.946L54.9234 379.786C54.2168 379.133 53.2701 378.806 52.0834 378.806C51.1234 378.806 50.2901 379.16 49.5834 379.866C48.8901 380.56 48.5434 381.44 48.5434 382.506C48.5434 383.626 48.8968 384.526 49.6034 385.206C50.3101 385.873 51.2034 386.206 52.2834 386.206C53.4434 386.206 54.3768 385.793 55.0834 384.966ZM65.0142 387.006H63.9742V379.046H60.1742L60.0542 381.006C59.8809 383.54 59.4609 385.22 58.7942 386.046C58.2609 386.74 57.6009 387.086 56.8142 387.086L56.7342 386.066C57.0809 386.066 57.4075 385.906 57.7142 385.586C58.4475 384.906 58.8942 383.313 59.0542 380.806L59.1942 378.006H65.0142V387.006ZM75.2211 379.506L69.2211 387.006H68.1811V378.006H69.2211V385.506L75.2211 378.006H76.2611V387.006H75.2211V379.506ZM86.8986 387.186C86.2852 387.186 85.6052 387.073 84.8586 386.846C84.1519 386.633 83.6519 386.346 83.3586 385.986L83.8986 385.186C84.2452 385.506 84.6786 385.76 85.1986 385.946C85.7319 386.12 86.2452 386.206 86.7386 386.206C87.5786 386.206 88.2519 386.04 88.7586 385.706C89.2652 385.373 89.5186 384.926 89.5186 384.366C89.5186 383.9 89.3319 383.533 88.9586 383.266C88.5852 383 88.0786 382.866 87.4386 382.866H85.9186V382.006H87.3386C87.8452 382.006 88.2786 381.846 88.6386 381.526C88.9986 381.206 89.1786 380.82 89.1786 380.366C89.1786 379.86 88.9786 379.473 88.5786 379.206C88.1786 378.94 87.6186 378.806 86.8986 378.806C85.8452 378.806 84.9052 379.14 84.0786 379.806L83.6586 379.006C84.4186 378.22 85.5452 377.826 87.0386 377.826C88.0652 377.826 88.8586 378.04 89.4186 378.466C89.9919 378.88 90.2786 379.453 90.2786 380.186C90.2786 381.24 89.7386 381.96 88.6586 382.346V382.386C89.2719 382.44 89.7519 382.666 90.0986 383.066C90.4452 383.453 90.6186 383.933 90.6186 384.506C90.6186 385.333 90.2786 385.986 89.5986 386.466C88.9186 386.946 88.0186 387.186 86.8986 387.186ZM93.5587 379.506L93.2787 378.646C94.1721 378.1 95.1254 377.826 96.1387 377.826C97.3121 377.826 98.1587 378.12 98.6787 378.706C99.2121 379.293 99.4787 380.2 99.4787 381.426V387.006H98.4387V385.626C97.7054 386.626 96.6787 387.126 95.3587 387.126C94.5187 387.126 93.8454 386.886 93.3387 386.406C92.8321 385.913 92.5787 385.26 92.5787 384.446C92.5787 383.566 92.8987 382.88 93.5387 382.386C94.1654 381.893 94.9854 381.646 95.9987 381.646C97.0121 381.646 97.8254 381.873 98.4387 382.326C98.4387 381.393 98.3721 380.68 98.2387 380.186C98.1321 379.706 97.9121 379.366 97.5787 379.166C97.2587 378.966 96.7587 378.846 96.0787 378.806C95.2654 378.806 94.4254 379.04 93.5587 379.506ZM95.6787 386.146C96.7987 386.146 97.7187 385.673 98.4387 384.726V383.226C97.7854 382.746 97.0054 382.506 96.0987 382.506C95.4187 382.506 94.8454 382.673 94.3787 383.006C93.9121 383.34 93.6787 383.8 93.6787 384.386C93.6787 384.92 93.8654 385.346 94.2387 385.666C94.6121 385.986 95.0921 386.146 95.6787 386.146ZM108.458 378.006H109.798L105.358 382.306L110.158 387.006H108.758L104.098 382.366L108.458 378.006ZM103.498 387.006H102.458V378.006H103.498V387.006ZM113.186 391.006H112.146V378.006H113.186V379.206C113.546 378.806 114.026 378.48 114.626 378.226C115.239 377.96 115.859 377.826 116.486 377.826C117.766 377.826 118.786 378.246 119.546 379.086C120.306 379.926 120.686 381.02 120.686 382.366C120.686 383.766 120.259 384.92 119.406 385.826C118.539 386.733 117.426 387.186 116.066 387.186C114.853 387.186 113.893 386.933 113.186 386.426V391.006ZM116.206 378.806C115.619 378.806 115.046 378.94 114.486 379.206C113.939 379.473 113.506 379.806 113.186 380.206V385.386C114.013 385.933 114.946 386.206 115.986 386.206C117.053 386.206 117.919 385.853 118.586 385.146C119.253 384.44 119.586 383.533 119.586 382.426C119.586 381.32 119.286 380.44 118.686 379.786C118.086 379.133 117.259 378.806 116.206 378.806ZM125.7 387.006H123.22V378.006H124.26V381.026H125.82C128.193 381.026 129.38 382.013 129.38 383.986C129.38 384.92 129.08 385.66 128.48 386.206C127.88 386.74 126.953 387.006 125.7 387.006ZM125.64 382.006H124.26V386.026H125.62C126.567 386.026 127.247 385.86 127.66 385.526C128.073 385.193 128.28 384.686 128.28 384.006C128.28 382.673 127.4 382.006 125.64 382.006ZM132.48 387.006H131.44V378.006H132.48V387.006ZM137.902 379.046H134.322V378.006H142.522V379.046H138.942V387.006H137.902V379.046ZM148.12 387.186C146.734 387.186 145.6 386.746 144.72 385.866C143.84 384.986 143.4 383.866 143.4 382.506C143.4 381.146 143.84 380.026 144.72 379.146C145.6 378.266 146.734 377.826 148.12 377.826C149.507 377.826 150.64 378.266 151.52 379.146C152.4 380.026 152.84 381.146 152.84 382.506C152.84 383.866 152.4 384.986 151.52 385.866C150.64 386.746 149.507 387.186 148.12 387.186ZM148.12 386.206C149.2 386.206 150.067 385.866 150.72 385.186C151.4 384.493 151.74 383.6 151.74 382.506C151.74 381.426 151.4 380.54 150.72 379.846C150.04 379.153 149.174 378.806 148.12 378.806C147.08 378.806 146.214 379.153 145.52 379.846C144.84 380.54 144.5 381.426 144.5 382.506C144.5 383.586 144.84 384.473 145.52 385.166C146.2 385.86 147.067 386.206 148.12 386.206ZM43.5795 412.966L44.0995 413.726C43.7395 414.193 43.2528 414.553 42.6395 414.806C42.0395 415.06 41.3928 415.186 40.6995 415.186C39.2995 415.186 38.1528 414.76 37.2595 413.906C36.3795 413.053 35.9395 411.92 35.9395 410.506C35.9395 409.186 36.3662 408.08 37.2195 407.186C38.0862 406.28 39.1528 405.826 40.4195 405.826C41.9662 405.826 43.1328 406.2 43.9195 406.946L43.4195 407.786C42.7128 407.133 41.7662 406.806 40.5795 406.806C39.6195 406.806 38.7862 407.16 38.0795 407.866C37.3862 408.56 37.0395 409.44 37.0395 410.506C37.0395 411.626 37.3928 412.526 38.0995 413.206C38.8062 413.873 39.6995 414.206 40.7795 414.206C41.9395 414.206 42.8728 413.793 43.5795 412.966ZM53.0159 413.106L53.3559 413.906C52.5426 414.76 51.4359 415.186 50.0359 415.186C48.5959 415.186 47.4426 414.76 46.5759 413.906C45.6959 413.053 45.2559 411.92 45.2559 410.506C45.2559 409.146 45.6559 408.026 46.4559 407.146C47.2693 406.266 48.3893 405.826 49.8159 405.826C50.9759 405.826 51.9493 406.2 52.7359 406.946C53.5093 407.68 53.8959 408.66 53.8959 409.886C53.8959 410.206 53.8759 410.486 53.8359 410.726H46.4159C46.4559 411.806 46.8093 412.66 47.4759 413.286C48.1426 413.9 49.0159 414.206 50.0959 414.206C51.3493 414.206 52.3226 413.84 53.0159 413.106ZM49.7159 406.806C48.7559 406.806 47.9759 407.086 47.3759 407.646C46.7893 408.206 46.4493 408.946 46.3559 409.866H52.8359C52.8226 408.92 52.5359 408.173 51.9759 407.626C51.4159 407.08 50.6626 406.806 49.7159 406.806ZM57.4242 419.006H56.3842V406.006H57.4242V407.206C57.7842 406.806 58.2642 406.48 58.8642 406.226C59.4775 405.96 60.0975 405.826 60.7242 405.826C62.0042 405.826 63.0242 406.246 63.7842 407.086C64.5442 407.926 64.9242 409.02 64.9242 410.366C64.9242 411.766 64.4975 412.92 63.6442 413.826C62.7775 414.733 61.6642 415.186 60.3042 415.186C59.0909 415.186 58.1309 414.933 57.4242 414.426V419.006ZM60.4442 406.806C59.8575 406.806 59.2842 406.94 58.7242 407.206C58.1775 407.473 57.7442 407.806 57.4242 408.206V413.386C58.2509 413.933 59.1842 414.206 60.2242 414.206C61.2909 414.206 62.1575 413.853 62.8242 413.146C63.4909 412.44 63.8242 411.533 63.8242 410.426C63.8242 409.32 63.5242 408.44 62.9242 407.786C62.3242 407.133 61.4975 406.806 60.4442 406.806ZM70.0984 415.006H67.4584V406.006H68.4984V409.026H70.2384C72.6118 409.026 73.7984 410.013 73.7984 411.986C73.7984 412.92 73.4918 413.66 72.8784 414.206C72.2784 414.74 71.3518 415.006 70.0984 415.006ZM70.0584 410.006H68.4984V414.026H70.0384C70.9718 414.026 71.6451 413.86 72.0584 413.526C72.4851 413.193 72.6984 412.686 72.6984 412.006C72.6984 410.673 71.8184 410.006 70.0584 410.006ZM83.1526 413.106L83.4926 413.906C82.6793 414.76 81.5726 415.186 80.1726 415.186C78.7326 415.186 77.5793 414.76 76.7126 413.906C75.8326 413.053 75.3926 411.92 75.3926 410.506C75.3926 409.146 75.7926 408.026 76.5926 407.146C77.406 406.266 78.526 405.826 79.9526 405.826C81.1126 405.826 82.086 406.2 82.8726 406.946C83.646 407.68 84.0326 408.66 84.0326 409.886C84.0326 410.206 84.0126 410.486 83.9726 410.726H76.5526C76.5926 411.806 76.946 412.66 77.6126 413.286C78.2793 413.9 79.1526 414.206 80.2326 414.206C81.486 414.206 82.4593 413.84 83.1526 413.106ZM79.8526 406.806C78.8926 406.806 78.1126 407.086 77.5126 407.646C76.926 408.206 76.586 408.946 76.4926 409.866H82.9726C82.9593 408.92 82.6726 408.173 82.1126 407.626C81.5526 407.08 80.7993 406.806 79.8526 406.806ZM89.3009 415.186C88.6876 415.186 88.0076 415.073 87.2609 414.846C86.5543 414.633 86.0543 414.346 85.7609 413.986L86.3009 413.186C86.6476 413.506 87.0809 413.76 87.6009 413.946C88.1343 414.12 88.6476 414.206 89.1409 414.206C89.9809 414.206 90.6543 414.04 91.1609 413.706C91.6676 413.373 91.9209 412.926 91.9209 412.366C91.9209 411.9 91.7343 411.533 91.3609 411.266C90.9876 411 90.4809 410.866 89.8409 410.866H88.3209V410.006H89.7409C90.2476 410.006 90.6809 409.846 91.0409 409.526C91.4009 409.206 91.5809 408.82 91.5809 408.366C91.5809 407.86 91.3809 407.473 90.9809 407.206C90.5809 406.94 90.0209 406.806 89.3009 406.806C88.2476 406.806 87.3076 407.14 86.4809 407.806L86.0609 407.006C86.8209 406.22 87.9476 405.826 89.4409 405.826C90.4676 405.826 91.2609 406.04 91.8209 406.466C92.3943 406.88 92.6809 407.453 92.6809 408.186C92.6809 409.24 92.1409 409.96 91.0609 410.346V410.386C91.6743 410.44 92.1543 410.666 92.5009 411.066C92.8476 411.453 93.0209 411.933 93.0209 412.506C93.0209 413.333 92.6809 413.986 92.0009 414.466C91.3209 414.946 90.4209 415.186 89.3009 415.186ZM103.601 415.006H102.561V410.926H96.7211V415.006H95.6811V406.006H96.7211V409.946H102.561V406.006H103.601V415.006ZM110.835 415.186C109.449 415.186 108.315 414.746 107.435 413.866C106.555 412.986 106.115 411.866 106.115 410.506C106.115 409.146 106.555 408.026 107.435 407.146C108.315 406.266 109.449 405.826 110.835 405.826C112.222 405.826 113.355 406.266 114.235 407.146C115.115 408.026 115.555 409.146 115.555 410.506C115.555 411.866 115.115 412.986 114.235 413.866C113.355 414.746 112.222 415.186 110.835 415.186ZM110.835 414.206C111.915 414.206 112.782 413.866 113.435 413.186C114.115 412.493 114.455 411.6 114.455 410.506C114.455 409.426 114.115 408.54 113.435 407.846C112.755 407.153 111.889 406.806 110.835 406.806C109.795 406.806 108.929 407.153 108.235 407.846C107.555 408.54 107.215 409.426 107.215 410.506C107.215 411.586 107.555 412.473 108.235 413.166C108.915 413.86 109.782 414.206 110.835 414.206ZM117.723 414.346C117.723 414.133 117.796 413.96 117.943 413.826C118.103 413.68 118.303 413.606 118.543 413.606C118.876 413.606 119.156 413.766 119.383 414.086C119.61 414.406 119.723 414.82 119.723 415.326C119.723 415.966 119.543 416.52 119.183 416.986C118.823 417.453 118.356 417.773 117.783 417.946L117.503 417.426C117.85 417.306 118.143 417.106 118.383 416.826C118.636 416.56 118.79 416.233 118.843 415.846C118.896 415.38 118.83 415.033 118.643 414.806C118.59 414.94 118.47 415.006 118.283 415.006C118.136 415.006 118.003 414.946 117.883 414.826C117.776 414.693 117.723 414.533 117.723 414.346ZM128.617 415.186C128.004 415.186 127.324 415.073 126.577 414.846C125.871 414.633 125.371 414.346 125.077 413.986L125.617 413.186C125.964 413.506 126.397 413.76 126.917 413.946C127.451 414.12 127.964 414.206 128.457 414.206C129.297 414.206 129.971 414.04 130.477 413.706C130.984 413.373 131.237 412.926 131.237 412.366C131.237 411.9 131.051 411.533 130.677 411.266C130.304 411 129.797 410.866 129.157 410.866H127.637V410.006H129.057C129.564 410.006 129.997 409.846 130.357 409.526C130.717 409.206 130.897 408.82 130.897 408.366C130.897 407.86 130.697 407.473 130.297 407.206C129.897 406.94 129.337 406.806 128.617 406.806C127.564 406.806 126.624 407.14 125.797 407.806L125.377 407.006C126.137 406.22 127.264 405.826 128.757 405.826C129.784 405.826 130.577 406.04 131.137 406.466C131.711 406.88 131.997 407.453 131.997 408.186C131.997 409.24 131.457 409.96 130.377 410.346V410.386C130.991 410.44 131.471 410.666 131.817 411.066C132.164 411.453 132.337 411.933 132.337 412.506C132.337 413.333 131.997 413.986 131.317 414.466C130.637 414.946 129.737 415.186 128.617 415.186ZM135.277 407.506L134.997 406.646C135.891 406.1 136.844 405.826 137.857 405.826C139.031 405.826 139.877 406.12 140.397 406.706C140.931 407.293 141.197 408.2 141.197 409.426V415.006H140.157V413.626C139.424 414.626 138.397 415.126 137.077 415.126C136.237 415.126 135.564 414.886 135.057 414.406C134.551 413.913 134.297 413.26 134.297 412.446C134.297 411.566 134.617 410.88 135.257 410.386C135.884 409.893 136.704 409.646 137.717 409.646C138.731 409.646 139.544 409.873 140.157 410.326C140.157 409.393 140.091 408.68 139.957 408.186C139.851 407.706 139.631 407.366 139.297 407.166C138.977 406.966 138.477 406.846 137.797 406.806C136.984 406.806 136.144 407.04 135.277 407.506ZM137.397 414.146C138.517 414.146 139.437 413.673 140.157 412.726V411.226C139.504 410.746 138.724 410.506 137.817 410.506C137.137 410.506 136.564 410.673 136.097 411.006C135.631 411.34 135.397 411.8 135.397 412.386C135.397 412.92 135.584 413.346 135.957 413.666C136.331 413.986 136.811 414.146 137.397 414.146ZM144.177 415.006V406.006C144.617 406.006 145.044 406 145.457 405.986C146.311 405.96 146.851 405.946 147.077 405.946C149.557 405.946 150.797 406.72 150.797 408.266C150.797 408.786 150.631 409.24 150.297 409.626C149.977 410 149.537 410.233 148.977 410.326V410.366C150.417 410.58 151.137 411.3 151.137 412.526C151.137 414.22 149.797 415.066 147.117 415.066C146.944 415.066 146.417 415.053 145.537 415.026C145.097 415.013 144.644 415.006 144.177 415.006ZM147.377 410.866H145.217V414.046C146.257 414.073 146.931 414.086 147.237 414.086C149.104 414.086 150.037 413.533 150.037 412.426C150.037 411.386 149.151 410.866 147.377 410.866ZM147.197 406.926C146.757 406.926 146.097 406.94 145.217 406.966V410.006H147.597C148.251 410.006 148.764 409.866 149.137 409.586C149.511 409.293 149.697 408.906 149.697 408.426C149.697 407.426 148.864 406.926 147.197 406.926ZM154.086 407.506L153.806 406.646C154.699 406.1 155.653 405.826 156.666 405.826C157.839 405.826 158.686 406.12 159.206 406.706C159.739 407.293 160.006 408.2 160.006 409.426V415.006H158.966V413.626C158.233 414.626 157.206 415.126 155.886 415.126C155.046 415.126 154.373 414.886 153.866 414.406C153.359 413.913 153.106 413.26 153.106 412.446C153.106 411.566 153.426 410.88 154.066 410.386C154.693 409.893 155.513 409.646 156.526 409.646C157.539 409.646 158.353 409.873 158.966 410.326C158.966 409.393 158.899 408.68 158.766 408.186C158.659 407.706 158.439 407.366 158.106 407.166C157.786 406.966 157.286 406.846 156.606 406.806C155.793 406.806 154.953 407.04 154.086 407.506ZM156.206 414.146C157.326 414.146 158.246 413.673 158.966 412.726V411.226C158.313 410.746 157.533 410.506 156.626 410.506C155.946 410.506 155.373 410.673 154.906 411.006C154.439 411.34 154.206 411.8 154.206 412.386C154.206 412.92 154.393 413.346 154.766 413.666C155.139 413.986 155.619 414.146 156.206 414.146ZM164.026 419.006H162.986V406.006H164.026V407.206C164.386 406.806 164.866 406.48 165.466 406.226C166.079 405.96 166.699 405.826 167.326 405.826C168.606 405.826 169.626 406.246 170.386 407.086C171.146 407.926 171.526 409.02 171.526 410.366C171.526 411.766 171.099 412.92 170.246 413.826C169.379 414.733 168.266 415.186 166.906 415.186C165.692 415.186 164.732 414.933 164.026 414.426V419.006ZM167.046 406.806C166.459 406.806 165.886 406.94 165.326 407.206C164.779 407.473 164.346 407.806 164.026 408.206V413.386C164.852 413.933 165.786 414.206 166.826 414.206C167.892 414.206 168.759 413.853 169.426 413.146C170.092 412.44 170.426 411.533 170.426 410.426C170.426 409.32 170.126 408.44 169.526 407.786C168.926 407.133 168.099 406.806 167.046 406.806ZM181.18 413.106L181.52 413.906C180.707 414.76 179.6 415.186 178.2 415.186C176.76 415.186 175.607 414.76 174.74 413.906C173.86 413.053 173.42 411.92 173.42 410.506C173.42 409.146 173.82 408.026 174.62 407.146C175.433 406.266 176.553 405.826 177.98 405.826C179.14 405.826 180.113 406.2 180.9 406.946C181.673 407.68 182.06 408.66 182.06 409.886C182.06 410.206 182.04 410.486 182 410.726H174.58C174.62 411.806 174.973 412.66 175.64 413.286C176.307 413.9 177.18 414.206 178.26 414.206C179.513 414.206 180.487 413.84 181.18 413.106ZM177.88 406.806C176.92 406.806 176.14 407.086 175.54 407.646C174.953 408.206 174.613 408.946 174.52 409.866H181C180.987 408.92 180.7 408.173 180.14 407.626C179.58 407.08 178.827 406.806 177.88 406.806ZM192.468 415.006H191.428V410.926H185.588V415.006H184.548V406.006H185.588V409.946H191.428V406.006H192.468V415.006ZM199.702 415.186C198.316 415.186 197.182 414.746 196.302 413.866C195.422 412.986 194.982 411.866 194.982 410.506C194.982 409.146 195.422 408.026 196.302 407.146C197.182 406.266 198.316 405.826 199.702 405.826C201.089 405.826 202.222 406.266 203.102 407.146C203.982 408.026 204.422 409.146 204.422 410.506C204.422 411.866 203.982 412.986 203.102 413.866C202.222 414.746 201.089 415.186 199.702 415.186ZM199.702 414.206C200.782 414.206 201.649 413.866 202.302 413.186C202.982 412.493 203.322 411.6 203.322 410.506C203.322 409.426 202.982 408.54 202.302 407.846C201.622 407.153 200.756 406.806 199.702 406.806C198.662 406.806 197.796 407.153 197.102 407.846C196.422 408.54 196.082 409.426 196.082 410.506C196.082 411.586 196.422 412.473 197.102 413.166C197.782 413.86 198.649 414.206 199.702 414.206ZM206.59 414.346C206.59 414.133 206.663 413.96 206.81 413.826C206.97 413.68 207.17 413.606 207.41 413.606C207.743 413.606 208.023 413.766 208.25 414.086C208.477 414.406 208.59 414.82 208.59 415.326C208.59 415.966 208.41 416.52 208.05 416.986C207.69 417.453 207.223 417.773 206.65 417.946L206.37 417.426C206.717 417.306 207.01 417.106 207.25 416.826C207.503 416.56 207.657 416.233 207.71 415.846C207.763 415.38 207.697 415.033 207.51 414.806C207.457 414.94 207.337 415.006 207.15 415.006C207.003 415.006 206.87 414.946 206.75 414.826C206.643 414.693 206.59 414.533 206.59 414.346ZM44.4995 443.006H43.4595V438.926H37.6195V443.006H36.5795V434.006H37.6195V437.946H43.4595V434.006H44.4995V443.006ZM47.9337 435.506L47.6537 434.646C48.5471 434.1 49.5004 433.826 50.5137 433.826C51.6871 433.826 52.5337 434.12 53.0537 434.706C53.5871 435.293 53.8537 436.2 53.8537 437.426V443.006H52.8137V441.626C52.0804 442.626 51.0537 443.126 49.7337 443.126C48.8937 443.126 48.2204 442.886 47.7137 442.406C47.2071 441.913 46.9537 441.26 46.9537 440.446C46.9537 439.566 47.2737 438.88 47.9137 438.386C48.5404 437.893 49.3604 437.646 50.3737 437.646C51.3871 437.646 52.2004 437.873 52.8137 438.326C52.8137 437.393 52.7471 436.68 52.6137 436.186C52.5071 435.706 52.2871 435.366 51.9537 435.166C51.6337 434.966 51.1337 434.846 50.4537 434.806C49.6404 434.806 48.8004 435.04 47.9337 435.506ZM50.0537 442.146C51.1737 442.146 52.0937 441.673 52.8137 440.726V439.226C52.1604 438.746 51.3804 438.506 50.4737 438.506C49.7937 438.506 49.2204 438.673 48.7537 439.006C48.2871 439.34 48.0537 439.8 48.0537 440.386C48.0537 440.92 48.2404 441.346 48.6137 441.666C48.9871 441.986 49.4671 442.146 50.0537 442.146ZM57.8734 443.006H56.8334V434.006H57.8134L61.5534 439.026L65.1534 434.006H66.0934V443.006H65.0534V435.586L61.5534 440.446H61.4934L57.8734 435.586V443.006ZM81.9019 443.006H80.8619V438.926H75.0219V443.006H73.9819V434.006H75.0219V437.946H80.8619V434.006H81.9019V443.006ZM91.6361 434.006H92.8161L89.1761 443.006C88.5227 444.593 87.9561 445.646 87.4761 446.166C86.9961 446.726 86.4361 447.006 85.7961 447.006C85.3027 447.006 84.7894 446.853 84.2561 446.546L84.5961 445.746C85.0094 445.946 85.3627 446.046 85.6561 446.046C86.1094 446.046 86.5161 445.846 86.8761 445.446C87.2361 445.06 87.6094 444.406 87.9961 443.486L88.1961 443.006L83.7561 434.006H84.9961L88.0761 440.366L88.7161 441.766C88.7294 441.713 88.8961 441.233 89.2161 440.326L91.6361 434.006ZM104.031 434.006H105.291L101.691 438.326L105.531 443.006H104.271L100.531 438.326L104.031 434.006ZM99.8911 443.006H98.8511V434.006H99.8911V443.006ZM93.2711 443.006L97.0511 438.326L93.4511 434.006H94.7311L98.2111 438.326L94.5311 443.006H93.2711ZM115.457 443.006H114.417V438.926H108.577V443.006H107.537V434.006H108.577V437.946H114.417V434.006H115.457V443.006ZM122.691 443.186C121.304 443.186 120.171 442.746 119.291 441.866C118.411 440.986 117.971 439.866 117.971 438.506C117.971 437.146 118.411 436.026 119.291 435.146C120.171 434.266 121.304 433.826 122.691 433.826C124.077 433.826 125.211 434.266 126.091 435.146C126.971 436.026 127.411 437.146 127.411 438.506C127.411 439.866 126.971 440.986 126.091 441.866C125.211 442.746 124.077 443.186 122.691 443.186ZM122.691 442.206C123.771 442.206 124.637 441.866 125.291 441.186C125.971 440.493 126.311 439.6 126.311 438.506C126.311 437.426 125.971 436.54 125.291 435.846C124.611 435.153 123.744 434.806 122.691 434.806C121.651 434.806 120.784 435.153 120.091 435.846C119.411 436.54 119.071 437.426 119.071 438.506C119.071 439.586 119.411 440.473 120.091 441.166C120.771 441.86 121.637 442.206 122.691 442.206ZM140.245 447.006H139.205V443.186H138.905C137.425 443.186 136.239 442.753 135.345 441.886C134.465 441.006 134.025 439.88 134.025 438.506C134.025 437.226 134.465 436.126 135.345 435.206C136.239 434.286 137.419 433.826 138.885 433.826H139.205V429.006H140.245V433.826H140.585C142.025 433.826 143.192 434.273 144.085 435.166C144.979 436.046 145.425 437.16 145.425 438.506C145.425 439.866 144.992 440.993 144.125 441.886C143.259 442.753 142.079 443.186 140.585 443.186H140.245V447.006ZM135.125 438.506C135.125 439.586 135.465 440.48 136.145 441.186C136.852 441.866 137.792 442.206 138.965 442.206H139.205V434.806H138.865C137.719 434.806 136.805 435.16 136.125 435.866C135.459 436.573 135.125 437.453 135.125 438.506ZM140.585 434.806H140.245V442.206H140.505C141.692 442.206 142.625 441.873 143.305 441.206C143.985 440.526 144.325 439.626 144.325 438.506C144.325 437.48 143.985 436.606 143.305 435.886C142.639 435.166 141.732 434.806 140.585 434.806ZM152.046 443.186C150.66 443.186 149.526 442.746 148.646 441.866C147.766 440.986 147.326 439.866 147.326 438.506C147.326 437.146 147.766 436.026 148.646 435.146C149.526 434.266 150.66 433.826 152.046 433.826C153.433 433.826 154.566 434.266 155.446 435.146C156.326 436.026 156.766 437.146 156.766 438.506C156.766 439.866 156.326 440.986 155.446 441.866C154.566 442.746 153.433 443.186 152.046 443.186ZM152.046 442.206C153.126 442.206 153.993 441.866 154.646 441.186C155.326 440.493 155.666 439.6 155.666 438.506C155.666 437.426 155.326 436.54 154.646 435.846C153.966 435.153 153.1 434.806 152.046 434.806C151.006 434.806 150.14 435.153 149.446 435.846C148.766 436.54 148.426 437.426 148.426 438.506C148.426 439.586 148.766 440.473 149.446 441.166C150.126 441.86 150.993 442.206 152.046 442.206ZM161.222 435.046H157.642V434.006H165.842V435.046H162.262V443.006H161.222V435.046ZM171.441 443.186C170.054 443.186 168.921 442.746 168.041 441.866C167.161 440.986 166.721 439.866 166.721 438.506C166.721 437.146 167.161 436.026 168.041 435.146C168.921 434.266 170.054 433.826 171.441 433.826C172.827 433.826 173.961 434.266 174.841 435.146C175.721 436.026 176.161 437.146 176.161 438.506C176.161 439.866 175.721 440.986 174.841 441.866C173.961 442.746 172.827 443.186 171.441 443.186ZM171.441 442.206C172.521 442.206 173.387 441.866 174.041 441.186C174.721 440.493 175.061 439.6 175.061 438.506C175.061 437.426 174.721 436.54 174.041 435.846C173.361 435.153 172.494 434.806 171.441 434.806C170.401 434.806 169.534 435.153 168.841 435.846C168.161 436.54 167.821 437.426 167.821 438.506C167.821 439.586 168.161 440.473 168.841 441.166C169.521 441.86 170.387 442.206 171.441 442.206Z" fill="black"></path> <defs> <clipPath id="clip0"> <rect width="71.3601" height="71.3601" fill="white" transform="translate(160 483.171) rotate(-18.0973)"></rect> </clipPath> </defs> </svg> 