<?xml version="1.0" encoding="UTF-8"?> <svg xmlns="http://www.w3.org/2000/svg" width="393" height="326" viewBox="0 0 393 326" fill="none"> <rect x="0.499512" y="0.499512" width="357" height="325" rx="14.5" fill="#F9F8F8" stroke="#EFEFEF"></rect> <mask id="mask0" mask-type="alpha" maskUnits="userSpaceOnUse" x="0" y="-1" width="358" height="327"> <rect x="0.5" y="0.499512" width="357" height="325" rx="14.5" fill="#F9F8F8" stroke="#EFEFEF"></rect> </mask> <g mask="url(#mask0)"> <path d="M342.422 186.838C306.103 65.9623 189.911 100.474 159.345 186.047C128.779 271.62 178.861 367.731 271.206 400.715C363.552 433.7 463.191 391.068 493.756 305.495C524.322 219.921 374.89 275.153 342.422 186.838Z" fill="#FDFDFD"></path> <path d="M-37.5785 -153.162C-73.8972 -274.038 -190.09 -239.526 -220.656 -153.953C-251.221 -68.3796 -201.139 27.7307 -108.794 60.7152C-16.4489 93.6997 83.1901 51.068 113.756 -34.5054C144.322 -120.079 -5.1102 -64.8471 -37.5785 -153.162Z" fill="#FDFDFD"></path> </g> <path d="M75.9755 80.9435L71.5835 74.1035L84.4715 64.4555H90.4475V115H82.1675V76.2635L75.9755 80.9435ZM103.816 91.3835L107.128 64.5995H130.96V72.8795H114.4L112.96 82.8875C113.92 82.6955 114.88 82.5995 115.84 82.5995C120.448 82.5995 124.216 84.0635 127.144 86.9915C130.168 89.9195 131.68 93.8075 131.68 98.6555C131.68 103.888 130.024 108.064 126.712 111.184C123.448 114.256 119.32 115.792 114.328 115.792C111.592 115.792 108.784 115.168 105.904 113.92C103.216 112.672 101.104 110.896 99.5679 108.592L104.32 102.328C105.328 103.864 106.792 105.112 108.712 106.072C110.68 107.032 112.624 107.512 114.544 107.512C116.944 107.512 118.912 106.72 120.448 105.136C122.032 103.552 122.824 101.512 122.824 99.0155C122.824 96.3755 121.84 94.2395 119.872 92.6075C117.952 90.9275 115.36 90.0875 112.096 90.0875C108.592 90.0875 105.832 90.5195 103.816 91.3835ZM94.8395 146.6H105.28L92.8235 162.008L106.792 179H95.9915L83.1755 162.656L94.8395 146.6ZM82.8875 179H74.6075V146.6H82.8875V179ZM112.501 175.04C109.285 171.824 107.677 167.744 107.677 162.8C107.677 157.856 109.285 153.8 112.501 150.632C115.717 147.416 119.989 145.808 125.317 145.808C130.597 145.808 134.845 147.416 138.061 150.632C141.325 153.8 142.957 157.856 142.957 162.8C142.957 167.696 141.325 171.776 138.061 175.04C134.797 178.208 130.549 179.792 125.317 179.792C119.989 179.792 115.717 178.208 112.501 175.04ZM119.053 156.176C117.373 157.904 116.533 160.112 116.533 162.8C116.533 165.488 117.349 167.72 118.981 169.496C120.661 171.224 122.773 172.088 125.317 172.088C127.909 172.088 130.021 171.224 131.653 169.496C133.333 167.768 134.173 165.536 134.173 162.8C134.173 160.112 133.333 157.904 131.653 156.176C129.973 154.448 127.861 153.584 125.317 153.584C122.821 153.584 120.733 154.448 119.053 156.176ZM193.323 179H150.123V146.6H158.403V171.296H167.547V146.6H175.827V171.296H185.043V146.6H193.323V179ZM227.922 169.928L230.298 175.76C227.082 178.448 222.954 179.792 217.914 179.792C212.73 179.792 208.506 178.232 205.242 175.112C202.074 172.04 200.49 167.936 200.49 162.8C200.49 158 202.05 153.968 205.17 150.704C208.29 147.44 212.442 145.808 217.626 145.808C221.898 145.808 225.522 147.224 228.498 150.056C231.474 152.888 232.962 156.488 232.962 160.856C232.962 162.776 232.794 164.264 232.458 165.32H209.058C209.394 167.672 210.426 169.52 212.154 170.864C213.93 172.208 216.138 172.88 218.778 172.88C222.378 172.88 225.426 171.896 227.922 169.928ZM217.266 152.72C212.562 152.72 209.73 155.072 208.77 159.776H224.682C224.73 157.712 224.058 156.032 222.666 154.736C221.322 153.392 219.522 152.72 217.266 152.72ZM259.863 146.6H270.303L257.847 162.008L271.815 179H261.015L248.199 162.656L259.863 146.6ZM247.911 179H239.631V146.6H247.911V179Z" fill="#0E263E"></path> <path d="M78.5795 229.96L79.0995 230.72C78.7395 231.186 78.2528 231.546 77.6395 231.8C77.0395 232.053 76.3928 232.18 75.6995 232.18C74.2995 232.18 73.1528 231.753 72.2595 230.9C71.3795 230.046 70.9395 228.913 70.9395 227.5C70.9395 226.18 71.3662 225.073 72.2195 224.18C73.0862 223.273 74.1528 222.82 75.4195 222.82C76.9662 222.82 78.1328 223.193 78.9195 223.94L78.4195 224.78C77.7128 224.126 76.7662 223.8 75.5795 223.8C74.6195 223.8 73.7862 224.153 73.0795 224.86C72.3862 225.553 72.0395 226.433 72.0395 227.5C72.0395 228.62 72.3928 229.52 73.0995 230.2C73.8062 230.866 74.6995 231.2 75.7795 231.2C76.9395 231.2 77.8728 230.786 78.5795 229.96ZM89.2042 232H88.1642V223.98H82.4242V232H81.3842V223H89.2042V232ZM92.6408 224.5L92.3608 223.64C93.2541 223.093 94.2074 222.82 95.2208 222.82C96.3941 222.82 97.2408 223.113 97.7608 223.7C98.2941 224.286 98.5608 225.193 98.5608 226.42V232H97.5208V230.62C96.7874 231.62 95.7608 232.12 94.4408 232.12C93.6008 232.12 92.9274 231.88 92.4208 231.4C91.9141 230.906 91.6608 230.253 91.6608 229.44C91.6608 228.56 91.9808 227.873 92.6208 227.38C93.2474 226.886 94.0674 226.64 95.0808 226.64C96.0941 226.64 96.9074 226.866 97.5208 227.32C97.5208 226.386 97.4541 225.673 97.3208 225.18C97.2141 224.7 96.9941 224.36 96.6608 224.16C96.3408 223.96 95.8408 223.84 95.1608 223.8C94.3474 223.8 93.5074 224.033 92.6408 224.5ZM94.7608 231.14C95.8808 231.14 96.8008 230.666 97.5208 229.72V228.22C96.8674 227.74 96.0874 227.5 95.1808 227.5C94.5008 227.5 93.9274 227.666 93.4608 228C92.9941 228.333 92.7608 228.793 92.7608 229.38C92.7608 229.913 92.9474 230.34 93.3208 230.66C93.6941 230.98 94.1741 231.14 94.7608 231.14ZM108.54 229.96L109.06 230.72C108.7 231.186 108.214 231.546 107.6 231.8C107 232.053 106.354 232.18 105.66 232.18C104.26 232.18 103.114 231.753 102.22 230.9C101.34 230.046 100.9 228.913 100.9 227.5C100.9 226.18 101.327 225.073 102.18 224.18C103.047 223.273 104.114 222.82 105.38 222.82C106.927 222.82 108.094 223.193 108.88 223.94L108.38 224.78C107.674 224.126 106.727 223.8 105.54 223.8C104.58 223.8 103.747 224.153 103.04 224.86C102.347 225.553 102 226.433 102 227.5C102 228.62 102.354 229.52 103.06 230.2C103.767 230.866 104.66 231.2 105.74 231.2C106.9 231.2 107.834 230.786 108.54 229.96ZM117.977 230.1L118.317 230.9C117.504 231.753 116.397 232.18 114.997 232.18C113.557 232.18 112.404 231.753 111.537 230.9C110.657 230.046 110.217 228.913 110.217 227.5C110.217 226.14 110.617 225.02 111.417 224.14C112.23 223.26 113.35 222.82 114.777 222.82C115.937 222.82 116.91 223.193 117.697 223.94C118.47 224.673 118.857 225.653 118.857 226.88C118.857 227.2 118.837 227.48 118.797 227.72H111.377C111.417 228.8 111.77 229.653 112.437 230.28C113.104 230.893 113.977 231.2 115.057 231.2C116.31 231.2 117.284 230.833 117.977 230.1ZM114.677 223.8C113.717 223.8 112.937 224.08 112.337 224.64C111.75 225.2 111.41 225.94 111.317 226.86H117.797C117.784 225.913 117.497 225.166 116.937 224.62C116.377 224.073 115.624 223.8 114.677 223.8ZM129.265 232H128.225V227.92H122.385V232H121.345V223H122.385V226.94H128.225V223H129.265V232ZM136.499 232.18C135.113 232.18 133.979 231.74 133.099 230.86C132.219 229.98 131.779 228.86 131.779 227.5C131.779 226.14 132.219 225.02 133.099 224.14C133.979 223.26 135.113 222.82 136.499 222.82C137.886 222.82 139.019 223.26 139.899 224.14C140.779 225.02 141.219 226.14 141.219 227.5C141.219 228.86 140.779 229.98 139.899 230.86C139.019 231.74 137.886 232.18 136.499 232.18ZM136.499 231.2C137.579 231.2 138.446 230.86 139.099 230.18C139.779 229.486 140.119 228.593 140.119 227.5C140.119 226.42 139.779 225.533 139.099 224.84C138.419 224.146 137.553 223.8 136.499 223.8C135.459 223.8 134.593 224.146 133.899 224.84C133.219 225.533 132.879 226.42 132.879 227.5C132.879 228.58 133.219 229.466 133.899 230.16C134.579 230.853 135.446 231.2 136.499 231.2Z" fill="black"></path> </svg> 