<?xml version="1.0" encoding="UTF-8"?> <svg xmlns="http://www.w3.org/2000/svg" width="92" height="129" viewBox="0 0 92 129" fill="none"> <path d="M17.3747 54.5701C17.0899 63.9102 11.2189 102.944 8.31896 121.294L76.1322 123.361L70.473 53.0725C74.5206 48.2618 82.5073 37.079 82.0736 30.8333C81.6398 24.5875 74.6811 25.9335 71.256 27.3872C70.6968 28.6686 69.9282 29.9956 71.3272 25.0522C73.0759 18.873 67.0775 10.8995 61.6213 10.7332C57.2563 10.6001 52.8732 16.1796 51.2273 18.986C50.031 15.5736 47.0243 8.41846 44.568 7.09707C41.4976 5.44535 36.7971 6.08112 32.7812 9.85402C29.5684 12.8723 29.1267 18.8317 29.3074 21.4341C27.7801 20.3488 23.4784 18.1401 18.4899 17.9881C12.2542 17.798 11.3561 21.6659 11.2374 25.5576C11.1188 29.4493 17.7306 42.895 17.3747 54.5701Z" fill="#C4C4C4"></path> <path d="M40.7736 57.3213C30.0372 61.3566 25.2096 52.1946 25.8266 46.183C33.4149 31.714 41.875 30.3733 47.6901 33.1792C53.5053 35.9851 69.1354 45.8733 63.094 56.083C60.6853 60.1536 52.3155 52.9833 40.7736 57.3213Z" fill="white"></path> <path d="M19.5 23.9999C14.5261 23.4892 15.9998 32.9999 18.4998 33.9998C20.9998 36.4998 31.5809 29.2906 26.4158 25.7446C24.5724 24.479 22.5255 24.3105 19.5 23.9999Z" fill="white"></path> <path d="M41.3012 12.7386C38.1559 9.74987 32.5002 12.9998 35.0882 21.7976C36.0652 25.119 47.7332 24.2363 46.0664 19.0615C45.4715 17.2146 43.2144 14.5565 41.3012 12.7386Z" fill="white"></path> <path d="M64.3398 19.2188C63.7952 16.2567 56.0001 14.7344 56 20.9999C54.8476 22.7345 63.2536 28.2988 64.4316 24.7137C64.8521 23.4342 64.671 21.0205 64.3398 19.2188Z" fill="white"></path> <path d="M78.8017 32.7787C79.4947 29.8479 73.0004 27.9998 71.1974 32.219C70.0004 33.4999 74.4812 39.2641 77.5002 36.9999C79.5003 35.4998 78.3801 34.5615 78.8017 32.7787Z" fill="white"></path> </svg> 