<?xml version="1.0" encoding="UTF-8"?> <svg xmlns="http://www.w3.org/2000/svg" width="833" height="756" viewBox="0 0 833 756" fill="none"> <mask id="mask0" maskUnits="userSpaceOnUse" x="255" y="155" width="483" height="456"> <path d="M423.326 302.076C243.423 273.031 214.755 447.857 306.53 542.471C398.305 637.085 554.759 632.278 655.978 531.734C757.198 431.191 764.855 272.984 673.08 178.371C581.305 83.7567 558.521 315.491 423.326 302.076Z" fill="#F9F8F8"></path> </mask> <g mask="url(#mask0)"> <path d="M428.748 418.494C435.272 414.72 423.52 402.519 421.455 396.177C427.449 397.334 448.325 386.612 453.387 381.821C455.407 392 460.3 414.937 463.711 425.246C467.976 438.131 478.741 436.014 495.03 440.209C511.319 444.403 519.653 471.186 520.615 482.385C521.576 493.584 498.935 530.644 495.275 536.23C491.614 541.817 461.727 568.037 451.022 580.654C442.457 590.748 420.719 621.654 410.921 635.845L287.549 612.022C294.557 580.86 308.902 516.815 310.22 509.937C311.868 501.339 352.252 460.888 364.776 452.293C377.301 443.698 382.721 431.634 397.37 428.169C412.019 424.704 420.592 423.213 428.748 418.494Z" fill="#E49E79"></path> <path d="M428.748 418.494C426.901 418.671 427.417 433.097 425.352 426.754C422.516 428.042 429.236 442.976 434.298 438.184C459.69 446.234 460.301 414.937 463.712 425.246C467.976 438.132 478.741 436.015 495.03 440.209C511.319 444.403 519.654 471.186 520.615 482.385C521.577 493.584 498.936 530.644 495.275 536.23C491.615 541.817 461.728 568.037 451.022 580.655C442.458 590.748 420.72 621.654 410.921 635.845L287.549 612.022C294.557 580.86 308.903 516.815 310.221 509.937C311.868 501.34 355.21 464.16 364.777 452.293C388.558 422.796 386.206 439.124 397.37 428.169C409.147 416.612 440.547 417.364 428.748 418.494Z" fill="#0E263E"></path> <path d="M127.345 408.958C134.497 408.518 183.278 421.355 185.199 423.764L224.436 465.282C244.189 479.775 284.154 508.783 285.983 508.869C288.27 508.975 333.1 472.144 340.248 466.549C347.396 460.953 387.627 424.423 391.055 422.006C394.483 419.588 402.993 417.407 408.558 418.181C413.01 418.801 418.672 419.683 420.946 420.046C419.236 420.31 414.89 421.002 411.191 421.654C406.567 422.47 384.561 435.106 375.242 443.435C365.924 451.764 346.691 485.921 334.557 499.789C324.849 510.884 319.154 525.017 317.519 530.697L319.552 546.514L177.875 448.682L145.497 438.927L116.815 410.788C117.941 410.325 121.623 409.31 127.345 408.958Z" fill="#CC8D6C"></path> <path d="M494.366 441.823C481.112 436.356 449.254 451.732 434.983 460.104C433.475 463.049 429.686 469.472 426.589 471.607C422.718 474.275 331.648 524.514 323.557 523.493C317.084 522.676 267.459 465.25 243.456 436.639C236.432 427.26 221.424 407.007 217.586 401.032C212.788 393.563 208.599 393.811 199.989 390.07C191.378 386.329 170.775 380.298 164.269 377.745C157.763 375.192 157.284 377.722 155.959 380.614C154.634 383.507 158.142 385.487 159.651 387.086C161.16 388.685 172.471 393.204 181.188 397.751C189.904 402.299 192.97 405.244 194.076 406.241C195.181 407.238 181.851 399.713 180.66 400.534C179.469 401.355 175.413 399.532 172.166 398.912C168.918 398.292 165.304 395.505 161.728 391.152C158.152 386.8 155.633 383.698 153.518 381.197C151.403 378.696 142.119 371.681 141.609 370.273C141.099 368.865 130.172 362.323 126.069 360.753C121.965 359.183 120.082 360.92 118.392 361.646C117.039 362.226 118.508 363.765 119.411 364.462C118.578 364.303 116.484 364.06 114.77 364.362C112.628 364.739 110.697 366.73 110.314 368.753C110.007 370.372 112.134 371.897 113.236 372.457L112.661 375.493C112.43 376.707 113.578 377.939 114.18 378.404L113.7 380.933C113.547 381.743 119.967 387.023 123.197 389.562C122.704 390.341 121.851 392.293 122.382 393.862C122.913 395.432 139.379 408.903 147.545 415.443L160.704 426.605L186.437 431.519C199.029 433.923 202.12 435.737 202.091 436.343C203.197 437.34 210.297 447.136 229.857 478.341C249.416 509.546 287.894 559.584 304.688 580.702C301.672 582.048 305.429 583.622 344.592 579.147C383.755 574.672 435.75 551.206 456.853 540.033C480.323 555.523 499.361 539.761 501.473 535.446C503.586 531.132 520.617 494.541 522.149 479.631C523.681 464.72 510.934 448.656 494.366 441.823Z" fill="#E49E79"></path> <path d="M394.523 298.278C397.578 283.689 407.731 273.059 412.426 269.567C422.609 265.724 445.524 259.467 455.712 265.181C468.448 272.323 486.358 303.238 478.963 347.652C473.048 383.184 448.08 397.108 436.336 399.628C435.034 400.096 429.264 401.465 416.599 403.199C400.768 405.366 395.384 401.097 389.535 398.589C383.687 396.08 384.513 388.877 385.541 383.16C386.57 377.442 388.342 378.482 384.282 363.865C380.222 349.247 383.687 342.336 386.251 335.598C388.302 330.207 389.234 325.681 389.444 324.091C387.543 321.26 388.636 309.842 389.42 304.486L394.523 298.278Z" fill="#E49E79"></path> <path d="M300.7 498.444C309.711 487.357 318.039 449.765 326.846 443.722C335.652 437.68 339.266 435.216 339.973 434.739C336.699 425.104 332.931 403.602 344.046 394.666C355.161 385.731 364.99 376.72 368.515 373.332C365.933 368.132 362.951 353.976 371.673 338.943C382.576 320.153 391.091 295.867 397.815 285.15C404.539 274.432 413.524 254.958 427.176 252.171C440.827 249.384 463.976 246.429 470.65 246.62C477.324 246.812 512.081 246.898 525.469 270.242C538.857 293.587 541.129 321.714 537.1 347.051C533.07 372.387 538.635 384.204 535.054 411.339C531.472 438.474 535.195 452.485 535.077 483.585C534.959 514.669 524.443 544.661 519.502 558.755L519.494 558.777C514.555 572.862 508.228 575.526 500.494 576.05C492.76 576.573 499.132 579.935 497.258 585.278C496.961 586.125 497.002 586.859 497.201 587.455C500.596 589.944 497.906 589.57 497.201 587.455C495.521 586.224 492.35 584.291 486.71 581.521C466.466 571.579 457.571 573.875 460.466 565.618C463.361 557.361 507.227 510.699 498.665 487.435C490.103 464.17 457.052 450.76 452.402 433.259C447.752 415.758 456.07 376.651 457.495 369.51C458.92 362.368 450.812 323.967 447.438 302.824C444.065 281.68 446.14 274.224 436.999 272.607C429.686 271.314 419.258 271.934 414.957 272.406C408.484 282.666 389.824 315.632 390.204 337.622C390.703 366.536 395.597 379.154 393.567 392.636C391.536 406.118 436.824 390.012 434.856 400.238C433.282 408.419 429.979 422.448 424.468 429.866C422.289 423.262 412.164 411.636 391.771 423.138C370.963 434.873 343.961 468.384 339.691 472.873C336.274 476.464 307.505 491.853 300.7 498.444Z" fill="#9E9E9E"></path> <path d="M407.213 378.182C404.456 377.357 403.254 374.819 402.997 373.654C402.737 373.094 402.418 372.006 403.223 372.125C404.23 372.274 410.016 373.131 415.237 372.603C419.413 372.18 427.778 371.25 431.438 370.837C430.156 372.556 426.127 376.506 420.271 378.554C412.951 381.114 410.661 379.213 407.213 378.182Z" fill="#933420"></path> <path d="M403.157 365.609C400.138 365.162 399.317 367.817 399.284 369.2L401.033 371.281C401.478 371.173 402.928 370.989 405.172 371.113C407.977 371.268 409.851 370.765 414.632 371.473C419.412 372.181 430.645 370.981 427.374 370.497C424.103 370.012 411.61 365.82 409.383 365.23C407.157 364.64 406.931 366.168 403.157 365.609Z" fill="#933420"></path> <path d="M427.7 327.344C431.035 327.963 438.901 329.161 443.69 329.001C440.957 331.2 431.417 330.757 427.7 327.344Z" fill="#0E263E"></path> <path d="M402.88 326.047C405.593 326.941 409.029 326.618 410.407 326.345C404.476 331.651 400.245 327.154 398.871 324.243C399.077 324.472 400.166 325.152 402.88 326.047Z" fill="#0E263E"></path> </g> <path d="M130.762 403.868C137.914 403.428 186.695 416.266 188.616 418.675L227.853 460.192C247.606 474.685 287.571 503.694 289.4 503.779C291.687 503.885 336.517 467.054 343.665 461.459C350.813 455.863 391.044 419.334 394.472 416.916C397.9 414.498 406.41 412.317 411.975 413.091C416.427 413.711 422.089 414.593 424.363 414.957C422.653 415.221 418.307 415.912 414.608 416.564C409.984 417.38 387.978 430.016 378.659 438.345C369.341 446.674 350.108 480.831 337.974 494.699C328.266 505.794 322.571 519.928 320.936 525.608L322.969 541.424L181.292 443.592L148.914 433.837L120.232 405.698C121.358 405.235 125.04 404.221 130.762 403.868Z" fill="#CC8D6C"></path> <path d="M497.784 436.733C484.53 431.266 452.673 446.642 438.401 455.013C436.894 457.958 433.104 464.382 430.007 466.517C426.136 469.185 335.066 519.423 326.975 518.403C320.503 517.586 270.878 460.16 246.874 431.549C239.85 422.17 224.842 401.917 221.004 395.941C216.207 388.472 212.018 388.721 203.407 384.98C194.796 381.239 174.193 375.208 167.687 372.655C161.181 370.102 160.702 372.632 159.377 375.524C158.052 378.417 161.56 380.397 163.069 381.996C164.578 383.595 175.889 388.113 184.606 392.661C193.323 397.209 196.389 400.153 197.494 401.151C198.6 402.148 185.27 394.623 184.079 395.444C182.887 396.265 178.832 394.442 175.584 393.822C172.336 393.202 168.722 390.415 165.146 386.062C161.57 381.71 159.052 378.607 156.937 376.107C154.822 373.606 145.537 366.591 145.028 365.183C144.518 363.775 133.59 357.232 129.487 355.662C125.384 354.092 123.501 355.83 121.81 356.556C120.457 357.136 121.926 358.675 122.83 359.371C121.997 359.212 119.903 358.97 118.189 359.272C116.046 359.649 114.116 361.639 113.732 363.663C113.425 365.282 115.552 366.807 116.654 367.367L116.079 370.402C115.849 371.616 116.996 372.849 117.598 373.313L117.119 375.843C116.965 376.653 123.386 381.933 126.615 384.472C126.122 385.251 125.269 387.203 125.8 388.772C126.331 390.341 142.797 403.813 150.964 410.352L164.122 421.515L189.856 426.428C202.447 428.833 205.538 430.646 205.51 431.252C206.615 432.25 213.716 442.046 233.275 473.251C252.834 504.456 291.313 554.494 308.107 575.612C305.09 576.958 308.848 578.532 348.011 574.057C387.173 569.582 439.169 546.116 460.271 534.942C483.741 550.433 502.78 534.671 504.892 530.356C507.004 526.041 524.036 489.451 525.567 474.54C527.099 459.63 514.352 443.566 497.784 436.733Z" fill="#E49E79"></path> <path d="M403.17 288.573C408.105 274.515 419.554 265.334 424.662 262.5C435.254 260.053 458.776 256.916 468.123 263.946C479.808 272.734 493.509 305.788 480.375 348.841C469.868 383.283 443.31 393.747 431.344 394.674C429.993 394.964 424.097 395.549 411.322 395.572C395.353 395.601 390.578 390.648 385.111 387.377C379.644 384.106 381.405 377.074 383.171 371.542C384.938 366.011 386.557 367.279 384.446 352.24C382.335 337.201 386.673 330.812 390.094 324.473C392.831 319.403 394.346 315.039 394.762 313.49C393.249 310.429 395.825 299.252 397.302 294.046L403.17 288.573Z" fill="#E49E79"></path> <path d="M301.266 497.6C310.277 486.513 318.606 448.921 327.412 442.878C336.218 436.836 339.833 434.372 340.539 433.895C337.266 424.26 333.497 402.757 344.612 393.822C355.727 384.887 365.556 375.876 369.081 372.487C366.5 367.288 363.517 353.131 372.24 338.099C383.142 319.308 387.41 286.92 394.134 276.203C400.859 265.485 414.091 254.114 427.742 251.327C441.393 248.54 464.542 245.584 471.216 245.776C477.891 245.968 512.647 246.054 526.035 269.398C539.423 292.743 541.696 320.87 537.666 346.206C533.637 371.543 539.202 383.359 535.62 410.494C532.039 437.629 535.761 451.64 535.643 482.741C535.525 513.825 525.01 543.817 520.068 557.911L520.06 557.933C515.122 572.018 508.795 574.682 501.06 575.205C493.326 575.729 499.698 579.091 497.825 584.434C497.528 585.281 497.569 586.015 497.767 586.611C501.162 589.099 498.472 588.726 497.767 586.611C496.087 585.379 492.916 583.447 487.277 580.677C467.032 570.735 458.138 573.031 461.033 564.774C463.928 556.517 507.794 509.855 499.232 486.59C490.67 463.326 457.619 449.915 452.968 432.415C448.318 414.914 456.636 375.807 458.062 368.666C459.487 361.524 451.378 323.123 448.005 301.979C444.632 280.836 446.707 273.38 437.566 271.763C430.253 270.47 420.923 269.542 414.797 275.49C404.634 281.629 390.39 314.788 390.77 336.778C391.27 365.692 396.163 378.309 394.133 391.792C392.102 405.274 437.39 389.167 435.422 399.394C433.848 407.575 430.546 421.604 425.034 429.022C422.855 422.418 412.731 410.792 392.337 422.293C371.53 434.029 344.528 467.54 340.257 472.029C336.841 475.62 308.072 491.009 301.266 497.6Z" fill="#E38A1E"></path> <path d="M409.2 374.381C406.798 373.793 405.659 371.667 405.39 370.678C405.143 370.21 403.399 368.211 404.095 368.278C404.965 368.362 410.438 372.141 414.895 371.462C418.461 370.919 426.555 367.545 429.679 367.033C428.651 368.563 425.361 372.126 420.421 374.136C414.247 376.649 412.202 375.117 409.2 374.381Z" fill="#933420"></path> <path d="M405.188 363.769C402.578 363.516 401.986 365.829 402.016 367.017L403.605 368.727C403.982 368.616 405.218 368.395 407.15 368.404C409.564 368.416 411.151 367.903 415.283 368.304C419.416 368.705 429.005 367.19 426.178 366.916C423.35 366.642 412.452 363.585 410.516 363.175C408.58 362.765 408.451 364.085 405.188 363.769Z" fill="#933420"></path> <path d="M424.392 327.23C427.727 327.849 435.593 329.047 440.382 328.888C437.649 331.087 427.848 332.073 424.392 327.23Z" fill="#0E263E"></path> <path d="M402.018 324.062C405.049 325.061 408.887 324.7 410.427 324.395C403.801 330.322 399.075 325.299 397.54 322.047C397.77 322.303 398.986 323.063 402.018 324.062Z" fill="#0E263E"></path> </svg> 