<?xml version="1.0" encoding="UTF-8"?> <svg xmlns="http://www.w3.org/2000/svg" width="37" height="37" viewBox="0 0 37 37" fill="none"> <ellipse cx="18.5" cy="18.3315" rx="18.5" ry="17.7627" fill="#F5BA74"></ellipse> <g clip-path="url(#clip0)"> <path d="M31.9748 13.669C31.9139 12.3426 31.6905 11.4307 31.3705 10.6405C31.0403 9.80175 30.5324 9.05082 29.867 8.42657C29.2168 7.7926 28.4295 7.29997 27.5661 6.98794C26.7383 6.68067 25.7935 6.46618 24.4121 6.40769C23.0203 6.34426 22.5784 6.32959 19.0484 6.32959C15.5185 6.32959 15.0766 6.34426 13.69 6.40274C12.3085 6.46122 11.3587 6.67591 10.536 6.98299C9.66219 7.29997 8.88009 7.78764 8.22992 8.42657C7.56963 9.05082 7.05676 9.80671 6.73158 10.6357C6.41156 11.4307 6.18815 12.3376 6.12724 13.6641C6.06118 15.0004 6.0459 15.4246 6.0459 18.8139C6.0459 22.2032 6.06118 22.6274 6.12209 23.9588C6.18299 25.2852 6.4066 26.1971 6.72662 26.9873C7.05676 27.8261 7.56963 28.577 8.22992 29.2013C8.88009 29.8352 9.66735 30.3279 10.5308 30.6399C11.3587 30.9472 12.3033 31.1617 13.685 31.2201C15.0714 31.2788 15.5135 31.2933 19.0435 31.2933C22.5735 31.2933 23.0153 31.2788 24.4019 31.2201C25.7834 31.1617 26.7332 30.9472 27.556 30.6399C29.3033 29.9912 30.6848 28.6648 31.3603 26.9873C31.6802 26.1924 31.9038 25.2852 31.9647 23.9588C32.0256 22.6274 32.0409 22.2032 32.0409 18.8139C32.0409 15.4246 32.0357 15.0004 31.9748 13.669ZM29.6334 23.8613C29.5775 25.0805 29.3642 25.7388 29.1864 26.1777C28.7496 27.2653 27.8506 28.1284 26.7179 28.5479C26.2608 28.7185 25.5701 28.9233 24.3053 28.9769C22.934 29.0355 22.5227 29.05 19.0536 29.05C15.5845 29.05 15.1681 29.0355 13.8017 28.9769C12.5319 28.9233 11.8462 28.7185 11.3891 28.5479C10.8254 28.3478 10.3124 28.0309 9.89591 27.6163C9.46418 27.2115 9.13404 26.7239 8.92572 26.1827C8.74795 25.7438 8.53467 25.0805 8.47891 23.8662C8.41781 22.5495 8.40273 22.1544 8.40273 18.8236C8.40273 15.4928 8.41781 15.093 8.47891 13.7812C8.53467 12.562 8.74795 11.9037 8.92572 11.4648C9.13404 10.9234 9.46418 10.431 9.90107 10.0309C10.3225 9.6164 10.8304 9.29942 11.3942 9.09959C11.8514 8.9289 12.5422 8.72412 13.8068 8.6704C15.1782 8.61192 15.5897 8.59725 19.0586 8.59725C22.5328 8.59725 22.9441 8.61192 24.3105 8.6704C25.5803 8.72412 26.2659 8.9289 26.7231 9.09959C27.2867 9.29942 27.7998 9.6164 28.2162 10.0309C28.648 10.4357 28.9781 10.9234 29.1864 11.4648C29.3642 11.9037 29.5775 12.5668 29.6334 13.7812C29.6943 15.0979 29.7096 15.4928 29.7096 18.8236C29.7096 22.1544 29.6943 22.5446 29.6334 23.8613Z" fill="#0E263E"></path> <path d="M19.0482 12.4009C15.3609 12.4009 12.3691 15.2732 12.3691 18.8137C12.3691 22.3543 15.3609 25.2266 19.0482 25.2266C22.7357 25.2266 25.7272 22.3543 25.7272 18.8137C25.7272 15.2732 22.7357 12.4009 19.0482 12.4009ZM19.0482 22.9736C16.656 22.9736 14.7157 21.1107 14.7157 18.8137C14.7157 16.5167 16.656 14.6539 19.0482 14.6539C21.4405 14.6539 23.3807 16.5167 23.3807 18.8137C23.3807 21.1107 21.4405 22.9736 19.0482 22.9736V22.9736Z" fill="#0E263E"></path> <path d="M27.5508 12.148C27.5508 12.9747 26.8526 13.6451 25.9914 13.6451C25.1303 13.6451 24.4321 12.9747 24.4321 12.148C24.4321 11.321 25.1303 10.6509 25.9914 10.6509C26.8526 10.6509 27.5508 11.321 27.5508 12.148V12.148Z" fill="#0E263E"></path> </g> <defs> <clipPath id="clip0"> <rect width="26" height="24.9638" fill="white" transform="translate(6 6.32959)"></rect> </clipPath> </defs> </svg> 