<?xml version="1.0" encoding="UTF-8"?> <svg xmlns="http://www.w3.org/2000/svg" width="264" height="238" viewBox="0 0 264 238" fill="none"> <rect x="0.5" y="0.505371" width="263" height="236" rx="14.5" fill="white" stroke="#EFEFEF"></rect> <mask id="mask0" maskUnits="userSpaceOnUse" x="0" y="0" width="264" height="238"> <rect y="0.00476074" width="264" height="237" rx="15" fill="white"></rect> </mask> <g mask="url(#mask0)"> <path d="M235.863 169.186C235.531 164.322 232.132 157.671 230.474 154.953L216.932 168.219L218.728 208.983C223.887 208.845 234.757 208.43 236.968 207.877C239.732 207.186 238.765 205.666 237.659 202.765C236.554 199.863 234.343 188.117 234.204 183.695C234.066 179.274 236.277 175.266 235.863 169.186Z" fill="#B2B1B1"></path> <path d="M187.084 189.776C187.968 186.128 186.715 176.372 185.978 171.95L195.789 176.372C194.546 185.354 191.423 203.539 188.88 204.423C185.702 205.528 182.247 203.594 182.109 202.074C181.998 200.858 182.892 199.54 183.353 199.034C184.228 197.468 186.199 193.424 187.084 189.776Z" fill="#B2B1B1"></path> <path d="M184.597 238.277C186.255 240.488 184.827 243.897 183.906 245.325H221.077C220.985 244.68 220.856 243.003 221.077 241.456C221.354 239.521 227.71 232.197 229.783 226.946C231.441 222.746 232.132 216.168 232.27 213.405C234.067 209.812 237.88 201.77 238.765 198.343C239.87 194.059 239.317 190.743 239.594 186.873C239.87 183.004 238.627 179.412 237.659 178.306C236.692 177.201 236.139 177.615 234.343 178.306C232.547 178.997 232.547 180.655 232.27 182.452C231.994 184.248 231.027 193.506 229.783 196.823C228.788 199.476 226.236 201.797 225.085 202.626V186.044V169.739L223.288 172.088C221.354 174.575 217.236 179.771 216.241 180.655C214.997 181.761 213.201 181.761 210.99 181.761C208.779 181.761 209.47 180.655 207.674 181.761C206.237 182.645 205.785 182.129 205.739 181.761L203.943 191.572C202.616 198.978 201.548 202.027 201.179 202.626L200.488 200.968L202.699 184.11C202.883 183.281 202.699 181.429 200.488 180.655C198.277 179.881 194.961 177.201 193.579 175.957C192.059 184.847 188.908 203.096 188.466 204.975C188.024 206.855 185.703 208.43 184.597 208.983C183.215 209.029 180.507 208.623 180.728 206.634C181.004 204.146 180.313 198.343 179.484 195.994C178.655 193.644 174.648 192.815 173.128 192.401C171.608 191.986 172.022 194.059 171.193 198.343C170.364 202.626 167.739 205.39 167.739 207.463C167.739 209.535 170.502 219.346 171.193 223.768C171.884 228.19 182.524 235.514 184.597 238.277Z" fill="#E49E79"></path> <path d="M185.841 209.121C189.848 209.535 198.581 213.681 201.455 226.946" stroke="#C27850" stroke-width="0.5"></path> <path d="M204.91 193.369C206.016 192.724 208.973 191.959 211.957 194.059" stroke="#C27850" stroke-width="0.5"></path> <path d="M215.55 195.026C217.162 194.243 220.911 193.147 223.012 195.026" stroke="#C27850" stroke-width="0.5"></path> <path d="M231.855 190.328C233.145 190.006 236.056 189.831 237.383 191.71" stroke="#C27850" stroke-width="0.5"></path> <path d="M230.75 197.79C231.764 198.02 233.929 198.868 234.481 200.415" stroke="#C27850" stroke-width="0.5"></path> <path d="M190.677 203.317C192.243 202.857 195.901 202.212 198.001 203.317" stroke="#C27850" stroke-width="0.5"></path> <path d="M203.114 203.732C204.219 203.225 206.9 202.516 208.779 203.732" stroke="#C27850" stroke-width="0.5"></path> <path d="M212.648 204.561C214.49 204.192 218.617 203.676 220.386 204.561" stroke="#C27850" stroke-width="0.5"></path> <path d="M224.117 206.634C225.637 207.002 228.954 208.209 230.059 210.088" stroke="#C27850" stroke-width="0.5"></path> <path d="M183.215 133.95C183.629 130.956 186.255 117.423 189.571 115.433C193.717 112.946 193.579 111.288 193.993 106.589C194.408 101.891 196.757 95.3966 201.04 92.7711C205.324 90.1457 207.95 87.6584 206.291 89.4547C204.965 90.8919 204.265 92.2645 204.08 92.7711C205.048 91.6657 207.093 89.4547 207.535 89.4547C208.088 89.4547 213.339 81.5783 212.648 83.7893C212.49 84.2937 212.284 84.7876 212.058 85.2499C213.125 83.8545 214.492 82.5408 215.826 82.4074C218.59 82.1311 223.011 81.1638 229.921 83.7893C236.83 86.4147 242.081 85.862 245.673 96.7785C249.266 107.695 250.51 111.979 255.623 112.808C259.713 113.471 262.394 112.439 263.223 111.84L263.914 114.051C258.524 118.657 245.618 123.614 237.106 106.589C234.158 101.431 226.3 92.6606 218.451 98.8512C210.603 105.042 214.26 110.735 217.07 112.808C219.603 113.637 225.471 116.539 228.677 121.513C232.684 127.731 233.375 129.804 233.375 132.43C233.375 135.055 232.408 138.51 233.375 139.201C233.695 139.429 234.104 140.694 234.474 141.829C234.811 142.059 235.135 142.289 235.448 142.517C235.448 144.788 235 143.441 234.474 141.829C222.719 133.766 196.864 124.385 183.215 133.95Z" fill="#B2B1B1"></path> <path d="M175.615 142.379C171.856 145.253 163.639 146.616 160 146.939C162.211 150.117 170.364 153.848 174.924 154.539C179.484 155.23 175.615 156.611 177.135 158.546C178.655 160.481 178.517 159.513 180.037 160.757C181.557 162.001 180.727 161.724 182.662 165.455C184.597 169.186 182.524 169.048 191.091 174.437C194.186 176.869 201.225 180.701 204.357 182.313L209.884 181.484C211.358 181.392 214.831 180.821 216.931 179.273C219.032 177.726 223.334 172.364 225.222 169.877C227.019 166.929 230.86 160.536 231.855 158.546C232.85 156.556 232.27 153.848 231.855 152.742C232.684 152.144 235.282 150.78 239.041 150.117C243.739 149.288 250.095 143.484 247.746 143.484C245.397 143.484 232.546 137.68 229.506 136.16C226.466 134.64 226.742 134.364 224.255 130.909C221.768 127.455 216.102 124.968 214.306 124.138C212.509 123.309 209.608 122.204 207.949 122.204C206.291 122.204 204.495 122.204 201.731 121.237C198.968 120.269 195.651 120.96 191.92 122.204C188.189 123.448 187.222 123.862 187.222 124.968C187.222 126.073 186.117 126.073 185.426 127.178C184.735 128.284 182.662 129.666 180.727 128.699C178.793 127.731 180.037 131.048 181.418 133.12C182.8 135.193 182.247 137.68 181.418 136.16C180.755 134.944 178.286 135.009 177.135 135.193C177.503 135.608 178.599 136.685 180.037 137.68C181.833 138.924 180.313 138.786 175.615 142.379Z" fill="#C4C4C4"></path> <path d="M191.644 167.251C190.428 168.467 185.61 168.127 183.353 167.804C185.563 174.299 201.593 182.037 203.804 182.59C206.015 183.143 207.535 182.037 208.778 181.761C210.022 181.484 211.404 182.037 212.095 182.037C212.785 182.037 215.273 181.346 216.378 180.655C217.484 179.964 223.702 171.812 224.669 170.568C225.636 169.324 224.116 169.877 223.149 170.568C222.182 171.259 219.971 172.088 220.8 170.982C221.629 169.877 222.32 169.048 222.596 167.804C222.873 166.56 223.564 165.179 223.702 163.935C223.84 162.692 223.149 162.968 221.767 162.968C220.386 162.968 220.938 162.553 219.556 161.31C218.175 160.066 216.793 162.553 215.273 164.35C213.753 166.146 213.476 164.212 212.785 162.553C212.095 160.895 213.891 160.619 209.884 156.75C206.429 156.75 207.949 155.782 206.429 154.953C204.909 154.124 204.909 155.506 203.804 156.75C202.698 157.993 202.007 157.855 199.796 157.164C197.585 156.473 199.382 158.546 199.796 160.619C200.211 162.691 199.796 162.139 198 161.31C196.204 160.481 199.382 165.179 199.382 165.731C199.382 166.284 195.927 165.593 194.545 165.179C193.164 164.764 193.164 165.731 191.644 167.251Z" fill="#EAEAEA"></path> <path d="M193.025 168.357C193.762 168.956 195.651 170.154 197.309 170.154C199.382 170.154 199.796 169.324 201.04 170.154C202.269 170.973 203.768 171.927 203.936 173.017C204.168 173.408 204.016 173.646 203.942 173.055C203.94 173.043 203.938 173.03 203.936 173.017C203.734 172.675 203.24 172.217 202.145 172.088C199.796 171.812 197.862 172.641 196.756 172.088C195.651 171.535 194.131 170.844 193.025 168.357Z" fill="#0E263E"></path> <path d="M214.49 168.523C213.385 169.075 212.694 170.844 212.648 171.535C213.155 171.213 214.632 170.239 215.738 169.355C217.12 168.249 219.029 169.355 220.801 167.804C221.685 167.031 221.446 166.008 221.215 165.594C220.847 165.916 219.423 166.612 218.65 167.275C217.682 168.104 215.872 167.832 214.49 168.523Z" fill="#0E263E"></path> <circle cx="137.5" cy="28.5" r="12.5" fill="#0E263E"></circle> <path d="M208.364 178.859C206.595 179.08 205.6 178.49 205.324 178.168C205.462 178.398 205.794 179.108 206.015 180.103C206.236 181.097 208.594 181.53 209.746 181.623C209.93 181.576 210.519 181.346 211.404 180.793C212.288 180.241 212.97 179.273 213.2 178.859C213.292 178.444 213.283 177.726 212.509 178.168C211.542 178.721 210.575 178.583 208.364 178.859Z" fill="#933420"></path> <circle cx="220.5" cy="-0.495728" r="5.5" fill="#E38A1E"></circle> <circle cx="111" cy="196.004" r="3" fill="#E38A1E"></circle> </g> <path d="M43.44 75.06L36.1 85H33.94V71H36.4V80.96L43.74 71H45.9V85H43.44V75.06ZM57.6598 85H55.3598V81.56H51.4198V85H49.1198V76H51.4198V79.4H55.3598V76H57.6598V85ZM67.0336 81.98L68.1136 83.66C67.3536 84.7 66.1603 85.22 64.5336 85.22C63.0803 85.22 61.9003 84.7867 60.9936 83.92C60.1003 83.0667 59.6536 81.9267 59.6536 80.5C59.6536 79.1533 60.0936 78.0333 60.9736 77.14C61.8536 76.2333 62.9669 75.78 64.3136 75.78C65.9136 75.78 67.1203 76.1867 67.9336 77L66.8536 78.82C66.2403 78.2333 65.4936 77.94 64.6136 77.94C63.9469 77.94 63.3603 78.18 62.8536 78.66C62.3603 79.1133 62.1136 79.7267 62.1136 80.5C62.1136 81.2733 62.3669 81.9 62.8736 82.38C63.4069 82.8467 64.0203 83.08 64.7136 83.08C65.6069 83.08 66.3803 82.7133 67.0336 81.98ZM71.8039 78.3H68.8439V76H77.0439V78.3H74.1039V85H71.8039V78.3ZM80.9902 89H78.6902V76H80.9902V76.86C81.2835 76.54 81.6835 76.28 82.1902 76.08C82.6968 75.88 83.2235 75.78 83.7702 75.78C85.0102 75.78 85.9968 76.2067 86.7302 77.06C87.4768 77.9267 87.8502 79.0267 87.8502 80.36C87.8502 81.76 87.4102 82.92 86.5302 83.84C85.6502 84.76 84.5035 85.22 83.0902 85.22C82.1835 85.22 81.4835 85.0733 80.9902 84.78V89ZM83.0502 77.94C82.2502 77.94 81.5635 78.2667 80.9902 78.92V82.56C81.5368 82.9067 82.1702 83.08 82.8902 83.08C83.6502 83.08 84.2568 82.8333 84.7102 82.34C85.1768 81.8467 85.4102 81.2067 85.4102 80.42C85.4102 79.6733 85.1968 79.0733 84.7702 78.62C84.3568 78.1667 83.7835 77.94 83.0502 77.94ZM95.5509 76H98.1709L94.6309 85C93.9909 86.56 93.4176 87.6133 92.9109 88.16C92.4176 88.72 91.8309 89 91.1509 89C90.5109 89 89.8643 88.7667 89.2109 88.3L89.9509 86.56C90.2976 86.7733 90.6109 86.88 90.8909 86.88C91.4376 86.88 91.8976 86.4133 92.2709 85.48L92.4709 85L88.3109 76H91.0709L93.1709 80.92C93.1976 80.9867 93.3443 81.42 93.6109 82.22C93.6909 81.7267 93.7976 81.2867 93.9309 80.9L95.5509 76ZM105.17 76H108.07L104.61 80.28L108.49 85H105.49L101.93 80.46L105.17 76ZM101.85 85H99.5495V76H101.85V85ZM117.483 85H109.843V76H112.143V82.86H115.843V76H118.143V82.86H119.643V87.1H117.483V85ZM127.671 79.3L123.471 85H121.171V76H123.471V81.7L127.671 76H129.971V85H127.671V79.3ZM136.938 76H139.878V85H137.578V82.3H136.298L134.438 85H131.798L134.198 81.8C133.704 81.6267 133.291 81.3133 132.958 80.86C132.624 80.3933 132.458 79.84 132.458 79.2C132.458 78.2133 132.831 77.4333 133.578 76.86C134.338 76.2867 135.458 76 136.938 76ZM134.918 79.36C134.918 79.7067 135.064 80 135.358 80.24C135.651 80.48 135.991 80.6 136.378 80.6H137.578V78H136.558C136.051 78 135.651 78.1333 135.358 78.4C135.064 78.6533 134.918 78.9733 134.918 79.36ZM41.72 107H39.42V100.16H35.58V107H33.28V98H41.72V107ZM45.0561 105.9C44.1628 105.007 43.7161 103.873 43.7161 102.5C43.7161 101.127 44.1628 100 45.0561 99.12C45.9494 98.2267 47.1361 97.78 48.6161 97.78C50.0828 97.78 51.2628 98.2267 52.1561 99.12C53.0628 100 53.5161 101.127 53.5161 102.5C53.5161 103.86 53.0628 104.993 52.1561 105.9C51.2494 106.78 50.0694 107.22 48.6161 107.22C47.1361 107.22 45.9494 106.78 45.0561 105.9ZM46.8761 100.66C46.4094 101.14 46.1761 101.753 46.1761 102.5C46.1761 103.247 46.4028 103.867 46.8561 104.36C47.3228 104.84 47.9094 105.08 48.6161 105.08C49.3361 105.08 49.9228 104.84 50.3761 104.36C50.8428 103.88 51.0761 103.26 51.0761 102.5C51.0761 101.753 50.8428 101.14 50.3761 100.66C49.9094 100.18 49.3228 99.94 48.6161 99.94C47.9228 99.94 47.3428 100.18 46.8761 100.66ZM66.5648 103.98L67.6448 105.66C66.8848 106.7 65.6915 107.22 64.0648 107.22C62.6115 107.22 61.4315 106.787 60.5248 105.92C59.6315 105.067 59.1848 103.927 59.1848 102.5C59.1848 101.153 59.6248 100.033 60.5048 99.14C61.3848 98.2333 62.4982 97.78 63.8448 97.78C65.4448 97.78 66.6515 98.1867 67.4648 99L66.3848 100.82C65.7715 100.233 65.0248 99.94 64.1448 99.94C63.4782 99.94 62.8915 100.18 62.3848 100.66C61.8915 101.113 61.6448 101.727 61.6448 102.5C61.6448 103.273 61.8982 103.9 62.4048 104.38C62.9382 104.847 63.5515 105.08 64.2448 105.08C65.1382 105.08 65.9115 104.713 66.5648 103.98ZM77.9309 107H75.6309V100.16H71.7909V107H69.4909V98H77.9309V107ZM81.187 100.32L80.607 98.64C81.5804 98.0667 82.6404 97.78 83.787 97.78C85.0404 97.78 85.9537 98.0867 86.527 98.7C87.1004 99.3133 87.387 100.253 87.387 101.52V107H85.387V105.96C84.8537 106.733 83.967 107.12 82.727 107.12C81.8737 107.12 81.187 106.873 80.667 106.38C80.1604 105.873 79.907 105.2 79.907 104.36C79.907 103.427 80.207 102.707 80.807 102.2C81.407 101.693 82.2004 101.44 83.187 101.44C84.0004 101.44 84.6804 101.633 85.227 102.02C85.2537 101.22 85.1337 100.633 84.867 100.26C84.6137 99.8867 84.1737 99.7 83.547 99.7C82.8537 99.7 82.067 99.9067 81.187 100.32ZM83.487 105.18C84.2604 105.18 84.8404 104.907 85.227 104.36V103.44C84.8537 103.147 84.327 103 83.647 103C83.2204 103 82.8737 103.1 82.607 103.3C82.3404 103.5 82.207 103.773 82.207 104.12C82.207 104.44 82.327 104.7 82.567 104.9C82.807 105.087 83.1137 105.18 83.487 105.18ZM96.5648 103.98L97.6448 105.66C96.8848 106.7 95.6915 107.22 94.0648 107.22C92.6115 107.22 91.4315 106.787 90.5248 105.92C89.6315 105.067 89.1848 103.927 89.1848 102.5C89.1848 101.153 89.6248 100.033 90.5048 99.14C91.3848 98.2333 92.4982 97.78 93.8448 97.78C95.4448 97.78 96.6515 98.1867 97.4648 99L96.3848 100.82C95.7715 100.233 95.0248 99.94 94.1448 99.94C93.4782 99.94 92.8915 100.18 92.3848 100.66C91.8915 101.113 91.6448 101.727 91.6448 102.5C91.6448 103.273 91.8982 103.9 92.4048 104.38C92.9382 104.847 93.5515 105.08 94.2448 105.08C95.1382 105.08 95.9115 104.713 96.5648 103.98ZM106.063 104.48L106.723 106.1C105.829 106.847 104.683 107.22 103.283 107.22C101.843 107.22 100.669 106.787 99.7627 105.92C98.8827 105.067 98.4427 103.927 98.4427 102.5C98.4427 101.167 98.876 100.047 99.7427 99.14C100.609 98.2333 101.763 97.78 103.203 97.78C104.389 97.78 105.396 98.1733 106.223 98.96C107.049 99.7467 107.463 100.747 107.463 101.96C107.463 102.493 107.416 102.907 107.323 103.2H100.823C100.916 103.853 101.203 104.367 101.683 104.74C102.176 105.113 102.789 105.3 103.523 105.3C104.523 105.3 105.369 105.027 106.063 104.48ZM103.103 99.7C101.796 99.7 101.009 100.353 100.743 101.66H105.163C105.176 101.087 104.989 100.62 104.603 100.26C104.229 99.8867 103.729 99.7 103.103 99.7ZM117.855 107H115.555V103.56H111.615V107H109.315V98H111.615V101.4H115.555V98H117.855V107ZM126.909 101.3L122.709 107H120.409V98H122.709V103.7L126.909 98H129.209V107H126.909V101.3ZM134.216 107H131.776V98H134.216V101.26H135.816C136.056 100.193 136.583 99.3467 137.396 98.72C138.209 98.0933 139.203 97.78 140.376 97.78C141.816 97.78 142.983 98.2267 143.876 99.12C144.769 100 145.216 101.127 145.216 102.5C145.216 103.847 144.763 104.973 143.856 105.88C142.963 106.773 141.803 107.22 140.376 107.22C139.163 107.22 138.143 106.893 137.316 106.24C136.503 105.573 135.989 104.68 135.776 103.56H134.216V107ZM138.276 102.5C138.276 103.247 138.469 103.84 138.856 104.28C139.256 104.707 139.783 104.92 140.436 104.92C141.089 104.92 141.616 104.707 142.016 104.28C142.416 103.84 142.616 103.247 142.616 102.5C142.616 101.753 142.416 101.167 142.016 100.74C141.629 100.3 141.103 100.08 140.436 100.08C139.796 100.08 139.276 100.3 138.876 100.74C138.476 101.18 138.276 101.767 138.276 102.5ZM38.9 120H41.8L38.34 124.28L42.22 129H39.22L35.66 124.46L38.9 120ZM35.58 129H33.28V120H35.58V129ZM43.8061 127.9C42.9128 127.007 42.4661 125.873 42.4661 124.5C42.4661 123.127 42.9128 122 43.8061 121.12C44.6994 120.227 45.8861 119.78 47.3661 119.78C48.8328 119.78 50.0128 120.227 50.9061 121.12C51.8128 122 52.2661 123.127 52.2661 124.5C52.2661 125.86 51.8128 126.993 50.9061 127.9C49.9994 128.78 48.8194 129.22 47.3661 129.22C45.8861 129.22 44.6994 128.78 43.8061 127.9ZM45.6261 122.66C45.1594 123.14 44.9261 123.753 44.9261 124.5C44.9261 125.247 45.1528 125.867 45.6061 126.36C46.0728 126.84 46.6594 127.08 47.3661 127.08C48.0861 127.08 48.6728 126.84 49.1261 126.36C49.5928 125.88 49.8261 125.26 49.8261 124.5C49.8261 123.753 49.5928 123.14 49.1261 122.66C48.6594 122.18 48.0728 121.94 47.3661 121.94C46.6728 121.94 46.0928 122.18 45.6261 122.66ZM66.2566 129H54.2566V120H56.5566V126.86H59.0966V120H61.3966V126.86H63.9566V120H66.2566V129ZM75.8673 126.48L76.5273 128.1C75.634 128.847 74.4873 129.22 73.0873 129.22C71.6473 129.22 70.474 128.787 69.5673 127.92C68.6873 127.067 68.2473 125.927 68.2473 124.5C68.2473 123.167 68.6807 122.047 69.5473 121.14C70.414 120.233 71.5673 119.78 73.0073 119.78C74.194 119.78 75.2007 120.173 76.0273 120.96C76.854 121.747 77.2673 122.747 77.2673 123.96C77.2673 124.493 77.2207 124.907 77.1273 125.2H70.6273C70.7207 125.853 71.0073 126.367 71.4873 126.74C71.9807 127.113 72.594 127.3 73.3273 127.3C74.3273 127.3 75.174 127.027 75.8673 126.48ZM72.9073 121.7C71.6007 121.7 70.814 122.353 70.5473 123.66H74.9673C74.9807 123.087 74.794 122.62 74.4073 122.26C74.034 121.887 73.534 121.7 72.9073 121.7ZM84.7398 120H87.6398L84.1798 124.28L88.0598 129H85.0598L81.4998 124.46L84.7398 120ZM81.4198 129H79.1198V120H81.4198V129ZM33.18 153.28H32.2V150.02H33.32C33.6667 149.58 33.9733 148.867 34.24 147.88C34.52 146.893 34.7 145.78 34.78 144.54L34.92 142H40.66V150.02H42.16V153.28H41.18V151H33.18V153.28ZM35.9 142.98L35.78 144.94C35.6733 146.167 35.4867 147.233 35.22 148.14C34.9667 149.02 34.7 149.647 34.42 150.02H39.62V142.98H35.9ZM51.4678 151H50.4278V143.04H46.6278L46.5078 145C46.3345 147.533 45.9145 149.213 45.2478 150.04C44.7145 150.733 44.0545 151.08 43.2678 151.08L43.1878 150.06C43.5345 150.06 43.8611 149.9 44.1678 149.58C44.9011 148.9 45.3478 147.307 45.5078 144.8L45.6478 142H51.4678V151ZM58.3347 142H61.0147V151H59.9747V147.64H57.7347L55.1547 151H53.8747L56.7147 147.4C56.1147 147.307 55.6014 147.027 55.1747 146.56C54.7614 146.08 54.5547 145.507 54.5547 144.84C54.5547 143.973 54.868 143.287 55.4947 142.78C56.1214 142.26 57.068 142 58.3347 142ZM55.6547 144.86C55.6547 145.393 55.8614 145.827 56.2747 146.16C56.688 146.493 57.128 146.66 57.5947 146.66H59.9747V142.98H58.1547C57.328 142.98 56.7014 143.153 56.2747 143.5C55.8614 143.833 55.6547 144.287 55.6547 144.86ZM70.613 151H69.513V137H70.633L76.273 144.68L81.693 137H82.753V151H81.653V138.72L76.273 146.28H76.093L70.613 138.78V151ZM90.6288 151.18C89.2421 151.18 88.1088 150.74 87.2288 149.86C86.3488 148.98 85.9088 147.86 85.9088 146.5C85.9088 145.14 86.3488 144.02 87.2288 143.14C88.1088 142.26 89.2421 141.82 90.6288 141.82C92.0154 141.82 93.1488 142.26 94.0288 143.14C94.9088 144.02 95.3488 145.14 95.3488 146.5C95.3488 147.86 94.9088 148.98 94.0288 149.86C93.1488 150.74 92.0154 151.18 90.6288 151.18ZM90.6288 150.2C91.7088 150.2 92.5754 149.86 93.2288 149.18C93.9088 148.487 94.2488 147.593 94.2488 146.5C94.2488 145.42 93.9088 144.533 93.2288 143.84C92.5488 143.147 91.6821 142.8 90.6288 142.8C89.5888 142.8 88.7221 143.147 88.0288 143.84C87.3488 144.533 87.0088 145.42 87.0088 146.5C87.0088 147.58 87.3488 148.467 88.0288 149.16C88.7088 149.853 89.5754 150.2 90.6288 150.2ZM104.896 148.96L105.416 149.72C105.056 150.187 104.57 150.547 103.956 150.8C103.356 151.053 102.71 151.18 102.016 151.18C100.616 151.18 99.4697 150.753 98.5764 149.9C97.6964 149.047 97.2564 147.913 97.2564 146.5C97.2564 145.18 97.6831 144.073 98.5364 143.18C99.4031 142.273 100.47 141.82 101.736 141.82C103.283 141.82 104.45 142.193 105.236 142.94L104.736 143.78C104.03 143.127 103.083 142.8 101.896 142.8C100.936 142.8 100.103 143.153 99.3964 143.86C98.7031 144.553 98.3564 145.433 98.3564 146.5C98.3564 147.62 98.7097 148.52 99.4164 149.2C100.123 149.867 101.016 150.2 102.096 150.2C103.256 150.2 104.19 149.787 104.896 148.96ZM113.701 142H115.041L110.601 146.3L115.401 151H114.001L109.341 146.36L113.701 142ZM108.741 151H107.701V142H108.741V151ZM117.389 151V142C117.829 142 118.255 141.993 118.669 141.98C119.522 141.953 120.062 141.94 120.289 141.94C122.769 141.94 124.009 142.713 124.009 144.26C124.009 144.78 123.842 145.233 123.509 145.62C123.189 145.993 122.749 146.227 122.189 146.32V146.36C123.629 146.573 124.349 147.293 124.349 148.52C124.349 150.213 123.009 151.06 120.329 151.06C120.155 151.06 119.629 151.047 118.749 151.02C118.309 151.007 117.855 151 117.389 151ZM120.589 146.86H118.429V150.04C119.469 150.067 120.142 150.08 120.449 150.08C122.315 150.08 123.249 149.527 123.249 148.42C123.249 147.38 122.362 146.86 120.589 146.86ZM120.409 142.92C119.969 142.92 119.309 142.933 118.429 142.96V146H120.809C121.462 146 121.975 145.86 122.349 145.58C122.722 145.287 122.909 144.9 122.909 144.42C122.909 143.42 122.075 142.92 120.409 142.92ZM129.498 151H127.018V142H128.058V145.02H129.618C131.991 145.02 133.178 146.007 133.178 147.98C133.178 148.913 132.878 149.653 132.278 150.2C131.678 150.733 130.751 151 129.498 151ZM129.438 146H128.058V150.02H129.418C130.364 150.02 131.044 149.853 131.458 149.52C131.871 149.187 132.078 148.68 132.078 148C132.078 146.667 131.198 146 129.438 146ZM136.278 151H135.238V142H136.278V151ZM40.62 165.5L34.62 173H33.58V164H34.62V171.5L40.62 164H41.66V173H40.62V165.5ZM51.2575 173H50.1575V159H51.2775L56.9175 166.68L62.3375 159H63.3975V173H62.2975V160.72L56.9175 168.28H56.7375L51.2575 160.78V173ZM71.2733 173.18C69.8866 173.18 68.7533 172.74 67.8733 171.86C66.9933 170.98 66.5533 169.86 66.5533 168.5C66.5533 167.14 66.9933 166.02 67.8733 165.14C68.7533 164.26 69.8866 163.82 71.2733 163.82C72.6599 163.82 73.7933 164.26 74.6733 165.14C75.5533 166.02 75.9933 167.14 75.9933 168.5C75.9933 169.86 75.5533 170.98 74.6733 171.86C73.7933 172.74 72.6599 173.18 71.2733 173.18ZM71.2733 172.2C72.3533 172.2 73.2199 171.86 73.8733 171.18C74.5533 170.487 74.8933 169.593 74.8933 168.5C74.8933 167.42 74.5533 166.533 73.8733 165.84C73.1933 165.147 72.3266 164.8 71.2733 164.8C70.2333 164.8 69.3666 165.147 68.6733 165.84C67.9933 166.533 67.6533 167.42 67.6533 168.5C67.6533 169.58 67.9933 170.467 68.6733 171.16C69.3533 171.853 70.2199 172.2 71.2733 172.2ZM85.5409 170.96L86.0609 171.72C85.7009 172.187 85.2143 172.547 84.6009 172.8C84.0009 173.053 83.3543 173.18 82.6609 173.18C81.2609 173.18 80.1143 172.753 79.2209 171.9C78.3409 171.047 77.9009 169.913 77.9009 168.5C77.9009 167.18 78.3276 166.073 79.1809 165.18C80.0476 164.273 81.1143 163.82 82.3809 163.82C83.9276 163.82 85.0943 164.193 85.8809 164.94L85.3809 165.78C84.6743 165.127 83.7276 164.8 82.5409 164.8C81.5809 164.8 80.7476 165.153 80.0409 165.86C79.3476 166.553 79.0009 167.433 79.0009 168.5C79.0009 169.62 79.3543 170.52 80.0609 171.2C80.7676 171.867 81.6609 172.2 82.7409 172.2C83.9009 172.2 84.8343 171.787 85.5409 170.96ZM94.3456 164H95.6856L91.2456 168.3L96.0456 173H94.6456L89.9856 168.36L94.3456 164ZM89.3856 173H88.3456V164H89.3856V173ZM101.664 173.18C100.277 173.18 99.1439 172.74 98.2639 171.86C97.3839 170.98 96.9439 169.86 96.9439 168.5C96.9439 167.14 97.3839 166.02 98.2639 165.14C99.1439 164.26 100.277 163.82 101.664 163.82C103.051 163.82 104.184 164.26 105.064 165.14C105.944 166.02 106.384 167.14 106.384 168.5C106.384 169.86 105.944 170.98 105.064 171.86C104.184 172.74 103.051 173.18 101.664 173.18ZM101.664 172.2C102.744 172.2 103.611 171.86 104.264 171.18C104.944 170.487 105.284 169.593 105.284 168.5C105.284 167.42 104.944 166.533 104.264 165.84C103.584 165.147 102.717 164.8 101.664 164.8C100.624 164.8 99.7572 165.147 99.0639 165.84C98.3839 166.533 98.0439 167.42 98.0439 168.5C98.0439 169.58 98.3839 170.467 99.0639 171.16C99.7439 171.853 100.611 172.2 101.664 172.2ZM108.932 173V164C109.372 164 109.798 163.993 110.212 163.98C111.065 163.953 111.605 163.94 111.832 163.94C114.312 163.94 115.552 164.713 115.552 166.26C115.552 166.78 115.385 167.233 115.052 167.62C114.732 167.993 114.292 168.227 113.732 168.32V168.36C115.172 168.573 115.892 169.293 115.892 170.52C115.892 172.213 114.552 173.06 111.872 173.06C111.698 173.06 111.172 173.047 110.292 173.02C109.852 173.007 109.398 173 108.932 173ZM112.132 168.86H109.972V172.04C111.012 172.067 111.685 172.08 111.992 172.08C113.858 172.08 114.792 171.527 114.792 170.42C114.792 169.38 113.905 168.86 112.132 168.86ZM111.952 164.92C111.512 164.92 110.852 164.933 109.972 164.96V168H112.352C113.005 168 113.518 167.86 113.892 167.58C114.265 167.287 114.452 166.9 114.452 166.42C114.452 165.42 113.618 164.92 111.952 164.92ZM125.56 170.96L126.08 171.72C125.72 172.187 125.234 172.547 124.62 172.8C124.02 173.053 123.374 173.18 122.68 173.18C121.28 173.18 120.134 172.753 119.24 171.9C118.36 171.047 117.92 169.913 117.92 168.5C117.92 167.18 118.347 166.073 119.2 165.18C120.067 164.273 121.134 163.82 122.4 163.82C123.947 163.82 125.114 164.193 125.9 164.94L125.4 165.78C124.694 165.127 123.747 164.8 122.56 164.8C121.6 164.8 120.767 165.153 120.06 165.86C119.367 166.553 119.02 167.433 119.02 168.5C119.02 169.62 119.374 170.52 120.08 171.2C120.787 171.867 121.68 172.2 122.76 172.2C123.92 172.2 124.854 171.787 125.56 170.96ZM134.365 164H135.705L131.265 168.3L136.065 173H134.665L130.005 168.36L134.365 164ZM129.405 173H128.365V164H129.405V173ZM141.683 173.18C140.297 173.18 139.163 172.74 138.283 171.86C137.403 170.98 136.963 169.86 136.963 168.5C136.963 167.14 137.403 166.02 138.283 165.14C139.163 164.26 140.297 163.82 141.683 163.82C143.07 163.82 144.203 164.26 145.083 165.14C145.963 166.02 146.403 167.14 146.403 168.5C146.403 169.86 145.963 170.98 145.083 171.86C144.203 172.74 143.07 173.18 141.683 173.18ZM141.683 172.2C142.763 172.2 143.63 171.86 144.283 171.18C144.963 170.487 145.303 169.593 145.303 168.5C145.303 167.42 144.963 166.533 144.283 165.84C143.603 165.147 142.737 164.8 141.683 164.8C140.643 164.8 139.777 165.147 139.083 165.84C138.403 166.533 138.063 167.42 138.063 168.5C138.063 169.58 138.403 170.467 139.083 171.16C139.763 171.853 140.63 172.2 141.683 172.2ZM155.991 165.5L149.991 173H148.951V164H149.991V171.5L155.991 164H157.031V173H155.991V165.5ZM150.331 159.32H151.271C151.271 159.813 151.444 160.233 151.791 160.58C152.138 160.913 152.584 161.08 153.131 161.08C153.651 161.08 154.078 160.913 154.411 160.58C154.744 160.233 154.911 159.813 154.911 159.32H155.851C155.851 160.053 155.598 160.667 155.091 161.16C154.584 161.64 153.931 161.88 153.131 161.88C152.278 161.88 151.598 161.647 151.091 161.18C150.584 160.7 150.331 160.08 150.331 159.32ZM37.66 195.18C36.2733 195.18 35.14 194.74 34.26 193.86C33.38 192.98 32.94 191.86 32.94 190.5C32.94 189.14 33.38 188.02 34.26 187.14C35.14 186.26 36.2733 185.82 37.66 185.82C39.0467 185.82 40.18 186.26 41.06 187.14C41.94 188.02 42.38 189.14 42.38 190.5C42.38 191.86 41.94 192.98 41.06 193.86C40.18 194.74 39.0467 195.18 37.66 195.18ZM37.66 194.2C38.74 194.2 39.6067 193.86 40.26 193.18C40.94 192.487 41.28 191.593 41.28 190.5C41.28 189.42 40.94 188.533 40.26 187.84C39.58 187.147 38.7133 186.8 37.66 186.8C36.62 186.8 35.7533 187.147 35.06 187.84C34.38 188.533 34.04 189.42 34.04 190.5C34.04 191.58 34.38 192.467 35.06 193.16C35.74 193.853 36.6067 194.2 37.66 194.2ZM52.0477 180.8L52.6277 181.58C52.321 182.02 51.9477 182.32 51.5077 182.48C50.961 182.64 50.381 182.767 49.7677 182.86C49.0743 182.953 48.4477 183.127 47.8877 183.38C46.3543 184.033 45.4943 185.74 45.3077 188.5H45.3477C45.6543 187.767 46.1677 187.18 46.8877 186.74C47.6077 186.287 48.3877 186.06 49.2277 186.06C50.5343 186.06 51.5743 186.473 52.3477 187.3C53.121 188.113 53.5077 189.207 53.5077 190.58C53.5077 191.847 53.0743 192.933 52.2077 193.84C51.3543 194.733 50.2677 195.18 48.9477 195.18C47.5343 195.18 46.3943 194.687 45.5277 193.7C44.6877 192.713 44.2677 191.36 44.2677 189.64C44.2677 185.693 45.3677 183.273 47.5677 182.38C48.1277 182.153 48.7477 181.987 49.4277 181.88C50.2277 181.747 50.801 181.62 51.1477 181.5C51.4943 181.367 51.7943 181.133 52.0477 180.8ZM45.3677 189.82C45.3677 191.167 45.6943 192.233 46.3477 193.02C47.001 193.807 47.8543 194.2 48.9077 194.2C49.921 194.2 50.7543 193.853 51.4077 193.16C52.0743 192.453 52.4077 191.607 52.4077 190.62C52.4077 189.54 52.101 188.673 51.4877 188.02C50.8743 187.367 50.041 187.04 48.9877 187.04C48.041 187.04 47.2343 187.32 46.5677 187.88C45.9277 188.44 45.5277 189.087 45.3677 189.82ZM63.0108 195H61.9708V187.04H58.1708L58.0508 189C57.8774 191.533 57.4574 193.213 56.7908 194.04C56.2574 194.733 55.5974 195.08 54.8108 195.08L54.7308 194.06C55.0774 194.06 55.4041 193.9 55.7108 193.58C56.4441 192.9 56.8908 191.307 57.0508 188.8L57.1908 186H63.0108V195ZM66.4577 187.5L66.1777 186.64C67.071 186.093 68.0243 185.82 69.0377 185.82C70.211 185.82 71.0577 186.113 71.5777 186.7C72.111 187.287 72.3777 188.193 72.3777 189.42V195H71.3377V193.62C70.6043 194.62 69.5777 195.12 68.2577 195.12C67.4177 195.12 66.7443 194.88 66.2377 194.4C65.731 193.907 65.4777 193.253 65.4777 192.44C65.4777 191.56 65.7977 190.873 66.4377 190.38C67.0643 189.887 67.8843 189.64 68.8977 189.64C69.911 189.64 70.7243 189.867 71.3377 190.32C71.3377 189.387 71.271 188.673 71.1377 188.18C71.031 187.7 70.811 187.36 70.4777 187.16C70.1577 186.96 69.6577 186.84 68.9777 186.8C68.1643 186.8 67.3243 187.033 66.4577 187.5ZM68.5777 194.14C69.6977 194.14 70.6177 193.667 71.3377 192.72V191.22C70.6843 190.74 69.9043 190.5 68.9977 190.5C68.3177 190.5 67.7443 190.667 67.2777 191C66.811 191.333 66.5777 191.793 66.5777 192.38C66.5777 192.913 66.7643 193.34 67.1377 193.66C67.511 193.98 67.991 194.14 68.5777 194.14ZM82.3573 192.96L82.8773 193.72C82.5173 194.187 82.0307 194.547 81.4173 194.8C80.8173 195.053 80.1707 195.18 79.4773 195.18C78.0773 195.18 76.9307 194.753 76.0373 193.9C75.1573 193.047 74.7173 191.913 74.7173 190.5C74.7173 189.18 75.144 188.073 75.9973 187.18C76.864 186.273 77.9307 185.82 79.1973 185.82C80.744 185.82 81.9107 186.193 82.6973 186.94L82.1973 187.78C81.4907 187.127 80.544 186.8 79.3573 186.8C78.3973 186.8 77.564 187.153 76.8573 187.86C76.164 188.553 75.8173 189.433 75.8173 190.5C75.8173 191.62 76.1707 192.52 76.8773 193.2C77.584 193.867 78.4773 194.2 79.5573 194.2C80.7173 194.2 81.6507 193.787 82.3573 192.96ZM87.3439 187.04H83.7639V186H91.9639V187.04H88.3839V195H87.3439V187.04ZM100.835 187.5L94.8348 195H93.7948V186H94.8348V193.5L100.835 186H101.875V195H100.835V187.5Z" fill="#0E263E"></path> </svg> 