<?xml version="1.0" encoding="UTF-8"?> <svg xmlns="http://www.w3.org/2000/svg" width="23" height="23" viewBox="0 0 23 23" fill="none"> <g clip-path="url(#clip0)"> <path d="M2.06738 6.24736H2.84369V7.03018H2.06738V6.24736Z" fill="#F5BA74"></path> <path d="M3.63379 6.24736H4.41009V7.03018H3.63379V6.24736Z" fill="#F5BA74"></path> <path d="M5.19922 6.24736H5.97552V7.03018H5.19922V6.24736Z" fill="#F5BA74"></path> <path d="M0.782826 10.1909H0V21.9684H10.6725V21.1856H0.782826V10.1909Z" fill="#F5BA74"></path> <path d="M0 8.62527H0.782826V9.40481H0V8.62527Z" fill="#F5BA74"></path> <path d="M23 5.17484C23 2.89029 21.1414 1.0316 18.8568 1.0316H18.5916H4.34406C1.94877 1.0316 0 2.98037 0 5.37566V7.83911H0.782826V5.37566C0.782826 3.41197 2.38036 1.81443 4.34406 1.81443H16.1623C15.6146 2.21069 15.1637 2.74317 14.859 3.37736C14.8575 3.38055 14.7583 3.60256 14.7542 3.61258C14.506 4.17052 14.3801 4.7637 14.3801 5.37566V21.1855H11.4587V21.9683H15.163V11.8914H23V5.17484ZM22.2172 11.1086H15.2382V4.957C15.2624 4.58036 15.3493 4.22062 15.4879 3.88761C15.4937 3.87362 15.56 3.72614 15.5631 3.71962C16.0589 2.69197 17.0626 1.95372 18.2465 1.83238C18.2587 1.83113 18.36 1.82267 18.3986 1.82048C19.4702 1.75932 20.4982 2.04708 21.2618 2.83017C21.8701 3.45403 22.2171 4.30324 22.2171 5.17484C22.2172 5.17484 22.2172 11.1086 22.2172 11.1086Z" fill="#F5BA74"></path> <path d="M6.76465 6.24736H13.0207V7.03018H6.76465V6.24736Z" fill="#F5BA74"></path> <path d="M2.06738 8.68283H13.0204V9.46566H2.06738V8.68283Z" fill="#F5BA74"></path> <path d="M2.06738 10.8052H13.0204V11.588H2.06738V10.8052Z" fill="#F5BA74"></path> <path d="M2.06738 12.9275H13.0204V13.7103H2.06738V12.9275Z" fill="#F5BA74"></path> <path d="M2.06738 15.0498H13.0204V15.8326H2.06738V15.0498Z" fill="#F5BA74"></path> <path d="M2.06738 17.1722H13.0204V17.955H2.06738V17.1722Z" fill="#F5BA74"></path> </g> <defs> <clipPath id="clip0"> <rect width="23" height="23" fill="white"></rect> </clipPath> </defs> </svg> 