<?xml version="1.0" encoding="UTF-8"?> <svg xmlns="http://www.w3.org/2000/svg" width="460" height="106" viewBox="0 0 460 106" fill="none"> <rect x="0.5" y="0.5" width="459" height="105" rx="14.5" fill="#F9F8F8" stroke="#EFEFEF"></rect> <path d="M108.584 47.192H107.264V45.008H107.144C104.696 45.008 102.736 44.424 101.264 43.256C99.792 42.072 99.056 40.44 99.056 38.36C99.056 36.28 99.792 34.648 101.264 33.464C102.736 32.296 104.728 31.712 107.24 31.712H107.264V30.008H108.584V31.712H108.632C111.16 31.712 113.16 32.304 114.632 33.488C116.12 34.672 116.864 36.296 116.864 38.36C116.864 40.44 116.12 42.072 114.632 43.256C113.16 44.424 111.2 45.008 108.752 45.008H108.584V47.192ZM108.68 32.936H108.584V43.784H108.752C110.832 43.784 112.472 43.32 113.672 42.392C114.872 41.448 115.472 40.104 115.472 38.36C115.472 36.648 114.864 35.32 113.648 34.376C112.448 33.416 110.792 32.936 108.68 32.936ZM100.448 38.36C100.448 40.104 101.056 41.44 102.272 42.368C103.504 43.312 105.136 43.784 107.168 43.784H107.264V32.936H107.216C105.136 32.936 103.488 33.416 102.272 34.376C101.056 35.304 100.448 36.632 100.448 38.36ZM120.154 38L119.818 36.968C120.89 36.312 122.034 35.984 123.25 35.984C124.658 35.984 125.674 36.336 126.298 37.04C126.938 37.744 127.258 38.832 127.258 40.304V47H126.01V45.344C125.13 46.544 123.898 47.144 122.314 47.144C121.306 47.144 120.498 46.856 119.89 46.28C119.282 45.688 118.978 44.904 118.978 43.928C118.978 42.872 119.362 42.048 120.13 41.456C120.882 40.864 121.866 40.568 123.082 40.568C124.298 40.568 125.274 40.84 126.01 41.384C126.01 40.264 125.93 39.408 125.77 38.816C125.642 38.24 125.378 37.832 124.978 37.592C124.594 37.352 123.994 37.208 123.178 37.16C122.202 37.16 121.194 37.44 120.154 38ZM122.698 45.968C124.042 45.968 125.146 45.4 126.01 44.264V42.464C125.226 41.888 124.29 41.6 123.202 41.6C122.386 41.6 121.698 41.8 121.138 42.2C120.578 42.6 120.298 43.152 120.298 43.856C120.298 44.496 120.522 45.008 120.97 45.392C121.418 45.776 121.994 45.968 122.698 45.968ZM138.034 36.2H139.642L134.314 41.36L140.074 47H138.394L132.802 41.432L138.034 36.2ZM132.082 47H130.834V36.2H132.082V47ZM150.319 44.552L150.943 45.464C150.511 46.024 149.927 46.456 149.191 46.76C148.471 47.064 147.695 47.216 146.863 47.216C145.183 47.216 143.807 46.704 142.735 45.68C141.679 44.656 141.151 43.296 141.151 41.6C141.151 40.016 141.663 38.688 142.687 37.616C143.727 36.528 145.007 35.984 146.527 35.984C148.383 35.984 149.783 36.432 150.727 37.328L150.127 38.336C149.279 37.552 148.143 37.16 146.719 37.16C145.567 37.16 144.567 37.584 143.719 38.432C142.887 39.264 142.471 40.32 142.471 41.6C142.471 42.944 142.895 44.024 143.743 44.84C144.591 45.64 145.663 46.04 146.959 46.04C148.351 46.04 149.471 45.544 150.319 44.552ZM157.995 47.216C156.331 47.216 154.971 46.688 153.915 45.632C152.859 44.576 152.331 43.232 152.331 41.6C152.331 39.968 152.859 38.624 153.915 37.568C154.971 36.512 156.331 35.984 157.995 35.984C159.659 35.984 161.019 36.512 162.075 37.568C163.131 38.624 163.659 39.968 163.659 41.6C163.659 43.232 163.131 44.576 162.075 45.632C161.019 46.688 159.659 47.216 157.995 47.216ZM157.995 46.04C159.291 46.04 160.331 45.632 161.115 44.816C161.931 43.984 162.339 42.912 162.339 41.6C162.339 40.304 161.931 39.24 161.115 38.408C160.299 37.576 159.259 37.16 157.995 37.16C156.747 37.16 155.707 37.576 154.875 38.408C154.059 39.24 153.651 40.304 153.651 41.6C153.651 42.896 154.059 43.96 154.875 44.792C155.691 45.624 156.731 46.04 157.995 46.04ZM167.964 47H166.716V36.2H173.22V37.376H167.964V47ZM176.425 51.8H175.177V36.2H176.425V37.64C176.857 37.16 177.433 36.768 178.153 36.464C178.889 36.144 179.633 35.984 180.385 35.984C181.921 35.984 183.145 36.488 184.057 37.496C184.969 38.504 185.425 39.816 185.425 41.432C185.425 43.112 184.913 44.496 183.889 45.584C182.849 46.672 181.513 47.216 179.881 47.216C178.425 47.216 177.273 46.912 176.425 46.304V51.8ZM180.049 37.16C179.345 37.16 178.657 37.32 177.985 37.64C177.329 37.96 176.809 38.36 176.425 38.84V45.056C177.417 45.712 178.537 46.04 179.785 46.04C181.065 46.04 182.105 45.616 182.905 44.768C183.705 43.92 184.105 42.832 184.105 41.504C184.105 40.176 183.745 39.12 183.025 38.336C182.305 37.552 181.313 37.16 180.049 37.16ZM188.802 38L188.466 36.968C189.538 36.312 190.682 35.984 191.898 35.984C193.306 35.984 194.322 36.336 194.946 37.04C195.586 37.744 195.906 38.832 195.906 40.304V47H194.658V45.344C193.778 46.544 192.546 47.144 190.962 47.144C189.954 47.144 189.146 46.856 188.538 46.28C187.93 45.688 187.626 44.904 187.626 43.928C187.626 42.872 188.01 42.048 188.778 41.456C189.53 40.864 190.514 40.568 191.73 40.568C192.946 40.568 193.922 40.84 194.658 41.384C194.658 40.264 194.578 39.408 194.418 38.816C194.29 38.24 194.026 37.832 193.626 37.592C193.242 37.352 192.642 37.208 191.826 37.16C190.85 37.16 189.842 37.44 188.802 38ZM191.346 45.968C192.69 45.968 193.794 45.4 194.658 44.264V42.464C193.874 41.888 192.938 41.6 191.85 41.6C191.034 41.6 190.346 41.8 189.786 42.2C189.226 42.6 188.946 43.152 188.946 43.856C188.946 44.496 189.17 45.008 189.618 45.392C190.066 45.776 190.642 45.968 191.346 45.968ZM200.73 47H199.482V36.2H200.658L205.146 42.224L209.466 36.2H210.594V47H209.346V38.096L205.146 43.928H205.074L200.73 38.096V47ZM215.66 47H214.412V36.2H215.588L220.076 42.224L224.396 36.2H225.524V47H224.276V38.096L220.076 43.928H220.004L215.66 38.096V47ZM229.677 38L229.341 36.968C230.413 36.312 231.557 35.984 232.773 35.984C234.181 35.984 235.197 36.336 235.821 37.04C236.461 37.744 236.781 38.832 236.781 40.304V47H235.533V45.344C234.653 46.544 233.421 47.144 231.837 47.144C230.829 47.144 230.021 46.856 229.413 46.28C228.805 45.688 228.501 44.904 228.501 43.928C228.501 42.872 228.885 42.048 229.653 41.456C230.405 40.864 231.389 40.568 232.605 40.568C233.821 40.568 234.797 40.84 235.533 41.384C235.533 40.264 235.453 39.408 235.293 38.816C235.165 38.24 234.901 37.832 234.501 37.592C234.117 37.352 233.517 37.208 232.701 37.16C231.725 37.16 230.717 37.44 229.677 38ZM232.221 45.968C233.565 45.968 234.669 45.4 235.533 44.264V42.464C234.749 41.888 233.813 41.6 232.725 41.6C231.909 41.6 231.221 41.8 230.661 42.2C230.101 42.6 229.821 43.152 229.821 43.856C229.821 44.496 230.045 45.008 230.493 45.392C230.941 45.776 231.517 45.968 232.221 45.968ZM250.474 41.072H244.978V39.896H250.474V41.072ZM265.792 51.8H264.544V36.2H265.792V37.64C266.224 37.16 266.8 36.768 267.52 36.464C268.256 36.144 269 35.984 269.752 35.984C271.288 35.984 272.512 36.488 273.424 37.496C274.336 38.504 274.792 39.816 274.792 41.432C274.792 43.112 274.28 44.496 273.256 45.584C272.216 46.672 270.88 47.216 269.248 47.216C267.792 47.216 266.64 46.912 265.792 46.304V51.8ZM269.416 37.16C268.712 37.16 268.024 37.32 267.352 37.64C266.696 37.96 266.176 38.36 265.792 38.84V45.056C266.784 45.712 267.904 46.04 269.152 46.04C270.432 46.04 271.472 45.616 272.272 44.768C273.072 43.92 273.472 42.832 273.472 41.504C273.472 40.176 273.112 39.12 272.392 38.336C271.672 37.552 270.68 37.16 269.416 37.16ZM278.17 38L277.834 36.968C278.906 36.312 280.05 35.984 281.266 35.984C282.674 35.984 283.69 36.336 284.314 37.04C284.954 37.744 285.274 38.832 285.274 40.304V47H284.026V45.344C283.146 46.544 281.914 47.144 280.33 47.144C279.322 47.144 278.514 46.856 277.906 46.28C277.298 45.688 276.994 44.904 276.994 43.928C276.994 42.872 277.378 42.048 278.146 41.456C278.898 40.864 279.882 40.568 281.098 40.568C282.314 40.568 283.29 40.84 284.026 41.384C284.026 40.264 283.946 39.408 283.786 38.816C283.658 38.24 283.394 37.832 282.993 37.592C282.61 37.352 282.01 37.208 281.194 37.16C280.218 37.16 279.21 37.44 278.17 38ZM280.714 45.968C282.058 45.968 283.162 45.4 284.026 44.264V42.464C283.242 41.888 282.306 41.6 281.218 41.6C280.402 41.6 279.714 41.8 279.154 42.2C278.594 42.6 278.314 43.152 278.314 43.856C278.314 44.496 278.538 45.008 278.986 45.392C279.434 45.776 280.01 45.968 280.714 45.968ZM297.249 44.552L297.873 45.464C297.441 46.024 296.857 46.456 296.121 46.76C295.401 47.064 294.625 47.216 293.793 47.216C292.113 47.216 290.737 46.704 289.665 45.68C288.609 44.656 288.081 43.296 288.081 41.6C288.081 40.016 288.593 38.688 289.617 37.616C290.657 36.528 291.937 35.984 293.457 35.984C295.313 35.984 296.713 36.432 297.657 37.328L297.057 38.336C296.209 37.552 295.073 37.16 293.649 37.16C292.497 37.16 291.497 37.584 290.649 38.432C289.817 39.264 289.401 40.32 289.401 41.6C289.401 42.944 289.825 44.024 290.673 44.84C291.521 45.64 292.593 46.04 293.889 46.04C295.281 46.04 296.401 45.544 297.249 44.552ZM309.999 47H308.751V37.376H301.863V47H300.615V36.2H309.999V47ZM318.683 47.216C317.019 47.216 315.659 46.688 314.603 45.632C313.547 44.576 313.019 43.232 313.019 41.6C313.019 39.968 313.547 38.624 314.603 37.568C315.659 36.512 317.019 35.984 318.683 35.984C320.347 35.984 321.707 36.512 322.763 37.568C323.819 38.624 324.347 39.968 324.347 41.6C324.347 43.232 323.819 44.576 322.763 45.632C321.707 46.688 320.347 47.216 318.683 47.216ZM318.683 46.04C319.979 46.04 321.019 45.632 321.803 44.816C322.619 43.984 323.027 42.912 323.027 41.6C323.027 40.304 322.619 39.24 321.803 38.408C320.987 37.576 319.947 37.16 318.683 37.16C317.435 37.16 316.395 37.576 315.563 38.408C314.747 39.24 314.339 40.304 314.339 41.6C314.339 42.896 314.747 43.96 315.563 44.792C316.379 45.624 317.419 46.04 318.683 46.04ZM328.652 51.8H327.404V36.2H328.652V37.64C329.084 37.16 329.66 36.768 330.38 36.464C331.116 36.144 331.86 35.984 332.612 35.984C334.148 35.984 335.372 36.488 336.284 37.496C337.196 38.504 337.652 39.816 337.652 41.432C337.652 43.112 337.14 44.496 336.116 45.584C335.076 46.672 333.74 47.216 332.108 47.216C330.652 47.216 329.5 46.912 328.652 46.304V51.8ZM332.276 37.16C331.572 37.16 330.884 37.32 330.212 37.64C329.556 37.96 329.036 38.36 328.652 38.84V45.056C329.644 45.712 330.764 46.04 332.012 46.04C333.292 46.04 334.332 45.616 335.132 44.768C335.932 43.92 336.332 42.832 336.332 41.504C336.332 40.176 335.972 39.12 335.252 38.336C334.532 37.552 333.54 37.16 332.276 37.16ZM344.664 36.2H347.88V47H346.632V42.968H343.944L340.848 47H339.312L342.72 42.68C342 42.568 341.384 42.232 340.872 41.672C340.376 41.096 340.128 40.408 340.128 39.608C340.128 38.568 340.504 37.744 341.256 37.136C342.008 36.512 343.144 36.2 344.664 36.2ZM341.448 39.632C341.448 40.272 341.696 40.792 342.192 41.192C342.688 41.592 343.216 41.792 343.776 41.792H346.632V37.376H344.448C343.456 37.376 342.704 37.584 342.192 38C341.696 38.4 341.448 38.944 341.448 39.632ZM363.182 36.2H364.694L360.374 41.384L364.982 47H363.47L358.982 41.384L363.182 36.2ZM358.214 47H356.966V36.2H358.214V47ZM350.27 47L354.806 41.384L350.486 36.2H352.022L356.198 41.384L351.782 47H350.27ZM375.393 44.72L375.801 45.68C374.825 46.704 373.497 47.216 371.817 47.216C370.089 47.216 368.705 46.704 367.665 45.68C366.609 44.656 366.081 43.296 366.081 41.6C366.081 39.968 366.561 38.624 367.521 37.568C368.497 36.512 369.841 35.984 371.553 35.984C372.945 35.984 374.113 36.432 375.057 37.328C375.985 38.208 376.449 39.384 376.449 40.856C376.449 41.24 376.425 41.576 376.377 41.864H367.473C367.521 43.16 367.945 44.184 368.745 44.936C369.545 45.672 370.593 46.04 371.889 46.04C373.393 46.04 374.561 45.6 375.393 44.72ZM371.433 37.16C370.281 37.16 369.345 37.496 368.625 38.168C367.921 38.84 367.513 39.728 367.401 40.832H375.177C375.161 39.696 374.817 38.8 374.145 38.144C373.473 37.488 372.569 37.16 371.433 37.16ZM388.939 47H387.691V42.104H380.683V47H379.435V36.2H380.683V40.928H387.691V36.2H388.939V47ZM401.172 38L393.972 47H392.724V36.2H393.972V45.2L401.172 36.2H402.42V47H401.172V38ZM414.745 44.72L415.153 45.68C414.177 46.704 412.849 47.216 411.169 47.216C409.441 47.216 408.057 46.704 407.017 45.68C405.961 44.656 405.433 43.296 405.433 41.6C405.433 39.968 405.913 38.624 406.873 37.568C407.849 36.512 409.193 35.984 410.905 35.984C412.297 35.984 413.465 36.432 414.409 37.328C415.337 38.208 415.801 39.384 415.801 40.856C415.801 41.24 415.777 41.576 415.729 41.864H406.825C406.873 43.16 407.297 44.184 408.097 44.936C408.897 45.672 409.945 46.04 411.241 46.04C412.745 46.04 413.913 45.6 414.745 44.72ZM410.785 37.16C409.633 37.16 408.697 37.496 407.977 38.168C407.273 38.84 406.865 39.728 406.753 40.832H414.529C414.513 39.696 414.169 38.8 413.497 38.144C412.825 37.488 411.921 37.16 410.785 37.16ZM103.232 75.216C102.496 75.216 101.68 75.08 100.784 74.808C99.936 74.552 99.336 74.208 98.984 73.776L99.632 72.816C100.048 73.2 100.568 73.504 101.192 73.728C101.832 73.936 102.448 74.04 103.04 74.04C104.048 74.04 104.856 73.84 105.464 73.44C106.072 73.04 106.376 72.504 106.376 71.832C106.376 71.272 106.152 70.832 105.704 70.512C105.256 70.192 104.648 70.032 103.88 70.032H102.056V69H103.76C104.368 69 104.888 68.808 105.32 68.424C105.752 68.04 105.968 67.576 105.968 67.032C105.968 66.424 105.728 65.96 105.248 65.64C104.768 65.32 104.096 65.16 103.232 65.16C101.968 65.16 100.84 65.56 99.848 66.36L99.344 65.4C100.256 64.456 101.608 63.984 103.4 63.984C104.632 63.984 105.584 64.24 106.256 64.752C106.944 65.248 107.288 65.936 107.288 66.816C107.288 68.08 106.64 68.944 105.344 69.408V69.456C106.08 69.52 106.656 69.792 107.072 70.272C107.488 70.736 107.696 71.312 107.696 72C107.696 72.992 107.288 73.776 106.472 74.352C105.656 74.928 104.576 75.216 103.232 75.216ZM111.224 66L110.888 64.968C111.96 64.312 113.104 63.984 114.32 63.984C115.728 63.984 116.744 64.336 117.368 65.04C118.008 65.744 118.328 66.832 118.328 68.304V75H117.08V73.344C116.2 74.544 114.968 75.144 113.384 75.144C112.376 75.144 111.568 74.856 110.96 74.28C110.352 73.688 110.048 72.904 110.048 71.928C110.048 70.872 110.432 70.048 111.2 69.456C111.952 68.864 112.936 68.568 114.152 68.568C115.368 68.568 116.344 68.84 117.08 69.384C117.08 68.264 117 67.408 116.84 66.816C116.712 66.24 116.448 65.832 116.048 65.592C115.664 65.352 115.064 65.208 114.248 65.16C113.272 65.16 112.264 65.44 111.224 66ZM113.768 73.968C115.112 73.968 116.216 73.4 117.08 72.264V70.464C116.296 69.888 115.36 69.6 114.272 69.6C113.456 69.6 112.768 69.8 112.208 70.2C111.648 70.6 111.368 71.152 111.368 71.856C111.368 72.496 111.592 73.008 112.04 73.392C112.488 73.776 113.064 73.968 113.768 73.968ZM123.152 75H121.904V64.2H123.08L127.568 70.224L131.888 64.2H133.016V75H131.768V66.096L127.568 71.928H127.496L123.152 66.096V75ZM136.234 74.088C136.234 73.848 136.322 73.648 136.498 73.488C136.69 73.312 136.922 73.224 137.194 73.224C137.434 73.224 137.634 73.312 137.794 73.488C137.97 73.664 138.058 73.864 138.058 74.088C138.058 74.344 137.97 74.568 137.794 74.76C137.634 74.952 137.434 75.048 137.194 75.048C136.922 75.048 136.69 74.952 136.498 74.76C136.322 74.568 136.234 74.344 136.234 74.088ZM146.964 75H145.716V64.2H146.892L151.38 70.224L155.7 64.2H156.828V75H155.58V66.096L151.38 71.928H151.308L146.964 66.096V75ZM168.11 70.008H162.398V68.976H168.086C167.974 67.776 167.518 66.84 166.718 66.168C165.934 65.496 164.926 65.16 163.694 65.16C162.254 65.16 161.086 65.608 160.19 66.504L159.638 65.568C160.102 65.088 160.702 64.704 161.438 64.416C162.174 64.128 162.918 63.984 163.67 63.984C165.366 63.984 166.734 64.496 167.774 65.52C168.846 66.544 169.382 67.904 169.382 69.6C169.382 71.2 168.87 72.536 167.846 73.608C166.822 74.68 165.542 75.216 164.006 75.216C162.102 75.216 160.686 74.776 159.758 73.896L160.358 72.96C161.174 73.68 162.358 74.04 163.91 74.04C165.078 74.04 166.046 73.672 166.814 72.936C167.598 72.2 168.03 71.224 168.11 70.008ZM173.683 79.8H172.435V64.2H173.683V65.64C174.115 65.16 174.691 64.768 175.411 64.464C176.147 64.144 176.891 63.984 177.643 63.984C179.179 63.984 180.403 64.488 181.315 65.496C182.227 66.504 182.683 67.816 182.683 69.432C182.683 71.112 182.171 72.496 181.147 73.584C180.107 74.672 178.771 75.216 177.139 75.216C175.683 75.216 174.531 74.912 173.683 74.304V79.8ZM177.307 65.16C176.603 65.16 175.915 65.32 175.243 65.64C174.587 65.96 174.067 66.36 173.683 66.84V73.056C174.675 73.712 175.795 74.04 177.043 74.04C178.323 74.04 179.363 73.616 180.163 72.768C180.963 71.92 181.363 70.832 181.363 69.504C181.363 68.176 181.003 67.12 180.283 66.336C179.563 65.552 178.571 65.16 177.307 65.16ZM186.06 66L185.724 64.968C186.796 64.312 187.94 63.984 189.156 63.984C190.564 63.984 191.58 64.336 192.204 65.04C192.844 65.744 193.164 66.832 193.164 68.304V75H191.916V73.344C191.036 74.544 189.804 75.144 188.22 75.144C187.212 75.144 186.404 74.856 185.796 74.28C185.188 73.688 184.884 72.904 184.884 71.928C184.884 70.872 185.268 70.048 186.036 69.456C186.788 68.864 187.772 68.568 188.988 68.568C190.204 68.568 191.18 68.84 191.916 69.384C191.916 68.264 191.836 67.408 191.676 66.816C191.548 66.24 191.284 65.832 190.884 65.592C190.5 65.352 189.9 65.208 189.084 65.16C188.108 65.16 187.1 65.44 186.06 66ZM188.604 73.968C189.948 73.968 191.052 73.4 191.916 72.264V70.464C191.132 69.888 190.196 69.6 189.108 69.6C188.292 69.6 187.604 69.8 187.044 70.2C186.484 70.6 186.204 71.152 186.204 71.856C186.204 72.496 186.428 73.008 186.876 73.392C187.324 73.776 187.9 73.968 188.604 73.968ZM203.636 75H202.388V64.2H208.892V65.376H203.636V75ZM209.452 74.088C209.452 73.848 209.54 73.648 209.716 73.488C209.908 73.312 210.14 73.224 210.412 73.224C210.652 73.224 210.852 73.312 211.012 73.488C211.188 73.664 211.276 73.864 211.276 74.088C211.276 74.344 211.188 74.568 211.012 74.76C210.852 74.952 210.652 75.048 210.412 75.048C210.14 75.048 209.908 74.952 209.716 74.76C209.54 74.568 209.452 74.344 209.452 74.088ZM221.023 75H219.703V58.2H221.047L227.815 67.416L234.319 58.2H235.591V75H234.271V60.264L227.815 69.336H227.599L221.023 60.336V75ZM245.042 75.216C243.378 75.216 242.018 74.688 240.962 73.632C239.906 72.576 239.378 71.232 239.378 69.6C239.378 67.968 239.906 66.624 240.962 65.568C242.018 64.512 243.378 63.984 245.042 63.984C246.706 63.984 248.066 64.512 249.122 65.568C250.178 66.624 250.706 67.968 250.706 69.6C250.706 71.232 250.178 72.576 249.122 73.632C248.066 74.688 246.706 75.216 245.042 75.216ZM245.042 74.04C246.338 74.04 247.378 73.632 248.162 72.816C248.978 71.984 249.386 70.912 249.386 69.6C249.386 68.304 248.978 67.24 248.162 66.408C247.346 65.576 246.306 65.16 245.042 65.16C243.794 65.16 242.754 65.576 241.922 66.408C241.106 67.24 240.698 68.304 240.698 69.6C240.698 70.896 241.106 71.96 241.922 72.792C242.738 73.624 243.778 74.04 245.042 74.04ZM262.163 72.552L262.787 73.464C262.355 74.024 261.771 74.456 261.035 74.76C260.315 75.064 259.539 75.216 258.707 75.216C257.027 75.216 255.651 74.704 254.579 73.68C253.523 72.656 252.995 71.296 252.995 69.6C252.995 68.016 253.507 66.688 254.531 65.616C255.571 64.528 256.851 63.984 258.371 63.984C260.227 63.984 261.627 64.432 262.571 65.328L261.971 66.336C261.123 65.552 259.987 65.16 258.563 65.16C257.411 65.16 256.411 65.584 255.563 66.432C254.731 67.264 254.315 68.32 254.315 69.6C254.315 70.944 254.739 72.024 255.587 72.84C256.435 73.64 257.507 74.04 258.803 74.04C260.195 74.04 261.315 73.544 262.163 72.552ZM272.729 64.2H274.337L269.009 69.36L274.769 75H273.089L267.497 69.432L272.729 64.2ZM266.777 75H265.529V64.2H266.777V75ZM277.154 75V64.2C277.682 64.2 278.194 64.192 278.69 64.176C279.714 64.144 280.362 64.128 280.634 64.128C283.61 64.128 285.098 65.056 285.098 66.912C285.098 67.536 284.898 68.08 284.498 68.544C284.114 68.992 283.586 69.272 282.914 69.384V69.432C284.642 69.688 285.506 70.552 285.506 72.024C285.506 74.056 283.898 75.072 280.682 75.072C280.474 75.072 279.842 75.056 278.786 75.024C278.258 75.008 277.714 75 277.154 75ZM280.994 70.032H278.402V73.848C279.65 73.88 280.458 73.896 280.826 73.896C283.066 73.896 284.186 73.232 284.186 71.904C284.186 70.656 283.122 70.032 280.994 70.032ZM280.778 65.304C280.25 65.304 279.458 65.32 278.402 65.352V69H281.258C282.042 69 282.658 68.832 283.106 68.496C283.554 68.144 283.778 67.68 283.778 67.104C283.778 65.904 282.778 65.304 280.778 65.304ZM291.685 75H288.709V64.2H289.957V67.824H291.829C294.677 67.824 296.101 69.008 296.101 71.376C296.101 72.496 295.741 73.384 295.021 74.04C294.301 74.68 293.189 75 291.685 75ZM291.613 69H289.957V73.824H291.589C292.725 73.824 293.541 73.624 294.037 73.224C294.533 72.824 294.781 72.216 294.781 71.4C294.781 69.8 293.725 69 291.613 69ZM299.821 75H298.573V64.2H299.821V75Z" fill="black"></path> <circle r="25" transform="matrix(-1 0 0 1 51 53)" fill="white"></circle> <path d="M62.1583 41H41.575C39.6037 41 38 42.6037 38 44.575V63.425C38 65.3963 39.6037 67 41.575 67H59.6667C60.7365 67 61.7422 66.5834 62.4987 65.8269L64.5602 63.7654C65.3167 63.0089 65.7333 62.0031 65.7333 60.9333V44.575C65.7333 42.6037 64.1296 41 62.1583 41ZM41.575 42.7333H62.1583C63.1739 42.7333 64 43.5595 64 44.575V47.0667H39.7333V44.575C39.7333 43.5595 40.5595 42.7333 41.575 42.7333ZM39.7333 63.425V48.8H64V60.0667H61.2917C59.9178 60.0667 58.8 61.1845 58.8 62.5583V65.2667H41.575C40.5595 65.2667 39.7333 64.4405 39.7333 63.425ZM63.3346 62.5398L61.2731 64.6013C61.0577 64.8167 60.8067 64.9835 60.5333 65.0962V62.5583C60.5333 62.1402 60.8735 61.8 61.2917 61.8H63.8295C63.7168 62.0733 63.55 62.3244 63.3346 62.5398Z" fill="#0E263E"></path> <path d="M59.6664 52.2667C59.6664 51.7881 59.2784 51.4 58.7997 51.4H44.9331C44.4544 51.4 44.0664 51.7881 44.0664 52.2667C44.0664 52.7453 44.4544 53.1334 44.9331 53.1334H58.7997C59.2784 53.1334 59.6664 52.7453 59.6664 52.2667Z" fill="#0E263E"></path> <path d="M57.0665 55.7333H46.6665C46.1878 55.7333 45.7998 56.1214 45.7998 56.6C45.7998 57.0786 46.1878 57.4667 46.6665 57.4667H57.0665C57.5451 57.4667 57.9331 57.0786 57.9331 56.6C57.9331 56.1214 57.5451 55.7333 57.0665 55.7333Z" fill="#0E263E"></path> </svg> 