<?xml version="1.0" encoding="UTF-8"?> <svg xmlns="http://www.w3.org/2000/svg" width="614" height="559" viewBox="0 0 614 559" fill="none"> <path d="M41.4247 261.856C18.0795 264.452 -2.69524 270.785 -10.1645 273.626C-12.6677 274.096 -16.8644 273.644 -13.6258 268.08C-10.3873 262.515 5.2468 234.61 12.659 221.353C27.31 224.439 58.3003 231.113 65.0541 233.117C71.808 235.121 96.9377 249.657 108.658 256.675C95.9743 257.32 64.7699 259.26 41.4247 261.856Z" fill="#C4C4C4"></path> <path d="M-14.4965 153.142C-6.80409 170.391 33.4598 157.452 98.6571 203.585C122.684 202.852 128.094 221.123 139.624 226.25C154.036 232.658 160.507 234.872 178.124 226.394C195.741 217.917 211.507 213.447 220.467 210.741C226.333 207.943 241.124 202.586 253.36 203.539C236.838 206.79 202.848 216.247 199.061 228.064C220.015 231.869 268.784 247.212 296.224 278.149C323.479 308.877 458.987 323.862 493.225 321.704C493.135 321.64 493.046 321.579 492.957 321.52C489.474 319.221 485.893 320.426 492.957 321.52C493.255 321.566 493.572 321.612 493.909 321.657C493.686 321.674 493.457 321.689 493.225 321.704C495.659 323.444 497.909 326.953 496.269 333.478C492.132 349.937 383.089 343.785 383.089 343.785L291.368 311.04C281.011 311.273 205.067 268.358 190.247 270.482C124 279.978 223.392 373.123 220.467 381C217.542 388.876 148.941 297.87 145.16 292.78C141.379 287.69 115.493 256.677 73.2981 240.629C39.5421 227.79 17.6947 224.447 10.9906 224.38L4.45712 243.054L-16.6039 279.978L-42.23 276.194L-14.4965 153.142Z" fill="#F5BA74"></path> <path d="M309.626 356.397C295.02 347.268 297.211 324.129 300.132 313.7C299.402 311.982 302.908 309.578 322.772 313.7C347.602 318.853 350.158 339.097 349.062 348.667C348.186 356.323 353.322 363.636 356 366.335C346.628 366.826 324.232 365.525 309.626 356.397Z" fill="#E38A1E"></path> <path d="M217.074 363.448C206.205 364.963 197.811 352.763 194.973 346.474C193.913 345.933 194.642 343.325 206.032 337.214C220.269 329.575 229.798 338.419 233.177 343.542C235.881 347.641 241.381 349.112 243.793 349.335C239.415 353.409 227.943 361.933 217.074 363.448Z" fill="#E38A1E"></path> <path d="M276.341 115.81C269.437 124.34 254.974 121.162 248.605 118.507C247.462 118.836 246.213 116.433 250.358 104.19C255.54 88.8867 268.54 88.8381 274.507 90.272C279.281 91.4192 284.303 88.7372 286.218 87.2529C285.802 93.2178 283.245 107.28 276.341 115.81Z" fill="#E38A1E"></path> <path d="M228.317 454.477C221.551 463.118 207.038 460.174 200.627 457.622C199.49 457.969 198.202 455.586 202.149 443.278C207.083 427.893 220.081 427.635 226.071 428.972C230.862 430.042 235.841 427.28 237.731 425.764C237.412 431.735 235.082 445.837 228.317 454.477Z" fill="#E38A1E"></path> <path d="M529.454 429.157C537.346 432.371 538.235 443.836 537.693 449.167C538.195 449.943 536.689 451.411 526.657 451.082C514.118 450.67 511.159 441.018 510.884 436.26C510.663 432.454 507.541 429.324 506.007 428.235C510.534 427.203 521.562 425.942 529.454 429.157Z" fill="#E38A1E"></path> <path d="M445.409 331.045C430.698 340.004 411.001 327.664 402.991 320.375C401.128 320.257 400.552 316.046 413.147 300.142C428.892 280.263 448.132 287.06 456.193 292.333C462.642 296.551 471.482 295.241 475.095 294.058C471.329 302.655 460.12 322.087 445.409 331.045Z" fill="#0E263E"></path> <path d="M375.192 476.173C371.521 489.396 353.348 492.955 344.72 493.082C343.573 494.028 340.943 491.894 339.6 475.786C337.921 455.651 352.809 449.12 360.368 447.792C366.415 446.73 370.84 441.152 372.297 438.496C374.791 445.545 378.863 462.949 375.192 476.173Z" fill="#0E263E"></path> <path d="M538.855 314.46C527.4 333.898 494.247 333.895 479.103 331.464C476.735 332.586 472.946 328.467 476.726 303.018C481.452 271.206 509.987 265.589 523.718 265.828C534.703 266.019 544.568 258.696 548.127 255.01C549.809 266.728 550.31 295.023 538.855 314.46Z" fill="#E38A1E"></path> <path d="M127.945 302.742C126.107 289.282 141.239 278.933 149.034 275.441C149.707 274.132 152.933 275.043 160.459 289.164C169.865 306.815 158.884 318.58 152.53 322.745C147.448 326.077 145.607 332.881 145.322 335.866C140.295 330.433 129.782 316.201 127.945 302.742Z" fill="#0E263E"></path> <path d="M258.47 227.032C248.235 225.657 243.71 212.475 242.728 206.056C241.904 205.298 243.224 203.118 255.094 200.459C269.932 197.135 276.333 207.561 278.101 213.059C279.515 217.458 284.128 220.183 286.258 220.995C281.26 223.58 268.705 228.407 258.47 227.032Z" fill="#0E263E"></path> <path d="M-13.0245 139.764C-5.17159 137.734 11.6532 133.94 16.1288 135.004C20.6045 136.067 32.3799 132.367 37.7081 130.384L52.246 132.53C54.2541 127.456 60.1293 115.969 67.5656 110.622C76.861 103.937 79.1397 98.7345 84.9326 95.3095C89.567 92.5695 92.0804 88.3918 92.7579 86.6455C93.7716 84.0322 96.9999 80.4234 102.591 78.0261C108.182 75.6287 110.99 74.5663 111.696 74.3348C113.908 75.8363 118.195 81.1354 117.645 90.3195C117.095 99.5036 117.25 104.361 117.397 105.641C120.574 109.132 127.9 116.356 131.785 117.333C135.669 118.309 143.935 120.301 147.583 121.176C151.26 120.711 159.797 119.958 164.528 120.656C169.259 121.354 171.447 122.684 171.949 123.262C167.069 127.325 156.289 136.56 152.21 140.994C147.112 146.535 147.205 149.319 146.477 154.247C145.75 159.175 146.472 164.723 144.367 168.538C139.211 177.886 135.542 177.726 132.51 180.635C129.901 181.257 124.363 182.957 123.086 184.783C121.49 187.065 120.733 204.129 118.609 206.585C116.484 209.04 118.377 208.151 106.998 204.871C94.5431 201.28 89.6978 206.291 78.4359 204.124C69.4264 202.392 63.3207 197.361 61.3941 195.062C59.868 194.024 58.4473 193.029 57.1254 192.076C62.5779 202.059 66.6991 214.379 63.0435 226.526C64.0315 231.204 65.3908 241.324 62.9248 244.385C59.8424 248.21 58.9776 252.362 56.7881 253.55C54.5986 254.737 46.588 257.835 42.6867 248.447C38.7854 239.058 36.576 236.97 36.9246 222.67C37.2035 211.23 34.6801 205.47 33.3836 204.02C25.5999 198.758 8.1861 185.395 0.799677 174.032C-6.58675 162.669 -12.7309 154.83 -14.8797 152.33L-13.0245 139.764Z" fill="#9E9E9E"></path> <path d="M163.196 122.851C157.973 122.08 147.17 126.527 142.421 128.848C146.1 132.317 146.232 138.199 146.899 141.541C147.314 140.721 150.885 139.564 153.963 135.084C157.042 130.603 164.45 126.015 167.769 124.281C168.421 124.126 168.42 123.622 163.196 122.851Z" fill="#C4C4C4"></path> <path d="M95.3871 89.2995C92.5006 92.65 94.2711 101.975 94.4083 102.751C102.285 102.604 107.222 105.776 108.706 107.379C109.142 106.982 110.469 105.5 112.285 102.746C114.555 99.3049 114.808 94.1809 115.463 89.7456C115.987 86.1973 112.332 81.3943 110.439 79.4364C110.411 79.0546 109.181 78.7471 104.481 80.5709C98.605 82.8507 98.2736 85.949 95.3871 89.2995Z" fill="#C4C4C4"></path> <path d="M103.262 168.134C102.024 167.65 102.365 166.533 102.69 166.036C103.594 166.169 105.777 166.617 107.281 167.343C109.161 168.25 109.052 168.989 110.914 170.019C112.776 171.05 113.087 172.354 112.59 173.162C112.193 173.809 111.354 173.861 110.985 173.806C110.822 173.489 110.324 172.828 109.634 172.726C108.771 172.598 107.335 174.652 106.062 175.598C105.044 176.354 102.983 176.276 102.08 176.143L102.734 171.707C102.789 171.338 105.097 171.049 105.453 170.346C105.809 169.643 104.809 168.74 103.262 168.134Z" fill="#0E263E"></path> <path d="M96.5239 144.702C91.7333 141.678 94.3656 135.445 96.2805 132.707C105.838 130.215 108.346 136.25 108.96 140.621C109.451 144.118 106.515 148.653 104.986 150.483C104.161 149.816 101.314 147.726 96.5239 144.702Z" fill="#0E263E"></path> <path d="M125.543 152.793C122.75 153.287 120.293 157.934 119.414 160.197C125.335 166.987 129.71 165.493 132.488 162.882C134.709 160.793 134.615 156.146 134.29 154.084C132.341 152.789 129.033 152.175 125.543 152.793Z" fill="#0E263E"></path> <path d="M95.8303 140.568C94.9079 137.939 96.2513 135.181 97.0383 134.131C97.8409 132.73 103.142 132.174 106.634 136.177C110.126 140.18 105.409 145.66 103.063 146.116C100.717 146.571 96.9834 143.855 95.8303 140.568Z" fill="#C8C8C8"></path> <path d="M123.901 162.12C121.896 160.782 122.419 157.953 123.101 156.371C127.981 151.226 133.277 154.646 133.259 158.513C131.593 166.005 126.352 163.756 123.901 162.12Z" fill="#C8C8C8"></path> <path d="M103.354 136.802C102.39 137.08 100.349 138.398 99.8983 141.453C101.402 141.214 104.199 139.948 103.354 136.802Z" fill="#0E263E"></path> <path d="M129.668 155.542C128.697 156.154 126.705 158.05 126.509 160.74C127.686 160.159 129.965 158.305 129.668 155.542Z" fill="#0E263E"></path> <path d="M59.1775 176.473C58.8499 171.187 60.3872 164.071 59.9842 161.116C80.8004 199.186 107.132 184.835 106.562 186.135C105.992 187.436 104.016 191.158 100.984 195.494C97.952 199.83 102.21 200.836 100.22 200.668C98.2306 200.5 95.6616 199.995 92.9975 200.987C90.3333 201.978 83.9988 202.075 74.1831 199.493C64.3674 196.911 53.6692 183.779 55.7578 181.569C57.8464 179.36 59.5869 183.079 59.1775 176.473Z" fill="#C4C4C4"></path> <path d="M100.409 175.519C85.2446 173.18 82.8512 157.443 83.55 149.867C79.2105 143.788 73.2022 150.606 70.7404 154.774C68.2327 154.706 63.546 144.102 60.3567 138.135C57.0786 134.755 57.8471 147.457 57.8471 147.457C62.2215 198.835 98.7171 186.977 104.047 188.394C108.311 189.527 115.233 185.387 118.161 183.176C105.789 186.485 101.171 179.451 100.409 175.519Z" fill="#E0E0E0"></path> <path d="M91.253 156.136C81.1905 140.202 58.4972 106.808 48.2246 100.706" stroke="#C4C4C4" stroke-width="0.5"></path> <path d="M90.6479 158.986C77.1769 145.807 47.3837 118.558 35.9795 114.994" stroke="#C4C4C4" stroke-width="0.5"></path> <path d="M188.124 189.24C170.07 183.838 131.022 173.571 119.269 175.719" stroke="#C4C4C4" stroke-width="0.5"></path> <path d="M193.26 206.75C173.984 197.203 132.024 178.149 118.387 178.309" stroke="#C4C4C4" stroke-width="0.5"></path> </svg> 