<?xml version="1.0" encoding="UTF-8"?> <svg xmlns="http://www.w3.org/2000/svg" width="37" height="37" viewBox="0 0 37 37" fill="none"> <ellipse cx="18.5" cy="18.331" rx="18.5" ry="17.7627" fill="#F5BA74"></ellipse> <g clip-path="url(#clip0)"> <path d="M16.5955 14.1653C16.0156 13.8188 15.2725 14.2376 15.2725 14.9166V23.0833C15.2725 23.7658 16.0168 24.1788 16.5955 23.8358L23.4426 19.7583C24.012 19.4188 24.0108 18.5951 23.4438 18.2545L16.5955 14.1653ZM17.0225 21.5445V16.4578L21.2866 19.0046L17.0225 21.5445Z" fill="black"></path> <path d="M28.2213 8.81654C22.7928 8.01037 15.2095 8.01037 9.77867 8.81654C7.60633 9.13854 5.89483 10.8442 5.5215 13.0585C4.82617 17.1687 4.82617 20.8332 5.5215 24.9422C5.89483 27.1577 7.60633 28.8622 9.77867 29.1842C12.4993 29.5879 15.7567 29.7897 19.0128 29.7897C22.2632 29.7897 25.5123 29.589 28.2225 29.1854C30.3925 28.8634 32.1028 27.1589 32.4785 24.9434C33.1738 20.8332 33.1738 17.1675 32.4785 13.0574C32.1052 10.8442 30.3937 9.13854 28.2213 8.81654V8.81654ZM30.753 24.6517C30.5045 26.117 29.3845 27.244 27.9647 27.454C22.6937 28.2369 15.3203 28.2369 10.0353 27.4529C8.61433 27.2417 7.49317 26.1159 7.24583 24.6505C6.57617 20.6909 6.57617 17.311 7.24583 13.349C7.49433 11.8837 8.61433 10.759 10.0365 10.5467C12.6755 10.1559 15.8383 9.95987 18.9988 9.95987C22.1617 9.95987 25.3245 10.1559 27.9635 10.5467C29.3845 10.7579 30.5057 11.8837 30.753 13.349C31.4227 17.311 31.4227 20.6909 30.753 24.6517Z" fill="black"></path> </g> <defs> <clipPath id="clip0"> <rect width="28" height="28" fill="white" transform="translate(5 5)"></rect> </clipPath> </defs> </svg> 