<?xml version="1.0" encoding="UTF-8"?> <svg xmlns="http://www.w3.org/2000/svg" width="307" height="392" viewBox="0 0 307 392" fill="none"> <rect x="0.5" y="0.5" width="305.895" height="391" fill="white" stroke="#BBBBBB"></rect> <rect x="37.3945" y="126.368" width="132.816" height="11.6053" fill="#EAEAEA"></rect> <rect x="37.3945" y="149.579" width="214.053" height="11.6053" fill="#EAEAEA"></rect> <rect x="37.3945" y="171.5" width="214.053" height="11.6053" fill="#EAEAEA"></rect> <rect x="37.3945" y="193.421" width="214.053" height="11.6053" fill="#EAEAEA"></rect> <rect x="37.3945" y="215.342" width="214.053" height="11.6053" fill="#EAEAEA"></rect> <rect x="38.6846" y="278.526" width="70.9211" height="18.0526" fill="#EAEAEA"></rect> <rect x="38.6846" y="300.447" width="70.9211" height="3.86842" fill="#EAEAEA"></rect> <circle cx="183.105" cy="299.158" r="27.1579" stroke="#C2D5E8" stroke-width="5"></circle> <path d="M170.21 300.541C176.755 301.471 190.407 305.747 192.651 315.417C195.456 327.503 180.495 326.573 182.365 320.995C184.235 315.417 192.651 297.752 192.651 293.103C192.651 288.454 191.716 326.573 207.611 307.049M207.611 307.049C223.507 287.525 259.973 270.79 229.117 270.79C198.261 270.79 191.716 282.876 207.611 307.049Z" stroke="black"></path> </svg> 