<?xml version="1.0" encoding="UTF-8"?> <svg xmlns="http://www.w3.org/2000/svg" width="172" height="172" viewBox="0 0 172 172" fill="none"> <g clip-path="url(#clip0)"> <path d="M85.606 157.047L10.9752 123.51L59.6152 15.2704L137.109 50.0942L89.7556 155.47C89.0451 157.052 87.1874 157.758 85.606 157.047Z" fill="#CBCBCB"></path> <path d="M99.5185 150.873L15.6209 113.171L59.6152 15.2704L143.513 52.9718C145.094 53.6823 145.799 55.5402 145.089 57.1213L103.668 149.297C102.957 150.878 101.1 151.583 99.5185 150.873Z" fill="#F9F8F8"></path> <path d="M64.2618 4.93236C58.5523 2.36663 51.8439 4.91517 49.2781 10.625L5.28367 108.526C7.8494 102.817 14.5579 100.268 20.2677 102.834C25.9775 105.4 28.526 112.108 25.9602 117.818L69.9546 19.9165C72.5202 14.2066 69.9716 7.4982 64.2618 4.93236V4.93236Z" fill="#EBEBEB"></path> <path d="M119.774 60.3993L84.0903 44.3638C83.1019 43.9197 82.661 42.7587 83.1051 41.7705C83.5493 40.782 84.7103 40.3411 85.6985 40.7852L121.382 56.8207C122.371 57.2649 122.812 58.4259 122.368 59.4141C121.924 60.4023 120.763 60.8435 119.774 60.3993Z" fill="#0E263E"></path> <path d="M121.181 78.1471L69.8853 55.0959C68.8968 54.6517 68.4559 53.4907 68.9 52.5025C69.3442 51.5141 70.5052 51.0732 71.4934 51.5173L122.79 74.5685C123.778 75.0127 124.219 76.1737 123.775 77.1619C123.331 78.1502 122.17 78.5913 121.181 78.1471Z" fill="#0E263E"></path> <path d="M115.218 91.4185L63.9214 68.3673C62.9329 67.9231 62.4921 66.7622 62.9362 65.7739C63.3802 64.7857 64.5413 64.3446 65.5296 64.7887L116.826 87.8399C117.814 88.2841 118.255 89.4451 117.811 90.4333C117.367 91.4215 116.206 91.8627 115.218 91.4185Z" fill="#0E263E"></path> <path d="M108.903 105.47L57.6069 82.4192C56.6185 81.975 56.1776 80.8141 56.6217 79.8258C57.0658 78.8376 58.2269 78.3965 59.2151 78.8406L110.511 101.892C111.5 102.336 111.941 103.497 111.496 104.485C111.052 105.473 109.892 105.915 108.903 105.47Z" fill="#0E263E"></path> <path d="M102.588 119.523L51.2915 96.4713C50.3031 96.0271 49.8622 94.8662 50.3063 93.8779C50.7504 92.8897 51.9114 92.4486 52.8997 92.8927L104.196 115.944C105.184 116.388 105.625 117.549 105.181 118.537C104.737 119.526 103.576 119.967 102.588 119.523Z" fill="#0E263E"></path> <path d="M96.2732 133.574L44.9771 110.523C43.9886 110.079 43.5477 108.918 43.9918 107.93C44.4359 106.942 45.597 106.501 46.5852 106.945L97.8813 129.996C98.8698 130.44 99.3107 131.601 98.8666 132.589C98.4225 133.577 97.2616 134.019 96.2732 133.574Z" fill="#0E263E"></path> <path d="M143.513 52.9719L134.045 48.717C135.626 49.4276 136.332 51.2855 135.621 52.8666L94.2002 145.042C93.4897 146.623 91.6317 147.329 90.0506 146.618L99.519 150.873C101.1 151.583 102.958 150.878 103.669 149.296L145.09 57.1214C145.8 55.5401 145.094 53.6824 143.513 52.9719Z" fill="#E2E2E2"></path> <path d="M10.9754 123.51C16.6851 126.075 23.3937 123.527 25.9594 117.817C28.5252 112.107 25.9766 105.399 20.267 102.833C14.5573 100.267 7.84874 102.816 5.28296 108.526C2.71718 114.235 5.2658 120.944 10.9754 123.51Z" fill="#CBCBCB"></path> </g> <defs> <clipPath id="clip0"> <rect width="130" height="130" fill="white" transform="translate(53.2861) rotate(24.198)"></rect> </clipPath> </defs> </svg> 