<?xml version="1.0" encoding="UTF-8"?> <svg xmlns="http://www.w3.org/2000/svg" width="310" height="310" viewBox="0 0 310 310" fill="none"> <g clip-path="url(#clip0)"> <path d="M241.011 276.336L5.2441 273.395C-0.181396 273.327 -4.06246 268.126 -2.58012 262.903L52.8008 116.761C53.8148 113.181 57.1065 110.725 60.8306 110.771L296.598 113.713C302.023 113.78 304.487 118.995 304.422 124.205L249.041 270.346C248.027 273.927 244.735 276.383 241.011 276.336Z" fill="#F5BA74"></path> <path d="M267.776 69.1472L134.677 67.4865L108.8 30.2856L12.5735 29.085C7.53776 29.0221 3.39926 33.0534 3.33637 38.0944L0.528207 263.163C0.891532 263.178 1.25472 263.204 1.60738 263.229L56.1563 120.012C57.1704 116.426 60.462 113.975 64.1861 114.022L276.307 116.668L276.785 78.3843C276.848 73.3433 272.811 69.21 267.776 69.1472Z" fill="#E48F27"></path> </g> <defs> <clipPath id="clip0"> <rect width="305.537" height="305.537" fill="white" transform="translate(3.81152) rotate(0.714836)"></rect> </clipPath> </defs> </svg> 