<?xml version="1.0" encoding="UTF-8"?> <svg xmlns="http://www.w3.org/2000/svg" width="62" height="76" viewBox="0 0 62 76" fill="none"> <path d="M44.417 29.1567C45.711 34.0317 53.5798 53.8318 57.3524 63.1225L21.9575 72.5177L16.3207 34.875C13.6035 32.842 8.03491 27.942 7.49769 24.6056C6.96048 21.2692 10.7834 21.1241 12.7621 21.4687C13.213 22.0738 13.7797 22.6772 12.4386 20.2499C10.7622 17.2159 12.9386 12.2894 15.7864 11.5335C18.0647 10.9287 21.0524 13.3248 22.2615 14.5984C22.4723 12.658 23.1762 8.52826 24.3055 7.53269C25.7172 6.28822 28.2661 6.04653 30.8394 7.53784C32.8981 8.73088 33.8605 11.8095 34.0843 13.1997C34.7542 12.442 36.7449 10.7539 39.3487 10.0628C42.6034 9.19885 43.5494 11.1221 44.0886 13.1534C44.6278 15.1847 42.7994 23.0629 44.417 29.1567Z" fill="#E48F27"></path> <path d="M32.4544 33.4697C38.5927 34.2756 40.008 28.8678 38.9471 25.7832C33.1853 19.1068 28.5737 19.4385 25.8606 21.6261C23.1475 23.8136 16.1425 30.9266 20.5693 35.5535C22.3342 37.3982 25.8555 32.6034 32.4544 33.4697Z" fill="#F5BA74"></path> <path d="M40.4633 12.7657C43.0154 11.8878 42.5004 19.0001 40.4631 19C36.6106 17.7564 33.852 17.6082 36.1328 15.1113C36.9468 14.2202 38.9109 13.2997 40.4633 12.7657Z" fill="#F5BA74"></path> <path d="M26.7148 10.0982C28.002 8.1417 32.5003 12.4999 31.0001 14.4998C30.2498 15.4999 25.5003 16.4999 24.9845 14.0059C24.7724 12.9802 25.9318 11.2882 26.7148 10.0982Z" fill="#F5BA74"></path> <path d="M15.3972 16.3272C15.3206 14.7034 20.5001 15.2146 20.5 17C19.1305 19.0174 17.0807 20.9673 16.0222 19.227C15.6444 18.6059 15.4438 17.3149 15.3972 16.3272Z" fill="#F5BA74"></path> <path d="M9.45603 25.2273C8.73264 23.7716 13.1148 22.9985 14 24.5C14.5 26 12.864 28.7982 11.1948 27.6308C10.599 27.2141 9.89605 26.1128 9.45603 25.2273Z" fill="#F5BA74"></path> </svg> 